<mxfile host="Electron" modified="2023-08-09T11:49:14.387Z" agent="Mozilla/5.0 (Macintosh; Intel Mac OS X 10_15_7) AppleWebKit/537.36 (KHTML, like Gecko) draw.io/21.6.5 Chrome/114.0.5735.243 Electron/25.3.1 Safari/537.36" etag="Md2JKI7nrjNrkbdOf_jT" version="21.6.5" type="device">
  <diagram name="Page-1" id="py-MvKl3riDY_G-JkDAn">
    <mxGraphModel dx="2289" dy="832" grid="1" gridSize="10" guides="1" tooltips="1" connect="1" arrows="1" fold="1" page="1" pageScale="1" pageWidth="1169" pageHeight="827" math="0" shadow="0">
      <root>
        <mxCell id="0" />
        <mxCell id="1" parent="0" />
        <mxCell id="Ig7GfmeTVwYkc1D9pHod-1" value="" style="rounded=1;whiteSpace=wrap;html=1;dashed=1;dashPattern=8 8;" parent="1" vertex="1">
          <mxGeometry x="318" y="640" width="460" height="160" as="geometry" />
        </mxCell>
        <mxCell id="4pgbnnCEekSiCqALWcIx-1" style="edgeStyle=orthogonalEdgeStyle;rounded=0;orthogonalLoop=1;jettySize=auto;html=1;fillColor=#dae8fc;strokeColor=#6c8ebf;strokeWidth=3;startArrow=classic;startFill=1;" parent="1" source="Ig7GfmeTVwYkc1D9pHod-2" target="Ig7GfmeTVwYkc1D9pHod-5" edge="1">
          <mxGeometry relative="1" as="geometry" />
        </mxCell>
        <mxCell id="Ig7GfmeTVwYkc1D9pHod-2" value="&lt;font style=&quot;font-size: 20px;&quot;&gt;Orchestrator&lt;/font&gt;" style="ellipse;whiteSpace=wrap;html=1;fontSize=18;strokeColor=#000000;strokeWidth=1;" parent="1" vertex="1">
          <mxGeometry x="348" y="685" width="150" height="90" as="geometry" />
        </mxCell>
        <mxCell id="Ig7GfmeTVwYkc1D9pHod-3" style="edgeStyle=orthogonalEdgeStyle;rounded=0;orthogonalLoop=1;jettySize=auto;html=1;strokeWidth=5;startArrow=classic;startFill=1;fillColor=#dae8fc;strokeColor=#CC0000;" parent="1" source="Ig7GfmeTVwYkc1D9pHod-4" target="Ig7GfmeTVwYkc1D9pHod-2" edge="1">
          <mxGeometry relative="1" as="geometry" />
        </mxCell>
        <mxCell id="Ig7GfmeTVwYkc1D9pHod-4" value="&lt;font style=&quot;font-size: 20px;&quot;&gt;Data analyst&lt;br&gt;&lt;/font&gt;" style="sketch=0;outlineConnect=0;fontColor=#232F3E;gradientColor=none;fillColor=#232F3D;strokeColor=none;dashed=0;verticalLabelPosition=bottom;verticalAlign=top;align=center;html=1;fontSize=12;fontStyle=0;aspect=fixed;pointerEvents=1;shape=mxgraph.aws4.user;" parent="1" vertex="1">
          <mxGeometry x="27" y="691" width="78" height="78" as="geometry" />
        </mxCell>
        <mxCell id="Ig7GfmeTVwYkc1D9pHod-5" value="&lt;font style=&quot;font-size: 18px;&quot;&gt;Policy enforcer&lt;/font&gt;" style="ellipse;whiteSpace=wrap;html=1;fontSize=18;" parent="1" vertex="1">
          <mxGeometry x="628" y="690" width="120" height="80" as="geometry" />
        </mxCell>
        <mxCell id="4pgbnnCEekSiCqALWcIx-15" value="" style="group" parent="1" vertex="1" connectable="0">
          <mxGeometry x="430" y="39.99999999999998" width="360" height="270" as="geometry" />
        </mxCell>
        <mxCell id="4pgbnnCEekSiCqALWcIx-16" value="" style="rounded=1;whiteSpace=wrap;html=1;fontSize=18;" parent="4pgbnnCEekSiCqALWcIx-15" vertex="1">
          <mxGeometry x="-5" y="-6.460000000000008" width="360" height="270" as="geometry" />
        </mxCell>
        <mxCell id="4pgbnnCEekSiCqALWcIx-17" value="&lt;b style=&quot;font-size: 18px;&quot;&gt;VU&lt;br&gt;&lt;/b&gt;" style="text;html=1;strokeColor=none;fillColor=none;align=center;verticalAlign=middle;whiteSpace=wrap;rounded=0;fontSize=18;" parent="4pgbnnCEekSiCqALWcIx-15" vertex="1">
          <mxGeometry x="8.372093023255815" width="179.2213953488372" height="34.83870967741935" as="geometry" />
        </mxCell>
        <mxCell id="4pgbnnCEekSiCqALWcIx-18" value="&lt;font style=&quot;font-size: 20px;&quot;&gt;Data pod&lt;/font&gt;" style="sketch=0;outlineConnect=0;fontColor=#232F3E;gradientColor=none;fillColor=#000000;strokeColor=none;dashed=0;verticalLabelPosition=bottom;verticalAlign=top;align=center;html=1;fontSize=12;fontStyle=0;aspect=fixed;pointerEvents=1;shape=mxgraph.aws4.vault;" parent="4pgbnnCEekSiCqALWcIx-15" vertex="1">
          <mxGeometry x="272.99837209302325" y="92.85677419354838" width="56.7293023255814" height="71.37209302325581" as="geometry" />
        </mxCell>
        <mxCell id="4pgbnnCEekSiCqALWcIx-19" style="edgeStyle=orthogonalEdgeStyle;rounded=0;orthogonalLoop=1;jettySize=auto;html=1;entryX=0;entryY=0.5;entryDx=0;entryDy=0;startArrow=classic;startFill=1;fillColor=#dae8fc;strokeColor=#0000FF;strokeWidth=3;" parent="4pgbnnCEekSiCqALWcIx-15" source="4pgbnnCEekSiCqALWcIx-20" target="4pgbnnCEekSiCqALWcIx-21" edge="1">
          <mxGeometry relative="1" as="geometry" />
        </mxCell>
        <mxCell id="4pgbnnCEekSiCqALWcIx-20" value="&lt;font style=&quot;font-size: 18px;&quot;&gt;Distributed agent&lt;br&gt;&lt;/font&gt;" style="ellipse;whiteSpace=wrap;html=1;fontSize=18;strokeColor=#0000FF;strokeWidth=6;" parent="4pgbnnCEekSiCqALWcIx-15" vertex="1">
          <mxGeometry x="13" y="90" width="107" height="77.77" as="geometry" />
        </mxCell>
        <mxCell id="4pgbnnCEekSiCqALWcIx-21" value="" style="shape=image;aspect=fixed;image=data:image/png,iVBORw0KGgoAAAANSUhEUgAABAAAAAQACAMAAABIw9uxAAAAGXRFWHRTb2Z0d2FyZQB3d3cuaW5rc2NhcGUub3Jnm+48GgAAAAlwSFlzAAB2HAAAdhwBp8J46gAAAwBQTFRFR3BMqKiopKSknJycu7u7oKCgn5+fpKSkj4+Pk5OTSEhIkJCQmZmZqKionZ2dqampnJycjIyMpqamp6enkZGRlpaWpaWlnZ2dkZGRnJycnZ2doKCgnp6elZWVlJSUoaGhoqKip6enl5eXpKSknp6ekJCQlJSUpaWlnp6ekpKSp6enpqamnp6en5+fk5OTkpKSn5+foKCglJSUjY2NoqKikpKSlJSUn5+fkJCQpaWlpaWlkZGRnJycnJycn5+fkpKSoKCgn5+fpqamkJCQpKSkjIyMoqKiq6uro6Ojo6Ojo6OjoaGhlJSUoaGhpqampaWlp6ennZ2dk5OTp6enl5eXo6OjkpKSo6OjpKSkkJCQnJycpKSkjY2NnJyckZGRk5OTlJSUj4+PoqKijo6OoKCgpqampaWlpaWlpqampaWllJSUp6enm5ubjY2Nj4+PkZGRoKCglJSUk5OTjo6OpaWlj4+PjIyMnZ2djY2Np6ennZ2dpaWlnp6eoqKim5ubpaWllZWVjY2NoqKimZmZnp6ekJCQkJCQkJCQpKSkjY2Nn5+fo6OjlJSUj4+PlJSUoaGhnp6eoqKil5eXn5+fnZ2dnp6ekJCQpKSknJycjY2Nnp6ek5OTjIyMoqKilZWVnp6ejo6OlZWVjY2Nn5+fkpKSnZ2dnZ2dp6enoaGhoaGhj4+PkpKSlZWVlZWVjo6OlZWVlpaWpaWloKCgpqamlZWVj4+Pj4+Pj4+Pnp6ekZGRlZWVp6enmpqalZWVjo6OlZWVj4+Pnp6elJSUlZWVk5OTnp6ek5OTlpaWn5+fmZmZj4+Pp6enoqKilpaWl5eXmJiYo6OjoqKin5+fuLi4oaGht7e3ubm5tra2m5ubtbW1pKSknJycoKCgurq6jIyMkZGRtLS0kJCQk5OTnZ2du7u7np6epaWlpqamj4+PjY2Ns7Ozqampp6enkpKSqKiosrKyi4uLlJSUjo6OsbGxqqqqlZWVsLCwq6urmJiYrq6ura2tlpaWr6+vl5eXmZmZmpqa4Tww6AAAANB0Uk5TAEbBiAHLGO9duAMGETsLDdQKchIEFR3yMyII1d8cO0svGCj4t0CEl/0Z7in5a0ZqV+mf+a/2HkAsU2H6+Pye0/NG6Eym/fsiJbZcjJd4QdAy5tqPV/4l9DaP6+jbvutT/la+l/i0e7qH3a9r8uaf4P3N/cnJfPDa7E1g1sJvTmaR0YE+7ubxpeK6qp/5dF/k0ZB7hZZ9/f3iwabw9e6mr6pz4DNly5BXxdr1vfbHh+lOq2aA8LButcbCwKA42deMOHMv4OQ7e7QraoHDzNGu+AxSQpgAACAASURBVHja7N19kBP1Hcdxh54gBUVKUQ4QFBS5QosURBB5qpUWZTpCQUB5GB5sp1Bqqc9FtFDvqqP2aCtQB0cGsYpiZ5x2RmQ6tva5+ld2b0Mum3B5YpNwl0u45+OeaO6O3MM3u5tfNrnb3+583v/DzO+3v9/rNpvdzVVXIYQQQgghhBBCCCGEEEIIIYQQQgghhBBCCCGEEEIIIYQQQgghhBBCCCGEEEIIIYQQQgghhBBCCCGEEEIIIYQQQgghhBBCCCGEEEIIIYQQQsiCjZ4ybpJu46ZcZ4txzjhxrW7rZ4zCashlHZ3AvFqt+U++XHyhu9pUUZWKT30xzsrjvPkH20q9PUk9Cakc3T0y5MCDWBUG5vfQplWhkNKV2K/uGX9kG+aVv0Z8vL/iQk+6AASSLTk+3qLj3HewdynqA9DZ3q+Mx9rIan6/fjDUlTYAnXO9dx/mlave2V1RkQ0AgUDxrAILjvOF0r5LMTMAyfOAXQVYHsz9aZUnxAKAJM3GvPLTvMcrKrIFIBDYU2i1cRae7L8UWQBwOJ74LlYI4/x+4vGwAiAJmFdeuvepCiMABEq2WGuck5eKRgCQh72HNcLS8y96sgFAWLcAc8bF6f99FcYACCycZanT05miIQAcjiO7sEoY5neRJzsAhOWYVw66JrX/swfA57OQAPdPF40C4JCxUjPPb7knWwAEAfNq/vn/nIocAFh4r2XO/2eKxgFwHHkWK0W/ZYuMALAc82pyRc9U5AKAb/M8a4zzltliLgCs/doNWCt6DX243AgAwjDMq7m9fDE3AHynrDHOW8WcAHDIP8Ra0Z3fcmMAODCvprb1Yq4A+CzxVcACMVcAZHwVoNMd5UYBcOCrADPbnzsAS6xwQ8eE3AHYixtXtLveOACYVxPbcjF3AKxwCkBPAIwAIONPlfb8lhsHAKcAJnY6HwAM53+cK/IBwKNYL3pXAAwDsALzZ1Yj5+QDgIUjeR/nmJl5ACA8dQxWjMY6uicXADCvZl4CpADUdu3q6lTBnmq6CwbSAPCt4f4SlZgGgCSHu4v0FEsVTxZJPwPAZUDdS4D9AVCknmlLFu5JltIAcGBezWo7BaC2Vez/Z1FI+7ModfgoACt5H+fitP3f5Cy70tmezqU639m5tjQAbseKUa3gdQqAEq90d+Xqztld53w7mwQKAObVrN4gANSW0/NiQeW8WPERAM7wPs7n6P6vKyvLBMD5834KwBCsGI35JQAol/x+LQDKyhICAQDzala7CQCtXhYA5A4CwGO8j7OUAFDvZAHgfAsB4CWsGPV+TwCI+/UAONtEACjFDJrUmwQADxsAEgGghPdx3kgAqGQDwEkAGIYVo96PCQCN+gC4CQDrMIMmdR8BQGQDwEEAWMj7OKcTAFxsAJwjABzBilFvEQGgUh+Asv4ArF2LGTSpiwQALxsAMgHAx/s46TVAJxsA5wkAMlaMeuUEAL8+AGfJGYADMwgAAAAAQAAAAAAABAAAgHUa+fzfcgXg4U1fWjYCMwkAAIDFGvr5W582NDTkCkDnP77nk3eXfRUzCgAAgEUq+Pe0PQ3d5QOALgQ2/b0QEwsAAAD/5/2f//doTU1NngHo/D+uf/cuvCAAAAAAjhu9ZueH3Y+G5R+AzlYtXgYDAAAA4Hz3DxgA3QZgqgEAAOCt2976sOfJ8IEEIPn/PH0I7wkAAACApw/+xz/t+2qIAQbA45l562R8FAAAAICPvrHz1f7vhhlwAJJNPDQU2xQAAACzK1izJ/iz4OADkDwNOHYzNioAAABmNur4P4PBtLfDDQ4AodD0TbggCAAAgGnN+8XRYNBEAJL94Q5cDAAAAMCMila+GgyaDUAo9PTPQQAAAACD3dgNdwaDPAAQCk24GxsWAACAwWzktKPVQV4ACCkHJ2PLAgAAMFiN+O3Rfr8MYToAinLyBDYtAAAAg9JHq8lPw2gC0J4rABHJwwaAMv3YLdi2AAAADHjzT6X9NpQqAK0eIV6fKwB1dY1NEZEFAEW58QBeHQIAAMAAX/tbubCaAYAOMVxVnyx3ADprq3eEMgOgKBPxc8IAAAAMZGs2V1dnBKBZjHTt/rwBUFeXSLRElIwAKMq2G7B3AQAAGKDmDe/z67AaAHTu/mR5ByCRqGuJhDIBIC7dh7sCAAAAGIgKZpX4MgDQGura/QMDQKcB9UIGAETx6v9h+wIAAJD3pvzR59MHoNlb1dPAAJCsMS7qAyDu+B1eIQoAAECem3WnTxeAmlA4Hh8EACorE00OXQBE8eAM7GAAAADyWNGp1BFVB6BVicXjgwRAsrawogeAuHQftjAAAAB566PNPj0Amr1d23/wAKisbIwrOgCI4gq8LgQAAID8NHr7YZ8OAO1SPNXgAZCsXtQBQCzF4wEAAADko/mre49nOgDtQixmDgB+f+osQA0A8acP4AtBAAAAcm5rSUAbgFZvLGYeAP7KKkUTAFHchpcHAwAAkFsF0w4HNAFo6Nr+JgLg9ydiiiYAYul67GQAAAByaOyZ/sezLwA1oUjMdAD8/sawJgDiDnwbAAAAgPE+Kw5oAtARjsV4AMDvb5G0ABDFxbgpCAAAAINtKQloAdAqRGK8AOD3N4laAIgncSEAAGh/wgUAOn18OKABQNATjnAEgNudCGsBIL7/HWxnAKDReLJYvACgF8cN0YAGAO1yJMIXAG73Ja8GAOLsa7GfcwZAZATARxYM55/AxpC1IjECcI4AcMR+K2D8zqgGAEElEuEPALc/pgGAd+l72NDZNsfgGQAFYDTfwxxqEAB6BjDVdgugaH9UA4BmOcIlAG53m1cdAO9yfBmQbU/l6QxgLN/DLCRrRTB4BjDMbsf/ptVRdQCqr/z55xEAd2VYHQCv9wFs6ex6hgCgMAJQTRZMEd/DXG8QgDKbA1D4dlQdgAYpwjEAbneLVx0A7+3Y01m12yAAQbJgHuJ7mJPJWpEZAThLAPiWvY7+Q8VRdQAuy2G+AXAlZHUAvK/gyYBsejtPAPyS72HeT9ZK2OAZwEu2Ovj/uLL/KQBBbzjMOwAud5U6AN5vQ4As2kgA8DAC0EAA2ML3MPeRtRJnBMBJAPiRnY79pJKoKgANQtgCALhc9GNAaunOxU2B7P3VIACtBIB3+B7mbwgAVYwAuAgAe2106OdvjqoC0BwOWwMAV0JQBcA7F+cAzD1OAChnBKCZAPAfvod5jADQxAiAmwDwhC33f18AqsvDlgHA5Y+oAiC9go3N2mkCQAcjAJcJACv5HubVBIBLjABUEgAetc/1/+KoGgBdH/8tA0D/CwF97mHBdwGs/YoA0MwIgIcAcIrvYc4mANQxAlBHAPiLXY570WNRNQCCQthSALhcTaoASLgfgLENBIBWRgAUAsASrkc5il4w9jMC0EYA+L5d9v/GqBoANb373yoAuBolNQCkA9jbTD1JAGhgBMBLACjhepR3UQBcjAC0EAD+bI+jft3+qBoA7Q7ZegA4E5IaANIL2NwszSIABBkBkOmto4U8j3Jf+o2AbAA0EQB22eKgF5yOqgHQnBygBQFw+gU1AJY/i93N0FYCgI8VgGoCANc3AiwmAERYAagiANjjcbOfRNUAuCxbFACnX1YBQFr6ILZ35m4jAERZAWglAEzjeZQH078FZAMgQgD4nh2O+WtRNQDKZcsC4HTJKgBIpfgJ8czdRAC4wApABwFgOMeDHDEz/VtAJgD6PgzYBYAdltTWqBoAHtnCADhdYRUApAmjsMEzfhx8kwDgYQTAQwD4l5WuAVYyAnCWADDVBreYTfpABQDflf1vVQCczogKANIK3BKYsY0EgHJGALz0BRLz+B3jAfo6EBcjAG4CgA0eBRhbHFUBILX/rQuAK6ICAG4HyNwbBIBmRgCuvBKkF4Bf8zvG59IfBmYDIEEAGGL5w/3lMyr7P9qz/60LgNMlqwAgLMAOz3RFmADQwApAAwHgm/xeAtiR/igQGwBtBADr3wi4vVZl/1+WbQCA0xVWAWDdDGxx/b4gAFSzAtBBAFjN7RCX0TfINbIC0EQAsPx9QNfUqgDQ4bAFAL3nAH0AEN7HhcAMS4IAEGUFIERfIsntrUCvUwDcrADECQB3W/xgz/9ABYB2h00AKHM70gEQ5mKP6/YZASD1TqCMAAgUgNd4HeLE/7N3/zFSXHUAwLf2StUjVDyg/Aw/jlZI0TYFioW7tkoBI6Kp6UmFM7Zaq8UGU4mladBWQwJaG6k0KVCQWgRb0gJirI22VtT4o4nJzO7sz5nrLjOZWfaOvc0utz9u75d73PW4/X7fzL7v7B3uXOb7/+7s5L332ffj+94DAAh+TgDaIgAAhx88P6U1gwHoEaoHoEOoFgDdKFYPgC8mYgDETW4jt4rZ6wAAIU4Ahk4FGwVArW4IPAZPke/gBWD0eUCDL/3iFGeX9Z4MBkAVqgagUylkqwWg9Fk93lstAL6UhAFY714dbBmtAIACLwAFAMCaybX5ghshADleANoBAA5fBXwogwFIStUCEAllSzEGAJQ+LRSrBMCXwwCIr01xW7lF/AEAkOYFQIc3ydTosWBzAQBKkBeAHADA2ceBLH0SAxBVhKoA6JT6s9kxA6AUUr46AHx5DIDoHg9iFacAAFFeAIQoAKA2xwCr4EVShp8XgDwAwNGnAdQdzCAAzutCVQB4+9LZsQUgFFLyVQHg68AAuNkAlh1DAECGF4DLmQCjAVhTk9cD3QUByHMDEAcAOHoR4AcZDEBIqAKATqkvnR57AEoEdFUDgD+OATjibgsyj1kAgOFZQA4AZHibbC2eDDp1NwQgzAuATwAALHBwMc9cjgHoE+wD0KkMNv9xAaA0ECjaB8AXFBEA4rfddm4eTwAAengBECEAtZgL9EN4mbTh5wWgHQDQ6ODz5ut2ZBAAadE+AEIhnR4/AEIhMWcbAF9KxJV3tdvOTeMgACDJC8DgGKD8PvlP1d7bzYEA5LkBKAIAnHwm+D8zCIDzkmAXACOUTo8vACGt0zYAvm5ceY8sdBu6+SxgOQAZbgBkCMC2mpwCLAcgzA1AJwDAwZPJs05iADTBJgAX9XR63AEIyd6iXQACHbjy/s5t6GaxFgAwdCQADwBiFACwpubSgRdDAOJ+XgDK8wBLL+3g88AOZhAABdEmAJE+Vb0aAMiykbIJgC+CKm+Le0SgWdywDgBQ4AUg0gMASNba/SALlkAAurkBCAoAAOf2Im9NIABUySYAsqpeLQBkb94eAIF2EVXeve6uILP4CwAgyQ2ADgFYWWMrgT/TAQBSkBuAXgCAc/MAlz6BADiviLYAGPz7v3oAyHLcHgCBIq68bjqQWWwHAGS8vAAISQBA8t2aerNbmiEAHX5uAMAUgODcUeSeBAIgJNoCwJtWry4AstJrCwBfHFXe9Qvcps6O3wAALmcCcAEQGYAA1FYXYIUOAWjnBqANtH/h404t35kJBEBWtAOAMaCqVxsAWeuwA0BgKBugrPJ+yG3q7LgDApDlBkBMAgCSz1T5Y+qOrd5/9BvXzZlz3asrnv/kqqnVfNcDSyAAhp8bgHYIgGP/QHYgAKKKHQCEHvX/AIAsG+02AAj04sr7W7ets6MVAHCeG4BIAQKwcl4VP2TGpsW7y9P2Hn514zHbX7dLhwB08wMAsgCErU4t3Q8nEAAh0QYASlodPwAGLADQxJQNAAIXUeXdO9tt68z4JgBg8FAQTgBECEDyZbu/YvbZXUvgov3ls57nPDLJ1hf+SIcAiGF+AOIAgHsdWrhTX0EAZEU6AHFZVc0B+Ee1APz7UJM5AJq31wYAg4MAUHl/77Z1ZqyFABS4ATB6IADJm2z9hhs23YcG7CPXvTz87Ab6N9bPRQAUg9wA+OEI4PMOLdxTCQjAeYUOQLxfNQfgv09NqxYAj2fStY+ZAqDpeToAgW5UeTe7+YDspnIYABDlB0BBADxu4zaGunO7S6VsCoCirP8EeRl3vwYBkML8AMBFwBcbHLoEeBgBMCCSATD6VFMA3rm/VODVA+DxNJQRUAaApnXRAfDFUeX9s9vYmfFTAEBpDMALwEgXYAQA9dfk57+9b7CMrQCQpF8Q/4I/twwBkA/yAwAWAVu+5NThXQICoIpkACI9qhkAf//PZe/HAoASASeazADQLpIBCIRFWHkbN7iNnRXPQQD6+AFQEAAriZcE1W1aplUGQJJWUDoBdbs0CIAU5AfAB0cA33FoB+AkAkAnA4Da/wgAr787vEwzNgB4PLOOyiYAaHEyAIE8qrz3uo2dFV+BAET5AfigC3AFAJV2NFDD14aLuBIA0muElbhzGgIgTwAgBwFw6IHA2xMQgD6RCkAkq5oAsG2E+rECwOOZv9MEAM1opwLgj8CXXe9eFMKMHwMAEjo/ABICQL2VsvS3U+YFQLrnGt5vXXQjAkAMEwCAaYBbnXnN5B3LIQAXFCoAAm7/QwCcvv/Kg8YOAE/9/iY2AJoRIwIQyKGXdXcFMuM9CEAPPwBGPwJg5ae5n3zLAZkfAKmR82CHaaMnFYa/sjvID0AAdgAcmki+JwEB6BeJAAiqygTgwdtHnwI9hgB4PMc+xgZAi1MBCMThy7YscFu7xRhgBIALBACGdgSMBkC9u573n3qLTAFAFPmmAk9oCIBIkAAAXAMQvujMYl0OAYgqRACEbJIJwOkzZU8aUwA89S80MwHQO4kAtMXQy37Lbe0WY4ARABIyPwBGCAGgcu4LXjhXJgKwnmcUMH8JBiBFAQBmAX3WmSOA7QkIgCzRAIhkk0wA/gRys8YWgFIJbmECoHcQAWjrgC/b4s4CWIwBrgCQJQBgpBEAKtdt4VPnyFQAxOsrF+CG3RoCoCNIACA2MUYA009CAJISEYCeJAuAB2+GIMrVAdCCfvuk40wA9DwRgDB6WTcXgDlbBAHIeAkAeDEAr8/keOohmQ5A5Ytepu7TEABKmAJAfmKMAE4lIAAyEYBCkgXAS2fQo5qqA6CRMY3zAhMAbzcNgLYu+LKNbjqg+RhgVI0pEAAYnAcEAKjfq7wxeHXIDgDis9bfWndUwwAUgwQA0BSgM9cA6p+EAKgSDYBQkgXAO4vws7YAAC5ZAxAEABxh/f6zyxgA6N5LNADC8GWdmtIxzvEcBCBKAUBQEQDq45W28s57zB4AovXxbs9rGAAjSAEgJ4LDwJx5JdCb70MAZBoA3iQLgDdYd0AeAAB0WwMQAwDsZb7Aqi0MAHQpRQJguAswqjivd+8KZMTkwwCAjEwAwNAxAOq/KvxvHg2xARA6irlUKtWbj0tsACy3dZ7VMABKOwmAi+JEOAqgrhUCoEokAMQkC4BtzAWe4wCALmsAcgAAk0Trvx1gAKBHYiQA/AIAwLlHu4xrvAwBUCkAGP0YgApLAfNDLACkfPuVgg12GywARItO3G3NDACKQQoAMREA4MwLAb7+PgRAIwEwuACAAfgCW/VDAADDGoA8AGCFyTvMmMsAYHAxkABAWx4C8Gid29xx3AQByOgUAEaqy+j68lWrBx5nAODNx0CNyQkMADabbs2bvwzXFz0eJAHQBQH4riML9I8QAFUiAVBgFKip6T8BAOjtlgBEAACmY6zp+xgA6N0kAMIQAOEat7kzohUCkCVVGIlVX2627gBAAIwUrjH+LgyA6TzOZ5oY9UWKkQDwCaC6bHbkgdLz1kEAZFJ5yowunWp65uudAAAtbwVAWAIAPG36Gg37GAAMJ3VwAnA5F6CsRFe4rZ0R70EAhlYCuf8xZFaP0VyAtzAAnewa0yshAI7cYPb/jwHw9oZJABRhdXHmDrJTsDijpCGdkmQAYH7m8+RmAIBoBUAeAmCxS7dhJ2NMJ4QpAMRgiTZOcps7jqXLIQB9tEmjAmvO6BmT8dYiGQHQZVZjchIEgP2XcVsTa86oK0wCICDA6uLIJIC6VyAA/SQA0gwAbrd43j4AgFY0ByAsAgAsz1tcOBcDoOcpALRdhIO6R9zmzp4GLAfggpcEwPA0AFg1+tVHmQ/bGIIAxMOmNaYXAcA64vmpZaxVIyNMAyAHR4zOPApkLZzSuaBQABiIYgC2Wc2dnYAASOYAdEgAAOsu+az7MADeSxQAUhCAR93Wzoi/omnjPtq6saiy8kY+wuyuH4AAiO3mAIAqU/olLTPwPFQzK29EjNEACEQgAE87dQqwvDhJiV1KFAPwhuUGr2MQAM0wK86UAgGosMPrgXswAEKYAEDAECdEaud4xw4IwGAXgJI5pjAzR+9mXBm6IAQA0HMxCwD8EQAAmpmfdhc7czQVpgGQg2kjW+udWJTTl0MAdAoAaQzAlytkdu6EAGhFdnGGBQjA5kqZOXc2IwC8eQIAbd3ihLnmaTzjIZQ61kPMHZeZe0dO44OCz0EAOmNWAPhyEADQa5z0FnPviLc3TANgqAPg/MTRN2Fip0rZ3DUQRQC8VOmIh2sRAENp+7A4g4YCAai8Q3cTBuCDlQAuAHwAgJbN9W5zZ0wctUIASl0A2u6xfubu0Z//Ej5qMQBAT1kD4IsAAMrnjd4+wN49WgwTAchNkK0jByEAlO3dUhIB8P0zlZ7YcCMEQPcWcXGGDQUBwNEfP4oB+B979//bxHkGANzq6DoaKIqSAg2tCJRC0QqEUsrooIGNr62qFkaBbais8MPUbVqpGC0dbTUYGVURrZA2ui9qy9jUoVbTpO4LY1KraWNdx/aDfRw4XI7aZ3OOe/adSezETpwvi+MkxM/7nv3c2Qn3nt7nD7D95r3nk7v33vd5JAsAXInB4x28SxAtjhHHx7IWAYhkdGoFmX+DDeSbAABSsDgAuSLvBQB4Ry8CvLyCXj8CdXp89PUy8LDoisOj8z8DACiyBQCyAQIARNPXnxIAjN6zN7yvy0fs6kCtslbPIADIl3hCApCAAPCtANQ/836igoRgtYRUL72E1D8LHgOqVwIA0qUA8EMArp8IqpljUkEKVz9m9PXSSZSPqGdTcni6O2OhwpMaIAD4G2Lz7PoVJACq2D36HLbWStnY7UWVeSss8qgOV3nGAnApAgDYVs3TnRLnCQDarAIQ6TWpIfejUUd4thfWfh7cOVocgEsRAMDIiY5XNpnVkLxsFYBLkksKSO2FAAh4AKQ2AoA/zMd86bsUAAYISHUOVmP1a2lp+GxXwU85gNuZv4AAQEjhAbjS5ZZOT2Mbt+0nqkiGrVaRjWRNqsh++OOR72kAAIjBkgCkAQBDRXpqftliUkW6VbMMQDdRQvIJJqfxwbUAAF3EA9AcIADYibt4NtEAGCzILHm98qjT3QU/Bbsx/x0CADmIB8APAeC1AYvfAowAELIKQJxyD5AvI/+tt4dfJf0HABApDUAXACC/QfeH3zDrIxHRglYByB8cHT1URq+SY7DGax8eAK9OAPA28msbzACA5R1G/xTsn3hCzSYIgGDgAYDNXp+8m1cFKHoLcL2QfL9VAOLkOsBwJ5lf/bo2/1oHAGCUBiAJAMhdOL/5q2knqVYtaBmAGMwNRm8Aht4BXAegXcUD0A87Penn0IehXrMOwFv4tywNBACChgeAaPWynGc7LfYRAAREqwDE4xnTXnIfbhl5aWwNgAQAYJfnrodXmvaSNAp6SeIACIowNzYyupa7BACgy2gAhm8ARgGwE/3Fk35uGQAraTiHACCOB4Bo98yLgxZ9ETCqm2zGOgCt/ebdZJ97hQQgVhoADQBw+t0Vpt2k859nFYBWCACrNwA7Yae3DB6AZqLb80QL31w/zSIAloqtzTpMNHxPoAG4GgcAvMqTnf78SAAw3E7SAgDxeEuxfvJbKgCA2GzaTl4d7CVtFYAeEQLA6jrR9wEA7SoaAEmHAFhr9br6PksAbLRWm+cxAoA4HgCi2QtvEECN2h0EALpoHYC4YA5AR8efxhIAtStoAwC/DwJwN6tXyCkAgC6jARi5ARgBYK617/5gpQUATlt8GV/7AgRA0NAAEM8A/EwwPZ4mAIj22QAg7mszByAzhgDInUE7AMRECACj/QA9sz8FAPTiAQhBAM7VWfz2hvvQANxkeSF+JgFACg0AfA9APVLOYyDOEgAosg0A4pHMjQDAlwjaAUATIQC31LC6jgsBaEED0BKAACyy/PUN30MCsLHO+theggDIfjQA3QAA/iLQJKavhQBE2+wAEI83jz8Ahha0A0D+sFFBbjB7h3gGAKDIaADaIACbbRTQ/eROFADz7NTm/RfRPKILDYAGnwF4bVCTOEIAMLgZwDIAhiF3jC8AalqzB0BahAC8yuyB0f0AgA40ALICAXjdzg+oeac0AItftDe4XfBTJTQAVyEAvEWQSdz1HgGAotoCwBh6DBgnAHydmj0ANJEAgNm94rOvAQD60QBkIACbbVbQX76pBAAP2C3LuZ341AQagBhfBMA+RRIA5N4E2AHAiKtt4wWAmtI0ewBckAgA2L04FgEA2gUsAF4dArDI7o+Y8rlpRQC4aZn94b0EPzWGBgBuBtxWy1Pd5HXLQQKAaK89AAxDyowPAL4ezS4AaZgcT65j9yXxEQBAQMYC0KIAAM6V8RhU8+hiOgDrdpVVkG8m/FQfGgB4IEjazlPdbB1wCQFANGwTACMudIw9AOH8v39bACSJ5GD58XAHACCLBiALAfi4vH8jDXNWQQD2zDg0tczxzYCs9GABuCIBAHiTQNPYTQIQEG0CYBitzWMNgLdTsw2AXyKS45k6Zmfu9rUAgD4sAL4AAGDp7eX+mKqZx3fdee9Qoi4+ffShChRYWwABiGMBgIsAEj8SbBq3NREARDt8dgEwYt7MWAIgdyc0+wAYZHK8yO7MffUaACCMBWDgCaAQgO9U5hdVT61ftqx+aqUarE2ZBgAQ/VgAwG5giR8HMI+dJADRPvsAxAy5d6wAUFOJRBkApMnkWMPwxJ0HACgyFoAsBOAeZ47wKFxZ6MECEAQAvDmFJ7pp/JkEYGQZwAYAOQKyYwFA2EgmygEgSSbHN2cxPG8nAQBtWAByTwAFwzGpLgAAIABJREFUAGx26AgnQwAMLABXAAAS7w9iHpOaSAAUsQwABkLorTQA4XgiH3YB8PvI5GC6ZPRHAIAMFoCwAgCY69QhvgAAGHoGKA0AOA4g8VXAYrHwMwKAaKg8AGKGmKkkAGEjkSgPgIsRMjlYfgDw3LoEANCMBaAXArDBqWN8FL5bSGIBSAMAeFGQ0m8CCgAYWgi0DUAslvI2VwoAMZVMlAtAikyON5h+MJx+DQCgYgEIAQAaHTvGTyAAaSwAPQCAH/AsLxJ1H5EARDPlApBKxeVMBQDwdieTZQPQTUkOto+I/BYAoMhIAGQFAPCxcwc5AwAQwQIQBADcwrO86H+TJSQA0eayAUilYkL5ALQmywcgSUmOeWzP2W4AgI4FoAUCsNW5gzwOABD8SAAuAQCk9TzLi8U+CgCKWj4AKZ8jAAj6yOQ4UMf2lJ0BAGSxAGQBAM86eJCrIQCdSACuSgAAfiK4aEw4QwIQVQSXAHBZIpNjWz3jU3YQANCPBUAHANzv4EHWHhYoiwAYAAwAwHd5kheNSadIAKK66AoAci8AiOR4iPUZex4AEEYC4FMAAK87eZQbAQCtWADSAICv8RwvsQzwXpQigM8FAFyMywQA3nnMi30NAKAiAQgDAL48ycnD/BkAYHAnAAaAHgAAbxJcKhZRAIiGfMwD4DdkEoDHq5gHGwDQLiMB6AcANDp6mJMBAIPFgTEAaACAx3mGl4qTFACUNi/rAFzP/5Hk8L21gfnZehoAEMACkC0EQL/f0cOsXQUA6EEC4AcAfIUneKmobqQAoGQZByAlkADscUG3uH0AgBAWAB3cAfzF2eM8TVkFxABwAQDwZjXP8FLxYBMFAKXDyzIAaYECgBsaRewGAHQgAfAqAIDpzh7nwwCAOBKAgveAuQuYtweysxCYu1Q6fOwCkBYoAKxxw1ydBABkkADIAIClDi+XtwAA4MUC0AoA4OcBMQ+W7RQA8gIwCUBMoADwvyo3TNUvAAB9SADCAIBGh48TrgKKWABiAIDf8fRGxHkaAIMCsAhATKAA8MYsV8zUQQBAMxKAfgDAGYePs+5eIEAQCUAaAMB3AqHiCA0AJeRjEAB/TKAAsOoJd0zUKQBACxKAXgDA150+0MUCcSIYBUA3AOCPPLkxUfU+DQBFF5kDwG8IFADWzXTJRD0PAAgjAcgCABY5faA3k+8BUQD0AAD4VkBcVO+lAaAEZMYAuBwRKADsecQl03TrpwAAAQlAGwBgodNH+gD5HhAFQBIAsIbnNi4mNdIAUHSVKQCCXoEGwMtumaX51woBaJeRAOgAgNlOH+lxmwAkAADf5qmNvbZ20AAIBJoZAiApCjQADrlmkr4EAFCQAHgVAIDjqyI9BgCIIQEIAgD+yzMbG3c0UQEIZJgBoEsWaAAcdc8cTbcJgA8AsNTxI/2A3AlkCwBeFAwf/3iKCkCgw8sGAClKm8qBeG2Ce6bo7wCAABIAEQBwzvEjXS4QVcFQAPgBAPw0kJUbzCYqAIGQzAIArQIVADflv+eeCgGw2fEjnWwTgIsAgAM8rfExYVgAAEBADzseAM0nUAFY46b89ywEAOhIAOTC+TzR6PiR1oPplGzeATzD09pKbG2iAhAI9HqdDUCPLFABcFf+5xoD2gJAAPP5e8eP9ItgOn1IAC4AAHh7QIsrgc/SAQi0iQ4G4HJMEKgAuCz/8+UAKgDAWcePdD15GggFwCUAAC8IYPUe4BQdgIDe4lgAkl6BDsBRl+W/5wsAgBASABXM5/uOH+msCt0B8M4AVmP+cyYA6BnJmQCkBYEOwDzXTU6lAJjo+JF+njwOaOsOgANgOaacNQFAD6kOBCARgY2khgDY48LOkBwADsDYR+0REwDyNwHOAqBbVukArHvEwwHgAHAA7MRcMwByNwFOAiD3758OwKrVHg4AB4ADYC+OnTABIHcT4BwA0oJqAsAb9R4OAAeAA2A3Fj5lBoAeaml1BgCdXlU1AeDmqR4OAAeAA2A/tjaaAhDqkB0AgGaoqhkAa6o8HAAOAAegrJcBE00BCIX6vDcYAC0thMMmAOw55NpJ4QBwAMYtJsw9YQpAKNQv3UgAusRw2AQA+fBMDweAA8ABKD+2/MQcgFBbS+RGAdDjC4dNAZixwcMB4ABwACoRd+w1B2CAAPWGANAphcOmAMhHqzwcAA4AB6AyUft/9u4+RoryDuA41pM0OfTEW3O8ChihJYIWIviCgoQGtEBtDYmaKr6U2pTUQl9Sqwa1FGhrCS9CTetZWhJqiSehtWlTGiytqS30Jd0d5nL7lu7dbvbFvd297N3t3XHA0TkFejw7s/tw+/bM7vf7P5PM88zvs8PcvhzLAYBBQChabgDORMIhawCa7qru/QAAAChzy9bmACAYzIQi5QTglNM4mDUAu+4bAwAAAADFbPaRXACcfxZQFgC6+vUPD2YFwMbdjjEAAAAAUOR2NOcCwGjAnyo9AH0p7fzBLADYOa36twIAAKACTW3JDUAweDacKC0Ag96Qz5cTgNcbxgAAAABASTqwLTcA6XTG7UqVCoC+hHbhSFYA1MLLPwAAQMVa2JIHAKOMz1kCAPpS+ogjmQOwcfE1YwAAAACghK35az4AjM6GIp3FBKCv1+W75EimAEz+bK1sAgAAQMUaf2xBXgCM24CzPldncQA4ldLPT39OAJqedowBAAAAgJJ3Y4sEAEan3eHCAXCG3SOzBOC2GTW0AwAAAJX9f8AGGQAymYHCAdDdMgDsur2m1h8AAKCy1e9fqxAAU56vGwMAAAAAZaxhVrMiAGzZXF9riw8AAFD5rl+1XQEAmnaPq72lBwAAUKGF8xdUGICm3TNqceEBAADUaPax5goCsGVlY20uOwAAgDLPAl49XCEAPr96fK0uOgAAgDrVn1hSAQB2veSo3SUHAABQqvf3vV1WAOb8/GhNrzcAAIBijdv/btkAmLJnRo2vNgAAgHLVLdvXXAYAml5ZyloDAACo2KQ1698uKQB3Pzb3GpYZAABA2RpPHHqiRADc84e541hgAAAAxWtYs+9w0QH46k1zG1laAAAAW+S45eV3iwjAs3uXOlhUAAAAOzV2zap/DxUOwLrXT0xkMQEAAOzYm4UD8DFWEQAAwKZdCQAAAAAAAAAAAAAAAAAAAAAAAAAAAAAAAAAAAAAAAAAAAAAAAAAAAAAAAAAAAAAAAAAAAAAAAAAAAAAAQAAAAABAAAAAAEAAAAAAAAAAAAAAAAAAAAAAAAAAAAAAAAAAAAAAAAAAAAAAAAAAAAAAAAAAAAAAAAAAQAAAAABAAAAAAEAAAAAAQAAAAABAAAAAAEAAAAAAQAAAAABAAAAAAEAAAAAAQAAAAABAAAAAAEAAAAAAQAAAAABAAAAAAEAAAAAAQAAAAAAAAAAAAAAAAAAAAAAAAAAAAAAAAAAAAAAAAAAAAAAAAAAAAAAAAAAAAAAAAAAAAAAAAAAAAAAAAAAAAAAAAAQAAAAABAAAAAAEAAAAAAAAAABQ9QAcZBUBAABsWP37r/79P4UDoF+7+PmxrCYAAICdmjDr0PZMJjNQBACG//21e5c6WFQAAAA71PDi/MPpdCZTRACM7n7sLytYWwAAAMU3bP+h7enhig3A8FGuvfJGVhgAAEDVGm/940fTXxoAhnv2zeOsMwAAgHqNP9CyPZhOlxgA41i//PFYAAAAAFCq91Y1B43KAYDPN+emaXUAAAAAoEiTdhx6IhgsHwBGU/aMBQAAAAAFum9+c/BCZQNg+DbgdgAAAACocEfXfyMYrAQAvlBo8lwHAAAAAFSsuhdbgpdUXgBCoZ+sbgAAAACAiuS49cFgsLIAhEJb9jQAAAAAQPlf/ddkjX8lAAiFmmqPAAAAgEq3bEkwqAYAxl3A5kkAAAAAUL4eX5JMqgNAODxvkwMAAAAAytMdLcmkWgCEw1PuBAAAAIAydP2qRUkpAE67w4UD4HX6pAAIhw9OBwAAAIBSP/u7dW0yKQHAQMjZ2+sqHIBoT89gVJcBIHzP4kYAAAAAKGW3PJhM5gfgnB7tHa44ABid6XWG8gIQDm+ZWwcAAAAApWrc/EAyLwBD/kRnZ2dxAejp6urp94byARDWrjoOAAAAAKXp8a2BfAAM+aOdH1Z0AIx6hg+YGwBt3WYHAAAAABS/2euHr5lcAGTc3s4LlQIAo76ElhsATZt8NQAAAAAUuwPNgdwADPgTqc5SA2DU7wzlBECbs7seAAAAAIr6v//1568ZCwDSbm/KqAwAxOPxnmgoFwDGTcBxAAAAACheMzcEcgGQCUVTqfIBEI939Wq5ANDWPQ0AAAAARcrxSCCQA4CMlkilyguAQUC/ngMATbt/BgAAAAAUoxuXdOQAIKNFU6nyAxCPt18kwAwAbd40AAAAACi8x7d1WAOQDkUTiQoB0H6BAFMAtI0r6wAAAACgsOpmvdZhCUA6bIx/BQFoj/f7LQHQtKcaAQAAAKCQxrWMvGAEAM5FEonKAmAQ0Bu2BEDb+TkAAAAAGH0TNnRYAjDgSiQqD0B7e09UswJAu/czAAAAADDadizosAIgrSUSagDQ3t7ntAJA8++uAwAAAIBR9bfXOqwA8EWi6gDg8Qz6LQDQtPvHAwAAAMDl55jf0WEBwGlXNKoUAJ6uqBUA2r9mAAAAMM+XW0NLzAKAoPHyrxoAHs8p3QIA/87jAAAAdHktXBKzAGDAGY0qCICnPWUBgP/eKwAAAOhyumNrzByAYDgaVRMA4ybAbw6Af92nAAAASL731sbMAUjrUXUB8MSj5gD4l98FACYAtCh/pjMAoBLdsC1mDsBQJKoyAJ62Qb8pAP6Nm6ppf54UAEhWLQArhM10SgJwUgDgCwz1ZTTzo/nPAiCoRVQHoK3LaQqA37+6ijZo2SjvADQBgCPKn+nNwma6RgnAD5jqy7i8FsRMAci4IuoD0OZJmAPg31w9O3TLKO8ARAAOKX+m00d5B9AqAPAVxlq6Xy+KmQIw4I3YAYC2tn5zAPx7qucWTQAgIAmAXwBgifJnerUAgFcSgDYBgBeYa8nqZr4VMwMgGYpEbAJAW59uCkD13AP8uUgAbFD+TO8sEgAPMNmy19b/538kAEE9Yh8A2uJOUwD066pkkyaMEgCXAMA25c/0HQGAqCQAHgGAbzHZkpfWt2NmAGScETsBcMmDgBEAbHypOnbpDgGAmCQATvGvOsr/hsJqAYDUKAH4J6Mtd2WtjZkBcNobsRcAIx8EjABA31gd7wdYKADQLQmANyAAMFX1M10pANArCUBcAODLzLZME7fGzAAYuPj6bx8AWi++I2AkAPry56phn+r/eykAH2iSAAQFAL6n+pm+IgDQLwlAjwDAbxhuicb9KWYGgNvrtSEArRceBV4CgP7Qw9WwU28IAIQlAUgLAOxQ/USvEgA4JQnAGQGATzDdEq8rR2ImAAR8XnsC0BrXTQDQ502sgq16RgDAJwnAWQGAWaqf6E4BgB5JAAYFAH7LeOet7hcxEwACIa9dATgvgACAPrnB/nv1XQEAtyQA5wQA5qv+mvRJAQCPJAD9AgCbmO+8PRIzASAQ9toXgNa4ywQA11P2//3gnwoADEkC4BYA+Lri53lUfFdnmyQAvQIAv2K+83UgZgJAQPPaGYBWjysbAF3/tO0363cCAAOSAGgCANsU/8bEd7I/CiAHQEIA4AoGPE8zF5kAcGH+bQvAsADZAOi2/2DQ1wQATksCoIsf71b8gcheAYCILABeAYDpTHjupj6TPf+xi/NvXwBaPU4TAJbb/QXhHwIAaUkAvEkBgCfVPs+D2X8FlAJg5NcBfAhAIyOeM8c3u01uAMJe+wPQGndmA6D/bIW99+vjAgABWQAyAgAvq/1cukkA4IwkAK0CAHwfSL5byu5sADpC3moAoLXdZfI+uQfqbb1fNwgAxGQBGBIAUPsp4MPidzvEJQGICwDwWaA8DwC7TQDwOasDgJPtusl4/MjWGzZbAOADWQDcAgCLlIZwtckfAaQA6BMA+BIznqsJb5kAcM5ZLQCc7NJNxsPenwt6QwDAJwmALn7J60yVz/K27A8DywEwKADAGwFzNf7R7mwABpwFA9DpdBcOgCvRVzAAJ/tMxuMhWz8YflQA4JwkAM6AAMAxlR8BbMn+KJAcAL0CANcx5Tn6fnc2ABlXoQAktLOZgcIB0N0+Z3+hAJzsNxmPF+z8GOCHAgBnJQHwnhYAUPlLgW4Xf+ehTxaAiADAc0y5dU92ZwOQvnjBjBIArztjVBQAjLTOnsIAONlrMh52vi/8ogBAUBaAc+IPvcxW9yRXigC0SwJwyV8Bh0/7ZsbcsqnfyQYgqRcGgGsonSkmAG53uLMwAFoTJuMxzb679nsBgJgsANr/2LvX3yiuKwDgaaCAAtRBgEkbXjVuhBRIaWgBpYaEklASSAS0NI1pWjepqqqBPqAFi+DmAR9aRFooRbxE+ghEVUT4gBQloi9VVUlJW2lmd+x9zDpeZjSzrNnZ1a734bWNXa/Xxrvn3Nm5Zwxkp5r7B+zs7Mz57X2cey4E4LPVe5OHNJwHyAVAAACwYIYb56bjrBMpBECHRxgDAHGpO5m82QD4/Wq8awwAeFuDODy2OvfY0LkAgCgvAMVJgBIAqvdsgDp41FuaF4AsAMBdBTRvl1IYAFkYAwDi9WTyVgAw2AsYIsAmAN6wiMPjcedO3EIAZE4AipMAJQB8cWa13uMRCECWF4AcAOBRN87N2oqlGIBuwT4Aen8yeasA8Ps9afsAeLOM8HBuhbA/AAC6eQGQ4WGvVTsGuBcAILXyAhAHAHzXDXSzAcDOFAIgKdoGICInk7cSAL9fytsGwJvD4XHasYOAdwEAGV4AJAhAtZ4OMh8e9x7hBaBdAAC4iwBm7bUUAqBDEmwCENMyyVsNgF+OJOwC0BrD4eHYWnHnAQBXeAEYqgtYCoCxojrvcBUEIM8LQAAC8Gk30tlt2S4MgCrYBEDoVpRbD4Bf9uRsAuBtDeLwcOqfw7cBAMWygDwADEAAXq7KG5y8HwAQCvMC0AcA+JIb6SbtF1EEQLdoD4CYmlRuDwCyHMzaA6D44eXh8XOHFghbBgHw8wIQggB8syozoi5oAIBIKy8AaQCAWxPcpE2KIgAUyR4AweuKctsAkLWcPQDacjg8nJoOtB0A0MsLQGEMUAaAcaYa7+8QBCDPDYAOAHArgrLblGYEwJWQaAsAT1K5nQDIcsQeAN4ICo8tDq0T/g4AwOAGwA8B2FyFhcFWawCAUIAXAJ8AAHjKjXVmez6KAJBFOwBE+hXlNgMgh/rsANAWFlF4OPTYuNcAACkPLwAiBMBYU323Vw8BiLfyAtAFAFjwKTfWWa1uKQKgV7QDgNir3H4ABocBdgBo68Ph4cxkgHsAAEOTAFwABDMQgItVd3fzF0IAurgBAFMAgpsHyG7vRiEAhQEAHQBNUT4KAGQ13mkDgLYYCo+t05z4+MbvAgBkuAFQIQDGA9XZASgBQPDxAtAeBAC4xQCYbU0UASCLdAAifuWjAkAVEzYACIgoPL7nyAd4AgBwhRsAwYAAVFsy0MaFEIBcKy8AYRD/gnsmAKvN+AYCICnSARgd/jMAOHj32AH4VaM5AGooSwegLY/C42lHlgg9DwAoZALwARAcgADchFmAGffPe6jlyZaXljx1E9JuhjsAGtgJzAVAHsT/sQlutLPmkKIQgOIAgAZAsFcxBeDchmXjxg7AndOebDQFQPX00QEorASA8HBkPuBcCEA3NwCiAQF4eEwLAbWLD+xeNBqsj/zn8LwxDauWaxCAeCs3ADF3CoCjTWtGAAyIZACEpGIGwMENg/DeDAAGv+vRRjMA1KGpQBoAhZUAEB5bNjpxEqAZAKBwAxDshwCMYUvQnKP3wiV7jyf0nceX2N6EP/4QAiDBDYAXjgC+4kY7o/00CgFQRDIAIoz/GwA0vb+ucBUIQNwagAQG4I47at5sMAFgSAAiAG05FB6O3Bf8OwBAih8AEQFwaoq9LzG1Hg3XR05kPb3e5nEcLRoEQPdxA5CAAEx1ox23mmYEgEYGQELxPwLAf4dnlY8CAGLWAHQBAIYLOq+rNwFAVdNkALwCDA9HZgNNAgBEB7gB0K9DAIwNtsJ/7yDBZgCEfvTIYTuJ1tP3IwCy/ADEQfxPHO+GO2MCKQoByIhUABjxXwTg3H0jv/liAIBuDUAfAOBGLYfVx00AUK9RAWjrQ+HhxHTxmVEAgMIPgIQAMObSI3XVQrUSAIM9ktMv0O/rpAYBiPi4AUAjgM+70Y7blF0QgKseKgAhRWEDcHH0wMk9AADRGoAcAGD0AI9P/MYEADVHBcAbQXe73IGP8RUAQMrDDYDejQD4C3VP0JL9xUFYJQAk6TnqosBqFQHQxQ8ATAMUXnLDHbdnohCA6xIRAElhA3Dqcsl19gEAtE5LAGIAgNKNHMuPswHQckQA2sLobv/t4IXAG09zgB8AEQGg3Edb9lu/UOUBQDpN23FdMxsBoPv4AYAjgGNuLQBGB+AtCEBHiAiAqBhMAH5cdt70TACAmrcEQAQAlGVx1BxgA6D1EAFov4bu1oE7RlZAAAx+AEa6ACUAfOHPlO7/x2WVDwBpLek09pMqAiDBD0Ab7AD8xA133D6IQgD8Eg0AQTFYADS9DJZ+GgEAMSsAshIAAFR03zOLCYAnTwTAJ8C7deLxcX8FAJSMASwBGE4HLAEguZl/yq52t8wNgEQ5gWGJigCI+/gB6IMAuGcC4TZ5OwSgQ6IBEMwYLABOfQteai8AoDAGqAhADADwNFxMnj+bBYDm6aIB0J6Dd3vMgYdHnAcARPv5AdD9EABFeZD3wl/eJFMA4D+KtXY/AkDqJAAQcUcA1u3MhxCAASIAvQYLgM116FLjAACFVKBKAHRKAIDncN+zngWAFuqkAdAqwLv9k/Oe5NcgAB0EAIJJBIDCmQ40YbdMA0A8zPnfdFZFAOR8/ACgfQB3uuHO6jgCAAyJBsCAwQLgbUbaxz4IgNZVEYAIBIBRzGX8mywANDFMAmCkC1CybdyBfxavAABSMj8AuoYBOMg1DVBzt0wFQOTriq9SEQBigAAA3AksvOCGO2prPoQAyDQAZIMFwOusVaQZjQAAVa8EQF6CAGxk3UHLSgYAmk4DYLgLMHq3WxyYM/oBBCBDAEDvRQAoP+Q5JuSATAdg7cc4PviCigHI+vgBQFOAC6a78Y7aCQiAIZEACBksAEzWkFZBANS0OQCwZqcgvGgyU9TAAEBLkwBo7wF3K0x0Xl2ATz4GALgaIgBQmAcEAChvW2cDLJZtAMBzDtvyRRiAuI8AQFYEALjlQHGrewwC4CcBUFgAQAA0/drkavsQAFreDICAEIIAmB3psnoWAwBPHwmAYhfA4f3FnQCA1AABAF3FACjft0qd/VeDLQBEy2Cs268iAKQwBYAIBOAJN95Rex68MakOiQKA3mtgAJoumV5uNwRAHV6yQwCER4/vHPkmC2rNPvaf2zAAWihBAaA4C+DwNeNJEIAOCgDBDAZA+ZvFJZ/1mwAgRuLX4vGgaAKAaBGNE2arGIC8jwBAWAQAbJ3sxjuaZ22GAPSTAPAbGICmCpPHFxAAmifNAiArhSAAWyoc6jh1GwZA00kABCAAwvz/g8fpJwCgiwYGYEfljMA9fiYAek/n8O/uS+QEJgBbK6YZTD+En6cW81EAuAYBcIuBcfxlXA1RAAgZDAAuVbjejOMIAE0TuiAAgWulR1sNf5O16zgGjGUvTI4CwFA6oNNfGNShMygA6Brref6+kjibWABEusqepy8vMACoWHpt2lkG6FKAAkAAPs7g/W68s6YAy9+YbokAQDDJeGEq9xkvMwDQPLGu0gcbyIkhBgCVT3Wet4jRZUxQAAjDN2ai8wpIr4AApFQKAHo/A4Adv6wwA+jHAEh9qEfXmpMwABPNuwDTnmUM6UZWADgByIHHucVNA2ZPAZZPG3soAPQzxowW6WPjzzIAKPQC0tlCp7HQY4yAMaPEd3TvQwsxAEKAAEB7BPYZHbh1bCcEIEMCQM8w5nR2XObv0KlaJMwa0iVEBIDwqtnH1uxlTOpq6QAFgKFJXXcjoEV7xnrhuMIL42HMGr9vNWv8xkomAMWpIklkzBoPf5cWq5s5ggHwpCkAZMEb48T/jDMorcNDAaCwrYuxqmM2CliCpnTUeMBqUvfGF9lq8q5MP8ta1tUDJAB64JTORPdAEPx3vB0CoFIASGIAHrZePB9nCoDJslHxu/zRupTLSQzAyEoAFwDtQdADOOa8+sCTmyEAGRIAEQ8rr6PJZCawHgGgm+Z1hEUIgDCP+aG1u1mJXVKYBIAXreq6xQBx+wxH8rj5C+PHmWOn6qwvetd7dgA4Xcvx8p/FmWNBCgA5uHDswHMkz6OtHRoJgOHMbpDYlWRmdk5vgACIneaJXQmU2Mksv/zGJlZq99D2LgIAKK9rQa0b76j9gGP7mOkLIxkIgB1cR8rUNtIBWDuP55PnfA5vHukhABAQnV9DeuZbEIAMDQD9OnNvx8Up7CnAMgAq7+3ISVabOwuTuduYezvyARIAKLNbeNQNdzwCaObYQG76wvTizSOX+K779VlkAFr4Pnn1Srx9NMAPANo+GlznwJVAVN5BJQEQ0dm7O/9xD7rUbyEAFrs7g7C8A6689veVzN2duQANgB50s/PdeEftAVhCRpH4AdDw/vGLvBVXf9ZABOBV3ls6ggtIpAkAoBJyDjwmbNlSCECGBkBkaHUX13c4h5YDNwEAPBYFXvogAPDnralnFnjR4gEaAF60u9vdBmA+AhgFwM8PQHH7eBkAp+ZwX/mrDSQA1nN/8F3v4RJSnfwAoP1jLzrwsb6DSjxqNACGlgJYFZ4eLJ9IX/c/9u79yanqDgD46ixq2QUKLLoO+CiCw4wsFRCkIEhBwUcfdkZqxyKMSDu1Y4GOstKBzhTBnaEP1A5gpbVSH1PB4qPlXB2DAAAgAElEQVSdyrS1Uh2lSvkhuQT3bpI2yQ03yeRJzGazbHY33WUfZL/n3OR7b7K752S+3z/gZg/nfj/ce8853y+nvENBAPoeAWCbh7zX/yddXAAGzoyiAWDqu9guoXRnom4bACCk4AFwMTXktPtN/Pau3XgAtpgpIrf6KgaAKB4A9gS5hE+O1zIAxEwCEHRwazwmk/+sZxYB8wFIFSvxBos8f3fIG+n+21QuAPDMeFEAWpgKb9QQrMAbwCAAWTcaAKfGADDP1I/3YI8E4MWbTV24gS0jncADELbJvw5QtYdp85AzCUDQzQcg+adf573m7QcAOIqWeYed3tbkbQa88qH8Is95ANhwZd7zpjPODPYnlO6cr0UQABUPgMqUkX7LZNeXiQdxAEz9xOSwdiAbSXABYLrJy7h/tJ4BwGO2zHtQMWjzkPzxh4O/c5BT47UwAKftQwGwDbZgqm54TOUDYPeaBSDBDPYUZTsn3gcAhNxoAAYeAPIA2Gv69/+8uzgAG+81vX/rrtlMK6kEGoCz4B1gzfMyFpE5xnR6azfd6cltAEDyl8cHNnvNAAC0Fm/0EgQADKzuvvIaaPQ0CMDgzgI0AKcDzGDpCwDvazHsJ53GA+BiWkm9YeEvmLJsaREAdnxi4bJP4ZpJ8gFg6kjKWERiEQPAQLP3kno9DvR6fevLfe8BOzhtHooAEAEA9P3rTt63VDUAwB72mgWgg3nfoVqgvHgXAqCiAehfAsgDYMF0a3fqwaUFABhzs6WL1kxDtZM26CYJ3wGk3EByiOn2njXf7dlh3O396Me9v/IaAKDTPAC9B3Rq9j/GNnvuB8AZ9poF4IydAeAblO2850QAQMiNBkBn2kkft/pXTN/3IB+A5S991eo1/8gAEMcDANcBVsg4t9+eDwEIuUwDELUljQBIp4++V1X1RQBAG67XY/4fMqmq5tPfqKoRAIG85nFYAOLMkscGSnZOjG0EAGh4ANIAAG3dBKt/RnV13f0//xYEYPmMhtoSxvY681jhRQPA7AW6T8bZ3cQA4DEPQNSZNQQgnf73e+UA4IP89IcA9O4rMAtAgtn1JGWz9+GPmf8DAOTQACge+ARworS/pXp6w74ZTz54laLM3j1tx7Kvf1xX2vXGMQBk0ACcroSFwKopjRCAULt5AKLBdmMA0unbSgdguaoaAqBnvOYBOONkAPgHJTsvTkIAdDQAWQjAR+U5aj127MSx5RncDAiAvRkLwNlgRdSS3soAENLNAxANqgUAUEsHwG0MgHLeawGAVnjyac0D1A6MG3sAAB43FgC7BwLwqWiDe2UW/LDQhgbgPADgcimnt24tA0DffkBzAESjyigBYE95LQAQZosffJ9ynfvU3QgA6EIDoPoAAB/VCTe8GRCAIBqAFngiUM5akusZAPpeAswCELVlRwOAYNhrAYAhhw36fuNRqgXOX4A7BwBQ0QAkIQAnxBverczSQgsWgLMQAEkbyu1hAAj5rQAQDXaPOAD+zMX8NwNAhC2A+BXKdW68CwD4XMEC4PABABbUCji+MRCADBqAOABA0lISi+YzAHjcVgCIx5X0yAJgT4UtAdDG1kCnJUCDOAQA8LixALRDAL4m4vjugQA40QB0AAAelXSK32QACKWtARAPtI8gAP5oImwJgGYbA8ADqynV+bEWAJDGAmCLQQCuFvIj2Fy4uyiMBQCcCHQ6Jf2MXLOWASCkWgMgHtXTIwWAozMctgTAQDf5fADoC6BBTLgTAJDDAqD4AAB/F3OEz0EAMlgATkMAZD1LOpMFwKdYA6DnIaB7RADQI4mwRQAybC/0b9ZRqhvcG+cAADoWgBwE4FUxR7h6FgDAiQUA7ARwOv8i6yw/wgAQitktAhCPu7PDD4AtFQ5bBCDF3rur7qNMN/wGOBSAkBsLgAYAWDBR0CHugPuLW7AAZAAA78g6y+NfZgAIZS0DEI8o6eEFQMmEw1YB8NrZe5daARjGJgBAEguAwwcA+L2oQ2yAAHRgAUgBALZLO81vswCEctYBiATVYQTAH08lrAPgZO5d22HqBWQYjwMAslgAXBCAOaIOcfJsAEAUC4AXAHCDvG+Sm1gAQrp1ACKRQG6YAPBHU4mEdQDi7L27ahzluWE0AgBULABZAMBvxU2OhwAAjmYkAJ8BACSuKT/xfRYAj6MEACIRZ24YAHDFe9PfOgAdnHv3KUpzw7j6HABARwLQuwg4BIAfijvIBgCAkkICcDYAAFgs70zXz2cACGmOUgDoeQpwZcsLgB7tS3/LALRx7t0nqinPDWM9AOBzNxKAC58A8gHYK+4gr4EAZLAARAAAMn9MOsECEErbSwIgEokqXeUDwN06kP5WAQjb2XuXtgAVil8BAGJYAFwAgCW1Ao9yKgAgiAXgPADgHYmnuvoFFoBQV4kAtLZGbGpZAPDbMqmL+W8NgBY7595dTFleIB4BAKSxAHQBAI6KPMrnAAAOLAAJAMATMs/1wm0sAKHuUgHoiaC/dACiqd4oDYBmJ+fepV6gBeMYAKAdC0AMAHBc5FFeBwC4sBsYA0ALAGCF1JO9kgNASC0dgFaldAAyZQAgyLl3t4+nJC8UOwEA3UgA7D4AwNsij3L8bADAeSQApwEAz8u9oHySA4DPVSEAnIly7t3L76IcLxiNAAA/EgAdACD0J4CqqmcBAK1IAIbUBu/NkJuknu3qYywAIZ+/IgBojrvZe3cNFQEoHBPOAQB0JAAqAOB2sce5jPMVEAVAEAAgeWu52rUhjgBKJQAw8P//kHv3B5TihaMeABByIwHoAgDME3uciwEAdiwAEQDAJMknfNERjgAeRX4AIgoHgA20A6DYZyEAgAcLQBIA8Aexx3k9/ArYggSgAwAg/amSK3iPAIMCSAtAq8ICYD88mTK8SLwKAIhhAfAAAOaIPc66jQCABBKATgCA/KXlT3IAGBRAUgCaIwoHgBdvogQvFlsBAEkkAP2LABcBmCL4QOFWoE4kACkAwPfkn/NNHAB8Hl1iAJrjCgeAjdQIsHi8CQBIIwFQAADrRB/oLexmYBQAYQDAf+Sf87o3OAD4PH5pAWiOKhwAttxD6Y343wAA0IUEQB8KgO+o6AOFewEjSABaAADbK2DSx+/kANAngJQABBUeAFQEEBN/BQC0IwFwgSeAQ6IP9AN2HRAFwBkAwIpKmPWFT3MA8PlyUgLgDSg8AGgHMCpeAADkkAB0AwB+JvpA4WbgABKAzwAAN1TEtNc38QDwddnkAyBsU3gA3E1FQFGxEwCgIgHoAgCcEH2gcB3QhgTgvwAAZ2UUl/pXEw8AX9YpGwBtDoUHwKVUAwwXawEALiQAWQDAFaIP9DL2PCAKgPy9wBcAqJCl5ZlHeAD4kja5AOjIm9I8AF6nE0DIeBkA4EcCkAYAzBR9oGNnAQGwAAQAAJXSYnrlER4AHs0tEQAtEYULwNQJlNnI+BEAQEcCoAEAPhR+pLsBAF4kAEEAQMWUl1m/hAeAJ6ZKA8Dg5z8AwOHLKLGxsa1MAIh/6PKZMgFQObvL9h7gAeDxtEsCQMqhcAE4/CXKa3Q0WgQgBgC4RviRTmNKglgD4PrKmfyHl3AB8CTtMgDQAY939N+5U+n/fxPxOwCAGwmABwBQK/xIpzKHAXAAxAEAlVRifmUTFwBPTBcegJaowgfgFB0AMhN3AgAUiwCIv+rybJkAqKgN5ruauAD0vAY4xQYgZVe4AGw5Rd//TMU5i08A8IYR/9z1GKY1gDUALqmo+b+2iQ+AJ+kQGABvq6LwAdgwkXJ6VACoIgDkjPqn+QB4Yq6AqAAkbLoBALfQ/j8CgAAwFQtvNwAglrWLCUDGrRsA8AsqAEQAEAAmY8LfDACIxVQBAUjZdJ0PwKpJlM8EAAFgOurmGQEQu/AlQCQAet7+dQMAllMBYAKAALAUWw8YABCL5ZwiAdDp0HUDAOZ+h7KZACAArMXeBUYAxDQ9KAoAqYCuGwEw5kpKZgKAALAaizYbARCLZR1iABDRdUMA7qihXCYACADrUfsFQwA0rd05+gBk3H6/EQAbf0qZTAAQACVF9Y0HDAHQtJxzdAHosPv9hgDMvZUSmQAgAEqN9U3GAGiaGhg9APrS3wiAS+n0HwFAAJQhVj9eAABNcwVGB4Dz/enPB2DLvbT7jwAgAMrzGnBiSQEAep4CnCMPQMbh9xcAYNo4SmICgAAoV+zaXAgATcvZRxaAVqX3csYAvESH/wgAAqCMMX5eQQA0rd0RHSkAUlF/3+WMAFi+mDKYACAAyhsPrysIgKal/YERACCRsQ9ezgCADbT5hwAgAMoetfMKA9AT3Y5hBqAzqLhchQGY20DpSwAQAMMRczYXASCZTLts8eECoC3iGLyWIQB30+IfAUAADFPU3LikCADJfgPKDkBbq92Vdy0DAJ65jnKXACAAhi/qjxYFoCeyLluknAB0xB2u/7N39zFyVWUcx4lZVKSwaFtLaUWCttCwdEtlK6FCii9QbUFAgkpoMViNVqSUFyUVEIRCpA2vNhoolBrejBCVaISqFItI/MPkzt0Z52XH7OxM5sXZmdnMzk532+3uOrvQhX3mzszZufNy7uT7+383Ofec5zPnnnvuub4Z/8sSgE3rOPkLAACgvrlqS2UACtOA0QkzVhsAhmNR33spA8CGtRQuAABA3e8DbutSAGAyYz32ATB8M1MSgEUXUbYAAACNyKrNagDkffYBCKoBcN+dnPsHAADQsKWA47QC4L51fPYDAACgsQRoA0DHo5Q/AABAo7NknxYAdFzIk38AAIBmZPm+pgOw4HnKHwAAoFk5b+XOZgJwxeNM/gEAAJqZZfufbBYAi87mzA8AAIBmp/2xvzUBgI5Ps+sXAABAj7z19EuNBWDx4x+kSAEAALTJnL1bGwZA4cefXT8AAACa5eS732wAABfccTYLfwAAAHoasP/NugJwwXO7PsFVBgAA0DZt965/s04AfO6OSznrCwAAQHMBjjlm7d63X6o1AL96YhszfwAAAIfklN+v/3fNALhhw64DXFIAAAAnTQTajmlfvnSBfQAW7XqLJX8AAABH5iT7AHyMqwgAAAAABAAAAAAIAAAAABAAAAAAIAAAAABAAAAAAIAAAAAAAAEAAAAAAgAAAAAEAAAAAAgAAAAAEAAAAAAgAAAAAEAAAAAAgAAAAAAAAQAAAAACAAAAAAAAAAAAAAAAAAAAAAAAAAAAAAAAAAAAAAAAAAAAAAAAAAAAAAAAAAAAAAAAAAQAAAAACAAAAAAQAAAAAAAAAAAAAAAAAAAAAAAAAAAAAAAAAAAAAAAAAAAAAAAAAAAAAAAAAAAAAAAAAAAAAAAAAAAAAAAAAgAAAAAEAAAAAAgAAAAAEAAAAAAgAAAAAEAAAAAAgAAAAAAAAQAAAAACAAAAAAQAAAAACAAAAAAQAAAAACAAAAAAQAAAAACAAAAAAAABAAAAAAIAAAAAAAAAAGArp//rGvsAfGDFfK4kAACAw3LgsX1/zOd99gEI+nwnXbhtLlcUAADAIWm/a+Xv8lOpDQCTOen5E9q4sgAAALpn4WMv78xms7UGoJArnlhxPNcXAABA3yzbu/Vb2anUAYBCbtiDAQAAAHpmfue+d6u/bgAUsmDPinnUJwAAgF5pu+vtneFwtv4AFP7PNb84nQoFAADQJ6uW/iM8mcYA0NNzwavbuBUAAADQ48f/qn03h8MNBWByGvD8WsoUAACg2Tml88rwdBoIQE/PmRs+S6ECAAA0M8v2PxnONgmASCTy3DYWBAEAAJqVA0/vDM9IowGIRBbfyWIAAABAM3L1AzeHw80GIBI55+/MAgAAABqdhSu7wmEdAIhErrgTAgAAABp6779+dTqsCwCR6OKf8qIAAABAo9J+d1c6rRMA0eiiT1K0AAAAjUjbQ9vTaSUARnvsA+BSAyAa3cD2QAAAgPrn3q3ptAoAIxGj37QPwPChjKtHBYBox4VzKFwAAIC6ZtXmdLoyAPkJd2qokFoAkMvlDg7HzMoARKPnvMJSAAAAQB1n/3u70hUByI8HU/1DQzUEIJcbGDiUMisCEI0eexq1CwAAUKec93JvbwUApqq/kJoDMDBpQLQSAOamdWwMAgAAqEfmLV3dWwGAsehU9dcJgEkDAtHyAJjmj3lDAAAAoA6Lf1dO9WhpALI+o386dQJgYCA35C4PgHnmox+lgAEAAOrw818GgNFoPJNpAADJZPJQIFIOANNc/A0qGAAAoIZZuPVoj1oDMBZMZTKNAiCZPJiJlAPA7FjH4wAAAICa5aH7e8sBMOLKvJNGAZBMDgyZZQAwzRc/ThEDAADUJHM2T/enFQATRibTcAAKBAwHywBgrjmfKgYAAKhBTt3eVwaAESOVagoAyVDyKAFWAJjmDh4IAgAA2E5nV19pAMZcqVTTAAgdJcAaAPNYbgMAAADsZd63Z/TnTADG3KlUUwEopD9aEgDzKV4RBAAAsJNV9/SVBCBrxlPNByCUi5cEwLzpcUoZAACg6izf2FcSAN/R8m8yAKHQEaMUAKZ5LpuCAAAAqsyzq/tKATBivFf/zQYg5D8cLAWA+QgLAQAAAFXln319JQAIR+NxnQDwh1KlADAfPo1yBgAAmP3y3wOJUgCMB+KaAeD3H3GXAMBcw1Lg7PMlAYCpCECvGDD6H9f6iBguA1UCcFmLjYA5ryVKAJANxuP6AeAPDZnWAAQvfoWCnm12VzkDkACcqH1LF4nhkqwSgBNaawAsvDJRAoCJeFxLAPz+g25rAILB71HRs8yPajQDmK99SxdXCUBcAHB5S/X/1VsS1gCkzbi2APhDmRIABM/g5aDZ5XYBQFQRgLQYMMscB0CoSgDOaqXuP7A9YQ3AqCuuMQB+/5GgNQDBHQgwq/ywSgDCYsDof1TzfWK4+KsE4JIW6v2TNyYsAUj3xGJ6A+BNxqwBCJ7L14Nmk19XCUBWALBE94a2dYjh4lUEICYAaKHHzafen7AEIOyOaQ+A1ztsDUDw+lMoa/VcKwDoUQRgVABwne4NnStHi0cRgIAAYG7L9P3yroQlAKNGzAkAeOVtQBABZp/XqwRgTADQqXtDzxIAuFQBMAQAJ7ZK1y+Zrv+ZAIwHYs4AwJs0LAG46XreD1bOLQIAnyIA4wKApbo39CIBQEARgP8IAD7VMvf/9yesAEibsZhTAPB6U1YABN1fZh1ANX8WAIwrAjAhAFipe0NfEQDEFQHoFgB8vkU6/ryNCSsAwq6YkwCYsRDwvj0sf+BZgGJuFACMKALgEwD8VveGrhMAZBQB8AsAftIa/b5we8IKgKwRcxYA3kNuKwDcOyhttXxTADCqCIApANiie0MfFAAMKwIQEgDc2gq93rZqRv1PAzD6Xv07BQBvzm0FgPtRalsptwkA8ooAuAUAq3Vfd5HvAh1SBGBAAPCdVuj1Oa8nrAAYMQLOA8ATclkB4P4uxa2STgFAWBEAQ24dPVnz37w1RS8DqgFwUADwlxbo9ONfS1gBMFFongMB8IRiVgC4vkJ1K+Q6AUCvIgBH9wJPA/Cs3u1caxZtBFQD4LAA4GstcAPwTMIKAF/AoQB4vDELANybLqO8K+dUAUBCFYBRAcB6vdv5gqh/t0cRgCEBQAvMLPcnrADoCTgWAI8nbgGA+6mzqO+KWSYA+J8qAOMCgH3OeggQUwUgJQB4wfFd/mzCAoDeSMDJAExtCCh6lf03cynwitktAOhRBCAiAOjSe+/FiwKAflUAAgKAy53e4ctXWwDQGw04GgCPN2MBgOtFNgRVzLUCAJ8iAEF5gMQbOrdynlwDPKwIwPs3Ak4B0O7w/l61sbj+E9P171gAJucAFofZnEGBV8rPBQAjigAYveIAib06t/IEs/ghgBIAHgHAh5z+AOAWi/pPRAKOB8DjjVudZvUDKrxCbhQA5BUBCOTFDOA4nVv5M7kG6FUEICkA+KrDu/uBQYv69wVaAACPJ24BwNcvp8TL5zYBQFgVgHEBQJfOW4FetVgDVALgiADA4fuAOgctAJgwWgMAT8xi7D7MQmD5fFgAkFAFICoPkVyubyPbO4o3AqsBMCQAcPZN5RufsQBg3GgRALq9MYuxez3vBZXNAQHA0TOBKgLgkgBovBNghTxF9qAqAHEBgKPvKedvHywGYMywD0B/xD4A/fYB6PYaFmOXk4LLr4/vFgD4FAF451Sw9wGg8ftADwoAgl5VAAwBgKMPBf/TYDEAWZdtAOKRUZ99AILR+BG7AHSHXMVj92J2BJbNPQKAEVUAxuWHJP6q7dL3gqjFEoAKAF4BwC+dfB5Q52AxAGGXYQ+Aftd4Pp+vBQCFv3cN2wSgO+cuHrsPt1PlZfKMACCrCoApAbhb1ya+IL8kM6wKQE4A8H0Hd/TVu4sBSAcNWwBkzLF8vnYA+HzB4ZwtALoPWYzdL1Ll5R8DzACgVxUAIy0A2KLrcsseCcCAKgCHBQAOfgjwkVsGiwDoNQ07AKSi+Wy+tgD4fGZ/zg4A3cMWY/d8yrx0viAAGDQVAZh6H2jGxyQ1fQ4wd5MAwOVRBSAjAHDwgtL+wWIAIoYNAFKR0Wy29gD4fNGhnA0APKnisbvmEuq8ZJYJAN5dBVQAICIB2KxnCy+VX5MdUgXgv4YAwLmvAi0ZLAZgxLABQHSy/OsCQGEWMFw9AN3eQPHYvZVngaVzuwBgTBWAyd3AMwDo0vMLgYskADlVAPwSAMf+ksx7vRiA/P/ZuxffKI4zAOBUAVoViiGAqYGKBBwEKjQObnhIxlRNQgIENakggN00gCKqohK1IEIhTdMAEpQGhSRFdSFNoiBLbRolaVqaKiqq2qbvVNq11/fYPcdmt7vHPa3z6/w4m9o++3z3fbO7861j4kU7f8Ctx7Pz23l8843oHACxL5UaPwACAanbMQD1URG/u097/dy0vAcAUHkBGJwDFACg/n0i1m8NvE9eaOAFIFMIgFHt2kZ+qxUB0CQJTgGQ+1Op8QUgoITbnAJQn8Hv7g5vEmCxClgIwLU6XgB0AEDig4l4/HITBKCdG4AYGAG4dg1wbTkGQBccAhDX1NS4AxBQ6tJOARj67cJ3V9zkdXTT2SEAIJsSgAcAuQkAkJiAicEWL4MARHkBaDQAAG5NBzT5UCsCoF90CIDUq94QABRF6HQIQL2BABC8FIFmZdrLAIAubgD6IQAbJl71KnUAgNHAC0BhGNBAtd0aB3g2ggBIic4ACF9X1RsFgKK1OwPA1ywiAKq9U0Fm5RAAQOUGIAQBSEy4S0KLH4cA9HADAJYAhCUuTTCz+mUEwNWQMwCEXvUGAqAocpsjAHzdCADBCwcyK7sAAK3cAMgdEIANE22/JTsA0EEqAD4AkgCA/7i0gS9HEACK6ASAgdm/emMBUOp6HAHgSyIAtn/O6+rs8hgAYCgSgA8ABQKQ2DbBPn4rIACxBl4AfKD/Cy5NCX5HBAHQKzoBQO5SbzgAihJ3BIBfgAAIH3rBAOxSVA4A6OAGQFYhAF8f4zC5aNHWyr0LFt518vkFv7z3eNntY6zbBR0CEOUGIAoB+JQ7VwCfRQA0iU4AEFPqJwGAIkcdAOBrQwAIXkSw7SJAFoBr/AAEIABjyg14acuUFcN9ddnwwd1fVS4aA9w7l0EAjAZuANKg/+9w57Xzd0YQAJoTADRV/WQA0EKdDgDwxRAA1TO8vs4s/wYARDRuAIQEBOCb0x3+FbP3LYDrddlk78+/8IDTmk3RIQCd3ADATUDBnVEARd9HAPSKDgC4rloAUDF2AB43B0Cr63YAgF+EAAhebhB2+TwEoJcbAKMfAuAwM9DULfPQaD133ct3N93m6Ec36xAA2c8NQBDOANwZTrorAgEY3AGgAmD0qeYA/HfbzLEDsO94lSkAmp6mA+DLIACWePGA7HIAANDED0BuCJADwElikGkvrRhoZVMABgi418FqwOy7EAAZfgDgDMCdBwFWlyMAFJEMgNGrmgLwvXcmTfoYALh10qzz3zEDQNOSdAB8cQiAtxVoUk4BAAbmALwA5IYAowBsIK8DLlo42MZWAEjSV54mrwVU6hAA2c8NAJoBPOXKpn0iAgFIiWQAhA7VDIC/Dm37fCwADExXbqkwA0AzomQAgiIEYLt3XSCzfAYC0McPwMgQYBQAdSnt6XO2LNPsAZCkvVNpv7tmGQIgww9AM5wBuDIhcEk5AiBEBiBv+R8A8Lul84ceUwsAyNgD0A4AeCY7YLlgBsCgAEQAfGkIgPBlr7NbbgSOAHCVHwDjOgLg7r9QHl5cO9zEdgBIp9eQKrVQgwDIfn4A4AxAcGVuyVMRCECfSAVAQP1/GIDdr4yc//4BAKDbHoAYAGAkVv/ETBMANDlKBaBehpXd/pDX21nlPQBAROEHYHgIkAeAuoGwYba4RuEFQNpIOdFxRkMAdPID4JNB//+qG8NIHimHAFyVqADg7/8wAB/8MPecUgBAuz0AYQDAotyA8HwFGwBNbiYC4GtDlfVOBVrOAXIAdPADYAQQACr/TsCJKoUfAGkjf17+zRoCIO7nB6DlppgBXI5AAPpFIgCiqjIB2P3grNHnXAAAJG0BqBcBADvzvgm1bAA0o5kIQGMcVtYLCGaWWW8AAK6F+AGQUwiAg+9wPvjSPIUCgMh92+MD8xAAoWYCALGbYQawNgIBSEhEAEQ1wQTg7YIWPg8AkGwBiEqFAGzPz90955b1TAD0MBWAZlTZb3m9nfmpAABEAvwAGHUIAPXiYr7xf5VCBGDjOj7RzmkIgHY/PwD1Iuj/p904AziFAFCIAMipBBOAXy8veFAZAEBrswMgDQAAyZZO1DAB0JNEABrbYWW9VQBm2QMBUAkAGH0IAPUKT9jl9IUKFQBxx07OBQAIgOgnANAt3gQzgOXlEICURAPA6E2wANi9FHC4GAIQswGgXgYAwJOW00uZAOjtRAD8Aqzsb7zezijznwQAtNYRABBUBIC6n+OT+apCB0A8zZHZYfLWxMcAACAASURBVKuGAegkAOCTIQBunDruikAANBoARl+CBcBFPMF7GAAQiloD0CYBAGCU7uTJL61nAaD30ABoTMPKLin2ujujvAYB6CMAYGgYAPVPts/8c8AJAKL9Xm7ZegxA3E8AICoCANx4JdCMJyEAqkQD4HqCBcAVxvTuDABgcB/AAoAGAwLAWGIpm8cCoC5DA6BBAJV166nucS53QACuhQgAGB0YAPVOm0feX+EMANFuM/DSPA0BkF0B5AUgBgH4rQub9OxHEACdBoCWYAHwPuuqvZUQAL3FCoC0BABgnrT8YxUDAD0UJQEwPATIP9Xp3RXIKt8AALT2UwAQExiA52y2Ah4NMAEIGelMSzTa3NaTlNgAVFu34OKTGgYg4ycAEBQBAEtud1+DTn4dAtAhkQCQEiwA9jNjPOZWAAA0MWoOQFSCALAn5iVHGADoQjMJgHoBACDs83o7oxyGADRRADAUDID6nOVdYWUBFgBiT17D+jvDLABEy0FccY2GAUj6KQCkIQBuPAm85yMIgEYCQFZZADxosrRTCgHQ4qYA+OUQBOAo+1dnn2MAoMdJAGSHAK7f0Rn3MrccANCqUAAw+jEA6t0nLB44kwFAqBu+MC0GAwCrD/LUhRoGQApSABiaNhYAcNSFDfpzCIAqUQAY2gBAAJge89iGANCSJgAE5RAEoPqzZvtEUxgA6GkSALg513ndnVEuQwBUEgCDO8bohbl4wnIAAAEIN+MXpiGNAbBYx5l6hPHC1LX5KQD03AyfjJL7IAAKCYAAA3SLY15zahAA2eZEADTLIQTAcdPfLfoDvT3hgC52Mwzoxr98CQKQHTJyx45LrC/Gm/eYPa4WA9DO/mJ0igiAHWZbgcVHHHwxwBvjQ5NGN2aS2QWbs0miABBiTOksN3b+hQHQxTbUng09UggB8GmLnd2iWsaITgxSAEBLOj/zdgJNlgELAeggARDWGQAcNFsJ/GcAAZA2mzO2iBAAs+w8X3yYNWcMB0kAZOCysRt3juccgAAEKAAIKgOAH1k9cFoNBkCvS0YL27PTyF/TGflDLIGdfY6xphOjANCYhJs6Xm4wVvk9WjXSSQCE+1mrxrvZWUJ/igBImq8adyIAPmT+6JqTrFVjMUgDQIYAuDGPzB60phuiANDH2NZ9xXoidIwBwAAB4Uxw5P8eTcuFuzoi167O6KpO3q5OJwWAFgiAtwzINPwABEClARDuZQaOrGL8tyfD0DHLbaORfeNRALaz8nOVVTD3jVtoAHSj2j7kwsb8MQSgSyIAoDMCu963S/T0KAuAwbgOOR5Lt7cbIorrEPniOnL7unkAiBQAGg0Y2HnU6+6M8haKHNFoAAgpZujo/lnoUZdg8LjeaRk5JsN9o1uxKSOxo+TIsYI3xoeCx/e6sCmXRyAAdQQAWKHdG2zDZ9ZWmABgGtiV/Tvs/79rVuDIzhgFAHS0w8sMxNwJfAMCkKIBMHh4lHV4BAePwvOjgyfI7WPH8wBAC7lFpYrT2PGCN6Yb1daN94GchYGdHRIBgH58uOtiif1D33UEQDVHkNW7jLMdLQQAGuDh7h3eFQGs8gQ6PaLQAAiHmACoFx9Dw8VCAPQ2m+OjYQDAL8C84rYjzk+P5b8x9QKs7dfc2JKHIAAKAYAQPt598B6ep55xAMBGLl8rMQBykB8AnN7BuyWIVR5BACSIAITrmACou1fNL3hSFQAgbHd+PANPjxQuAqysCDg/P57/xvSg2rrxVVl9HwDgqsQPQPbK10IAXuR67IxaOgBb+TY1puD8DmkCAOiaNy8UgFleQxkkAtQcclqCnUPqSn6m0CIFANBjB0ADBCB/GWdqaX4OqTwA4kEiACPHx0dr+2033gl+GKZ36CIAoOEUb//gnUQeoQLwAucvf+EkzvAU5AfAF4ZXvXsngpjrOOUQgCZyEknFJIncm0tHu9LfwGVyepQriWQ+AHknOo5VBdgAxJupAMRQbV05VnwWADCa3cEegOELX/MBeHsu74NLamgA/IS7SutwjscYPwCNGTgEeMbr7axyCmWR7CKnkdZVkzSyV3KBwccAABLfRRL5AORS9BSXgjzS5Cyyo29MC+oeT7lxx7gE5nhVJX4AAijNO98CwHBrzKQAQMmzVImzPLfwA4CWAb3cgOxXB+WRdnCRhKaaJZJfNfwpWQkAMOwByAAAhqNzpuXuk0IAGLx55HNvTL2BusdmN7biYQhAFz8AjIteSLc9zq3lBmDjVsoPz8L3PMT5Afhf0psDkDYCRm+S6KVfJaWrplfJvPh/9u79OaryjAN4SoO1JIA0DAO0okwBk1EIiQRULoGKGLyU6mihKmUExrZ0FB2tdqjQWoujIFALONNBwbZCqajDUGtLW5S2QG/8sOewNcnugb2xl8leQthsdsPm0mRzI8/7nt33nL2979nn+wcc8p53nw/nPZf3SawD7gcApN5Geli/96G7OFteIHtJ9f/+vMytpAZ/MR1EeQh5ATDY733wcs7NDgDZ6m3jZE3/+KhD5WwAVC3RNqolZKenZnYAiDXAb7HYqfePyV5SLu3NJBU1AFoiJ3b21NTntQPQDADofX1k3ou0bpID63/NANRLRHkI+eEo0egpqDADIJHNXo9q/fdnP8ICwGrNm6yQvR4D7ACcgwD8BYudmnUEADbtAASkiHo72RMPFUMA/KkBgBvJjyg6vZreT7rvy0K7dgD8RHmcFXIKH4etHrvYASDbvW/Q/geU7lmYCoCqmToOS3Z7bmYGgFgDPIq1Tj/LPyT6SXdqByBgiidpKH9idfoArBhe/sMBcF+xawcgTJTHw0L2AySaPV+WmQEY7PY+CMC+Cj1/wpTVSQFYfG+pnqPeQQAQYAegDV4CfAOLnZodBAA+t3YAAp5OdQAisfQBMDeoA6AkutNqBCCxVf3w8hB0C/knAQBOhRmABhsE4IzOP2LKtIVqAFTtLtV50JEQALmJGQBiDfB7rHVqij8hAOhrKKUNgIC3O18ASGG7DgCiRHmsFHPfiIkXAAAxZgCGLgAGADhVovvvmLD3OgoA66fN1v9q1ehyCICfGYCL4F2gh5/DWqfnTgIAX5cOAAIBuSUvAISa7DoAaCLLQ9BtI/4DAXAxA2C1QQB2pndLeea2F24Zqv6fHTy0ZVxaBzwAAVAamQFoxweBjPkjAUBiEaAZgKtuBOQOAHfUbtcBQP8Hx1eXx6vjxJy+1wAAPoUZgBYIQG36j0FH/WvLps17/3Zs9ryK9A92czlcV0SZAWg04aYAbOntKg8A6H0jWDsAocFlQM4AMLc16QLAT5bHPWLOXvHzAIAIMwCyAwKwhrfRbYMAmJgBOG8BAGCLILWf0IcEAL64LgBCISWSSwBcgd6WIjoA6CDLY4Sgs3fbJQBAAzMAnRCAB7l7D6puIbyzGGYF4GIrAOC/WOoqKXmMAMDXoA+AkCeWOwDk9qYmXQA0SkR5rKwTdPI+BgBcVlgBkGwQgJ38De8ABCDEDEAY3gQYj6Wukul3EQA4FH0AhEK99wJzAUDiv39dAJzzkuUhbP+odwAANmYAGhwAgFMcVshvIADmelYA4AdBltFY6Wp5igDA55R0AtB7JyAHAJg7mpp0AhAly2OFsP87/BoAEGEGIA4B2MHj+A7DZ4vtrACc9wAAsEmgasZuJQDwxfQCEApJsWwD4PI3N+kFoI0sj2WrRJ25igsAgG5WACQHAKCGy+dksyEAXlYA4E0AC24LpJ41JAC+Bt0AhELmeDYBsHrDg/WvGQC7RJbHG+JO3CUAgJsVACsEoJrLAY6vAgAo9awAgC8CLfg5QLKlJAmATdENgN8fcMWzBYDV1NHcrBuAehNZHr+bLOy8fQgA8CmsAEQgAFP4HOEb8PXCdlYAwJsAFksZ1rn6ImAjAYAvaNYPQA8B7nhWAJDam5vTACBAlsdXV4k7b38AALSwAtC7AhgGQC2nI6wrBwAEWAE4DwH4HNa5eqbcSgDgi0hpANBHQIYBsFr6yl83AFFKeYh8c+gxAECMFQAXBOAMr0McCQDofw6QGoCLAQDAl7DMk11MkgD44mkB4PeHlFgmAbCaBspfLwAdlPIYIXDnuMl3AQAaWAGIQQDm8jrG++EXRmFWAKIAANwUJFlGPUsC4OtKD4CeSN2ZAsAdaAs3pwdA2EyWx9siN48+eQkAILMCEAQAPMPtGKeWAwBaWQHoAACswCpPlkmvkAAkHgWkA0Bra2tA7soAAFI03JP0ALBLlPIQerO4SgCAQ2EEQHEAAM7wO8jDAAALKwCNAICV2CU4aa6lAOBwpw1Aa6s5fQC84XDaANSbKOVxk9BTtg4A4GQFoAECMJffQT4BAJAbGQE4BwCw1GGRJ/85kQD4bHL6AEhcANBoUcjyOFsi9Iy9BgDoZAUgDgB4kONB3ggBaGME4KIHAIBfBCfP+OMkAD0CGAOAeo9CAvDoBLFn7BMAQBcrAEEAwFM8j/IrAIAoKwB+AMBmrPHkqdhKAuCzmQ0BgFchAVgm+pPh5wEAVkYAzA4AwBqeR7kdAOBhBeAKAAC3BEiV6beSAPicZvEBqB+q/6vKQ/QHw6WXAAAyIwBuAMB8rvfLOgYASLwJwAJABwAAvwZImR0UAByDAggLQL1HpgAwR/TZOgkA8CmMAHQBAGq5HuYEAEBic2AWAOwAAHwOmDrVFAAGBRAWAK9MAeDsGOGf2wAAbKwARAAA1XyPcxflLiALAPUAgK9hfae+EXiEAoAjqAgNgFemALBrqvCT9QMAgJMVgCAAoJLvcc6h3AVkAeAzAIAFdwZOnTEvUQDoF0BMAOotMgWAt28Uf67WAQAijABIDgDA3/ke524AgJcRgIsWAMDNWN+pM3crBQCHTREVALtFpgCw7AYDTNU7AIAYIwAKAKCG81fkbgcASKwABAAAX8fyZsjE9ygAOHrfBxARALsk0wD4sRFm6pcAgC5GAFwAgFrOx3k3AEBhBcAPAMAm4Uw5Op8CgMNmFRGAsFmmAfBdQ0zUSwCABkYAugEAG3gf6GIggJ0RgCgA4PtY3Gx3l2kAOBxd4gHQZpZpAGw3xjw9CQCwMgIQAwB8yvtAvywTXwQzAXAFAIAdQhlTSQXAEbMIBkCUaFWfKI+lBvks7C0AgJsRgDgA4F3eBzoNANDOCEAHAOAmLG3GfEwFwBY3iQRAo1+mAjDHIPVfcgEAIDMC4AQATOd9pIvI54BMAIQBAEuxsllzhgqArcUsDgB2j0wFYLlRWsRcf2k4AJcVRgCCAIBv8j7SJ3QC0AQA+A4WNnO+RQXAFnSJAsDQ8n84AIcnG2WKbgMAOBgBMDkAANy/Egm/BvAzAtAIAMD+gBoygwqAzZa4EcA/AFfgo6P+rB1nmBmaqBMACQBQw/1IbwCTGdAJwHNY1lpWAQ4qALaISQAAAjIdgOUlxpmgkwAAGyMAZgDARu5HOpr8IJgJgHoAAH4NpCk73qQCYAu6eQcgLMl0AOYYqUXs9AwBUMv9SOsyBMCPsKg15d03qQD0LAM8XAMQlWU6ANsNtS3kLABAkBEAWTgApoLJNDEC8D8AwPewprXlofl0AGwRM78ANFlkFQAM9hj4TgCAUycAH3A/0jLyYwAmAM4BAF7Fktb6G3uPDkAwaPVwCsAV2U0H4Gmj9Yd+XOcVgBvM53HuRzpO5xXAZwAA3BBA+53mrSoABFvMPALQ7IHNJAcAWH+H0ebmWp1XABCAI9yPtBhuCqYTgC9gQWvO3FoVAILBbg93AEQVtwoAi433KWimAPgi/0NFAPKXsUfUAAi2KHwBEDa53SoA7DLgXhAIAAKQi4yvVgMgGIyZ+AHAHpLdagCMNGJveAQAAchNKuerARAMWr2cANB39U8HYGlJEQKAACAAejNlqyoAzojs5QCAdsnlVgNgvUE7wiAACECuUnFcFQCns1PKNwBtFpdLFYCq0UUIAAKAAKR3I2CdOgA9BJjzCUCz1+1SB2BtWRECgAAgAGn/3F5RB8Dp7DLlC4D+8lcB4Ol7jdsUHgFAAHKZSc8mAcDpjJnyAUBboL/86QDsMvJG0AgAApDTFJ+ZnwSAHgKUQI4B6PC4hkIBYHlZEQKAACAAmcrLG5MB4HTGlVwCEJV6j6YOwOJjBl+UIQAIQI4zdn9SAJzOiNWTGwDaQnLf0VQBGFlXhAAgAAhAZjNrY1IAEiuB7AMQtbgGjqYCwPrdxUUIAAKAAGQ6Y9alAKDnMsDlySYAHQF54FiqAKydZPyZQAAQgLzkZG0KAFpaWjrdluwA0OY3X3UsFQCqZhbCPCAACEB+UjKjJhUACQM8mQagI6QMPxYdgG3XFCEACAACkL3M3ZAagJ7ErZI/UwC0RT0D1Z8cgJ8vKZBJQAAQgPxl+jMMALREIvFuWU4fAE/IbG24OqoAVG0uLkIAEAAEINsprvw2CwA9iaUPgLkBRAWAWxaVFs4MIAAIQF5T+pMavgAoP1BXSOcfAUAA8pyK+2o4AmDtqsI6+wgAAsAnAXkB4PDpQjv3CAACwEEm7X+dAwBefLnwzjwCgABwkes/3ZdfABZOm1eI5x0BQAA4ydhfnMofAIsX3V2YZx0BQAC4Scm/T+QHgAd+Wlao5xwBQAB4yun97+cagIV/2lRSuCccAUAA+Epp5Qe5BOCBPXUFfboRAASAu/y1el9uAFgw7fbiAj/XCAACwGHGz6rel20AFqyeWYpnGgFAAHg1YP9HWQTg4N5r8BwjAAgAz5l89L5/ZAOAR7ZtKsOziwAgAAKk7lf/fD+jAFy3Z0kxnlYEAAEQ50Jg1ow/f5QJABYcPDQbl/0IAAIgXooX/Z+9u4+Ro6zjAB7lCmKvXGqvl6YSwdoWCNqmhrYqAcGiQjE0xaZYkSZQhIB/tGJFqX8IWFo1SE0aiASkL0KggrWRFEIlpcQEjfLHzOxsd3dmZPdmM7PT27fs3e3dbe/NvWtprr95Zvfp7Nsz6/f7/13yzMz3s/P2PFM7AOtmYzsCAAAQzFxUOwCfxFYEAAAAACAAAAAAAAQAAAAAAAAAAAAAAAAAAAAAAAAAAAAAAAAAAAAAAAAAAAAAAAAAAAAAAAAAAAAAAAAAAAAAACAAAAAAAAQAAAAAgAAAAAAAEAAAAAAAAgAAAABAAAAAAAAIAAAAAAABAAAAACAAAAAAAAQAAAAAgAAAAAAAEAAAAAAAAgAAAABAAAAAAAAIAAAAAAABAAAAACAAAAAAAAAAAAAAAAAAAAAAAAAAAAAAAAAAAAAAAAAAAAAAAAAAAAAAAAAAAAAAAAAAAAAAAAAAAAAAAAAAAAAAAAgAAAAAAAEAAAAAIAAAAAAAAAAAAAAAAAAAAAAAAAAAAAAAAAAAAAAAAAAAAAAAAAAAAAAAAAAAAAAAAAAAAAAAAAEAAAAAIAAAAAAABAAAAACAAAAAAAAQAAAAAAACAAAAAEAAAAAAAEhN6f7VPbUDsB3bEQAAgMCla8Pjf3mjOFI7AOof9r1/JbYnAAAAwcmiA8eeLk6lHgBM/f339+2Yh80KAACA+Onc8dJfC4VCsa4AlHPDKxf9CVsXAAAAkXPZhoffKEyn7gBMZf2NN2MbAwAAIHr7GwUADAAAAEDMdBx5+GnTLDQcgPJ/+dmzFwMAAAAABMqqpf8wp9IUAHT9i/es7QYAAAAACJHuDcceMc1mAlDO+ot6AAAAAAAtT+eBrea5NA8AXb9h8WoAAAAAQGvP/d97wTRbA0AymXxlRzcAAAAAoFVZ8s9HTLOFACSTl78/FwAAAADQirx7qUnTdACSyZ175wIAAAAAmp0F7vq3BIBkcv0DCwEAAAAAza1/1hQFgKT1f0cAAAAArczGS7NZkQCwrMvXAgAAAACakq73VmY5AZhoFgCWNWs1AAAAAKDh+fTyzdksFwCTiibXDoBm6FwAWFdf1wMAAAAAaGzW3JnNcgBQ1OXc4OBgHQBIDQwN2xYHAJZ1096FAAAAAIDGZf7ueLY6AKNJaar99QKgnPxYxqgOgKXsuQIAAAAA0Kg8szleFYCiLuXS6XSdAShnLG1UBUBR9l0MAAAAAGhENh6bOmYqAlCMalPtbwgA5ZTsZDUAlBW/BAAAAADU/+bfByvjVQAYVzLpj9MQAPL5gWG5CgCKsbgHAAAAAFDnn/+fnD1mvAAoROVcLt1oAPJ9fUMZqyIAinLT1wAAAAAAdb363xWvCEAhmcrlmgNAX19+2KgIgKLs6wIAAAAA1CudR+PxSgCMWplcrnkAlDMsVQRA2XMzAAAAAKA+ObK5txIAo+rZ+jcRgL6+klYJAGXb7d0AAAAAgNrTsfS53goAjBqpXK4FAPQlhuwKACjKhz0AAAAAgFoz//UZB4wLgFEllcm0CIBEYkyrAICy4g4AAAAAQG15d2uvNwDFqfq3EIBEoiR7A6BsexIAAAAAUEuWr+z1BkCfrn9LAUgkhg1PABTlui4AAAAAgN/M3k0OmJkATNqZjAAAJPpyiicAyqFvAwAAAAD8pfOdXk8ARtVMRgwAEom87QmAsmIOAAAAAMBPNm7t9QLA1O2UOADEYiXVCwDl/lcBAAAAABeeJZsdLwDGpVRKKABiiZwXAMa2NwEAAAAAF3yMXe94AGBaqZRoAMRiY6oHAIZxSzcAAADIBeWDXscDgBEtJSIAUycBHgAYt80GAAAAuYAsdRw2ANkzP/8CAlA+CZA9ADBe6wIALABeF36kHQCgFdnkeABQlFPiAhCLZTwAMD6c11b7514CQLZtAZhLdqfkE4BvoNQXoO6XHQ8AJjVbZAAikdMGGwDjs221VNgan2cACtmf7wg/0nlkd8qcAIQIAL9GrbnTvd9hA2Aati04AJG8zAZAPdROc4OW+TwDoAD8WPiR9vg8AwgTAB5Cr7n7/7bDBqAo2eIDEKGXAeeqsaeNBFhCAIhzAmAQAL4u/EhvJQDYnABECAC/QLF5z//P/f4TAEY0OwgAlC8DmAAY2w59vm120ok6AbBV+JHOqRMA69Bszv7vdpgAZJO2HRAAIkMqC4DyVUDb3AlcQADo5QRAJgDsEn6kXyUAZDgBiBEAtqPafNniMAEwVTs4AEQSEhMAdV27PA38ik8AJPpUR/gXJP5GAEj7BOA/qDZXNjlMAEzZDhIAkViKCYD62tz22E2rCAAOJwBalgCwSvSRPkkAGOQEoI8A8CC6zZPDDhOAUckOFgCRSJoJgHpfe7wVPPuj8wE4pXACYBIAlog+0hsJAMOcAAwQAG5BuTnyssMEYFzSggZAOHyaCYDaJgfCiwQAixOAAgHgZdEHeh8BoMQJwBgB4Cq0u3rW/JkJwGR5+wUPgHDJYAGgtsfcwIMEAJ0TgBECwFLRB3qIADDACcBpAsCbqHf1W8u7HBYAUS2YAITPPAygAKht8e3AJwgAUU4AJgkALwk+zo77CQAxTgCGCQA/Qr+r3lh6ymEBoGtBBSA8oLIA+FY7LBb8PAFgghMA/XwAnhP9TaBr6XudYU4A0gSAV1HwKuk87jAAiCe14AIwLYALAPWP1wZ/b+0nAIxwAqCQM4CVHWKPc617KgAfABkCwB1oeJVzrbcdBgBxSwsyAOG8ygBAfSj4LwRtIQAUOQGQ6fTuRWKP83YCQIoXAI0AcCUqXjmHGf13zvU/qACUBWAAoD7YEfTd9W8CQIETAC1OAHhG7HEudj8F5AJg5mzgaQC6UPGKOXKKBUBSCzoA4QGZAYAc+HvCnyIAxHkBKBIAviP2OHcSAMY4AYgQALAeSOVs/Hk/o/9RLfgAhPMy6y25xwK+w04QABxeACYIAGLfBaT3AJU+TgASBADMBaqYy473MwCISjUDoLYegNCAyijHJQH/YEgnAeDjVwGrAqATAK4X+uXoL9EFwSKcAIwRAH6IklfK0X4GAJNSrQCkrInaAbBrBSA0xPp1XBfwdUIfJQDonAAYdJHXZSKP8rfuycB8AJwmAHwXJa+Q5f0MAEak2gBIyxPF4kjtAKhGZqg2AEKnWeUI+LuhxwkAE5wASHECwOMij3IF4x4gFwBpAsBn0HLvLHqRAUBRrgmAnDpeLNYHgGg0aQ/VBEBomFWOKwK9035DABjnBEAbJQDcKfAgv0cXeh/iBcAmADyGmnum+4l+NwCFcweMHwAyydFisX4AlP9eK9UCQDjDKMfdgV4gaAsBwOQFIEq/8yDwjOC9lvtFYC4AZi4JOj3sW9Fzz2zqdwOQNWoAIGONFgr1BaAcqeQfgFDIZpTjtkBfthEAHF4AFArAAXEHOctyrQjKB0CMAHBXB3rulWX9bgDiiuQbgPKvf6HQAADKZwFD/gGISYxyBHmCyAkCwNnHANUBOHMTYAYA4i4N3nO15VoNhA+AMQIAngJ6pvMpBgC65BeAnDFd/0YAUP4vqQG/AITyqrscdwV4UsDCbxIAopwAnLkJMPNbj9eIOsZn6dceB3gBGCYA/B1F98rufjcAE5JfALSRQqFxAESj1qBfAEIlRjm2B/jM8AcEgBFeAKIUgN+JOsTfEwDUCC8AmfMBsPEQwCtr+t0AFGWfAKSihUJjAYhG1TGfAITSjHIE+CLgKAGgwAuASgEQ9esg/6IffE+FeQGQyBnAJ9B0duYedAMQVyV/ABhFs/EA6MlM3h8A4ZS7HJcE92MhhwkADi8A08uCzQQgu0DMEV5FASjxApCgAMxD1dnZcsoNgCL5AiA1aZrNAEDXjZIvAEJh2VUOKbiviN5LADizLCAPAJMUADEnBM3eSQAwYrwADBEA8GVQj3zulBuACdkXAGrRbBYAejKX9wPAyQE3AFJgV4q55iMCwCQvACoF4AUh5wOstQgAqTAvAIMEAMwEYKf7uBuAguwLgKhpNg8AXZcH/ABwctgNwN2BnSh+kABQ5AVgakrweQBk3xJxfLMoACVeAP6rEQAeQNeZ+ekpFwC9hh8A7HGzuQDoyWE/AJzUXAAEd5rIfgJAnBuAKAVgq4BPQ1ZbBAA1wgtARCIAg8Up0AAAHONJREFUzEHXWZn/qBsAXfYBgFowmw2Artt9PgCIyRQA6QtBfRngLQJAPzcAcpwAkN0g3vAWUwAy4f+xdy+8UVxXAIBpcG0aA3YF2OHVEAzEUQPiUUGCbBpHCVHSOoojIKkRCiWqWlKgtAiMCNC0ILVJ+sgDBAEVR0G4jdTWaUXbKH1EQKukKaCZ9Zh9wi4znV1s70OLsdde27jexWvvnnNm954lVRg09wfM3dmZ+819nHuuKACdAICKYquxU2VLGwJgQOYDEHCo6mcAgFuK8AG40IsAkMx6aNRpAEAyFEgIAFcfBODWWwmcVQkB6BQGAEwBSNbBoGS5qw0B4JXzAKBH/WwA0DzdfABaAggAyaQ7xQp2AAD6hAHQIQCh927NDoCemQ9YDAA4BSBZyQDIsg0DoPEBGBn+UwCcWff/BEDT42wALvhkBMCLJj0v8GUAwBVhAFwqBOCrt9gswPFKCEBMGAAnaP/Sg1ZjJ8q4NgRAn8wGQOpSDQE4s6tg7M0DcPb8oBEAmh5jA5BcCQBtw6SBop8AANo0YQAcEIDQc7dkB0BHQQACAMRB+z9khQERZfI7CACvhw2AFFWNAGieP/Rh/RQAuGPM6TlGAGhamA1Aix8BUGTOpcC7IAA9wgBIIQjA07dUN6hGhwB0tAoDELCmAETmkNsQAA6ZC4AC2v8oAL8dmwwu+VQAGDNm3wkjALQgF4BEBbBtmDRL+GYAQEgYANcgBOAm0wJMfnb51xp3f3769LMbvvLmr28242rBdARAuzAALXAE8B2rteNSvBkBEJW5ACiqagDAR1NvVAMBCOcGIEIAMKbg3/UGACQuyQNgaBAA24ZJuwA/AQBctQkDMNoFSAFwNP9dwTNr55RnRu3PePXBm+lR7NEhAEG7MADdEIBnreaOy8/bEAAeLgCyagBA88iyci0fgE4AwHAY55QVBgBoAS4ArbhtmPMjMQ4A0HZdGAD/dQhAaHGeX+uFGyphzF7iRMZFr+edhqtwPwIgIg5AGLT/h61sQLh8cTMCYEBmAoD6/8MAdB0bP1LPfABAIDcA3QCAR1LXWnCYBkALMgG40ItutciU80QlSwAAIXEA5BAEILQgr+Y/XYPz9alD2bc+nmeM1Ss6BCBgFwYAjQD+YDV3XLa3QQAuK0wAqPafAOBk+qLLLgCAnBuAGABgNH33xAPVJABaBxOAlgC6VXMuFW8DAFzVhQHw9yAAvsffE7SsIbEWYwCAx7Py3nzGVndrCICIOAD9EIDlVnNHZeJOBMB1mQeApKokAB8Uple0DwCg5wYgAABI38ixahMJgH6NB8CFdnSrz5iyC/AJAKCtRxyAVBdgFAD1JW4PZEWllhUARfklP/l6yWEEQNAuDkDYWgRkzACMABBSeAC4ukIUAF3zMgdc492ZAGi9uQBokQEAGVEcU0+QAOgxHgAXw+hWTTkLMBUCoIoD4B9EAPyANwiYNSP19xsDoCiv38kdAGgIgIg4AGgEcIfV3PHA7R0EgJsHgL8vRAFwdC+sqh4A4M8FQL8CAMicSipeQQJg6+cB4ES3+rApN4z8CABw1SYOwPBCQBoAavMURt0LyzURAJQNvE/wLg0B0GEXBwCtAXzXau/E7DEEQFVYAPh7QhQAT89GVa0DAOiRHAAEAADPwA/IqfsJAHRbJwuAizF4q+Z8UbYDANLGALmfpxsBoL4gXvX8arcYAMq7hYw7eqwcAeBxMgCAUUAV1giA+m5AANw8ABwhAoDo94kHfRAAkAgFygZAuwIAwHv1auoJAHSlnQWAXYIAbDTjatHSRwEAlxkAuKIIAFU4HOhUtVsUAGWjeObFaa9pCICYXRwAH+wAfNtq7qjMvQQBUBUWALYQBcD5aURdf4MADHUBsgCQStw5+ktq8TVP1xEA6C4fB4DhLkD6q2LKTYHbAAAJykUB8NswAKLTAMvTnkBOAOR3hYcWRzQEgORkAAB3Aks/tNo7Ki8jAHQWALJKAXCM/IIW1AMANFc2AEDOrqGf8DFx0bIGAgC9gwVAqwQB+I95xwBpj7OLAUByKTATALV5pki1E6pYAMhnBWdY9mgYgE67OABoCrCixGrvsKx5FAIQVVgAdIUIAL5u0IM+AAEYWbUnAIgoEAD6TKf7SgkA9F4OADe6ABmJo54y7Rgg/XHaGAAk5gEBAOo5gSazdL+bB4D8iNDd3H0/BiBsZwDQLwMAHrfaOyrfuAQB0FgAXA8RAIw1qu04AkCLGwHgUzwQgFr6qlNKCQBs7RwAkl2AjJflXjM+zbcgAD0MAPwaBkD9IGcUf8E6NxcAWSQcZ1bmukLyqrKdA0BAtlIB5Cp37oQAqAoHAFuIAOCAcX2lCABbjAYgInsgABVGE8hDAiAAdMnJAODiNQhA0TQTPs5vQgC8HgYA/gEMgJpzU8ApBx+Ah3LvECyr0zAA3RwAIuCJSmsnWw0erwFCANwcAOQoAcCxLDPoCxEAup7cvwMB6Jc9CADjj3JhAwZAj3EAcEIATBk0OnkzfJwODgCSigFQP8xe5cxNeQAgb8h1J5Om4weqd9g5AIThE7WSgQn0Gb2cFyYRAYQA+CjbClpBAwZAV/ohAM4AemVkuSLL+tGaOvy+JEPGRAHAr4sppwHRiC7Eep42AgB1XvaZegcJgNQR745EOuNhmQRAztEbn/QaIbri5ACASD/0mNXeYXPEs0bXOS+M24vfl3MTs1b5BAGArvv7nWkPNhJWiFdGzjoqP16OAZCcDADaIQAuM2YIx3O6rB6df5AAYH22cIDjDgIAWzgy8sfbu/0UABuzdsdLThBjutQKgCAAaFBnhQHj8nu4bnSZM2aUVAzAmVyLvOsoAIZ0D/dGEu3V133NlfpkZL4yv8oexbW3GgFgizEAwFNGpuwxvgUB4M3ppBZ1MsZ067P0ARoJAFztmfJ2S/hpZo21nHSCmNXVY04OAHha9wmrvaMewGYIwABn1njAiwA4OTtXnbOrSACoQWPmK5NrTP4GBsAWYQDQDQFYa8ZowHFkWIc4ACPTABnLOobzADOrEADJWd3MdmoPoqe5OkusZWEDta4bcLIAiMOF3YetKUBU5sLgcda6sc2LARA4VOZgfgDkXsN9BQPgYgBwAYaNSE+acxoQANDFi+vwUACoiw2aa5MDAmDrJRZ1WjtQD8B4TW72DCqyS/KxAMChXVYyQFyehwBEOZFjUQzAhyLdjjn5APDT3HtIJpYiAGxxcQAuxiAAfzXjM92OtnZovNBuBwWA+gU6IugwAiBOruq2hhEARnH5y/ZTsd2eiJMFAArurrjHau8GI4C0N2aQAYDDiwD4nVCnecphPgAr/yVw4QfKEQAKAwC0dcSUY4CSHRCAKA+AQA+5ueMcFRU8wQEBCBrFdfkhAAY783ZVUbu7buzwFgegFW3vetVq76gsgBkkrnjEAbixgTwDgKOC+7w+rucCsFVsUf6PCADbNXEA0OZR6XOmXAlE6R005vbuPgqAUPM+XNcBCEByG6ZBYCcAgJwGLHizmtrfrcedPADQBu9DX7baOypbIAB9jO2jPV4EgPCpsl8qZwKwR/DCjQgAj08cgO7bYgxw3xIIADO/Q8AVJRM8EIsBpRCAuM9wa0cMAkCMAQp3kxleUlnehAEY7gCk3ey3rOaO54t2QgDc4gAoIQTAMfGqazZxANhaK3rdKXUQAKMMchQAaPeYOXNIv41SPDIzPCWXAqgcjy+Mz6xpfDUAQPYZA9AqAQCK0L9bU0fneAs6mQDE0M1OsNq74QhgBACvRxyAAS8EoHk8o+7jdeIArGQE5S5EABjkkKUA+G/H7bAOMOY0AoCb4zGxx5tM8vrPzAQBex0AgFgWAFJdgNGf8RT4IDXRaZ71gI8JgBPdrHUgmPEawCgAfeIAKF4EwCpW5WtKRQFYVMOZ12zUxLLIkwB0SrfFUdJ/Qsc8DMrcNO90lufo+pfS90j9GACgt2cDwA4ByJwEmFVKH/QwmjNCGIAgutknreaOyz8gAJo4AAMIgPPM2oubKoUA+E0Z67Jl5WLnyJAAoFCAF035YB9AALDPeTA86CV6Jq0TcAQA4PJlAyAjwyPccV08tsrgpBdJ8Kyn0QfaiW7WigImylJ4nKzXIwyAgo6S+tlU9g9YdTg3AA/VcvNIHxQ7SY4EAI0BDplz8fhtCMDVHi4AATlKA9C1fvHI+t37AICO7ADEAABps4A1DUZnvY1+/4UBcMGbXW3NABDlzxCAAXEAehAA8/L4BRObqnIA0FjGvmhxAzpL1icMQOT2SCK3ZgkEgH3WYyCIBUgd9nryjeGo2hkAgHh2ADoBACP9q7JGt9Fpr652NgAx9PJauUCp8hcIgC4MgIxOkz2TXyL9sqZyYwC27t6XzzWfEzpNngbgImj/q026erQFARBlAxCUDI97j/79vWQ19QCA/uwA+AAAa2/82ElNVYbnvfvbfVwAnDJ8eVdbJwJTi4A7AABXPMIA4PPkf5Hvzygc20ADsGjFrDwv+T4EwGMXBQAdJVVkzsNkly6BAFxxsAEIuvqMAOjqOpcgYBMAIJIdgBYAQFHip5YcrHc4jAAIph0eJwpAEL28VgwAVeZeAgD0iQOgQgDO3UQ7KVh2oLQSADDjyML8927VoE5FXBgAdJikSUePzyMAvB42AEH/gCEA/2PvbnykKO84gF/jqbVHi1goXEFrISBpi0pFakDAckBstSFYSnKtILHWqqVShB4WUlLkLRqlhoJYaLGF2LQkCmk8JEVDadqYhjaZGwZ3b3fsvjG76+7OLMfu3t7L7m3v4Dhuf88zu8/N7MvzrL/vH7DZZ5/n99lnnnnmmVTqreP1TnsA7O//979uePkDALSkd+QAZIjBuwQ3AdLyNgTAyQyA2wMB2GLzy4xbvu/AmxuXjR+/bNKrb1y3aYW9T1sJAZCYATgPAXhSzN4d/TwEINw7cgBisT5zAFKp90cIwIcAgOCDe9c4naYAaD3ekQPgaCMG7x1Y7LS8CAC4JDMDkIIArCvVlyrNhHsbsayQYAXgQhAAIOr08QQBQDhgAYCQuwAAKbsAzHM6zQFQM14LAESJwXsjvg6MWmotAABdZQVA9UEAHuOscSchAAYzAPCZ4IWi9u8CAgCPBQBiMSVVPgCcBQCQ4l4LACTIwftLLHZa/nERANDFDEAfBOB93lbKlkMAFAcrAPCZYJeoJ0lOJQAIZ60AEHNlqwGA4fVaAMAhEYN3cz0WO3WKCAEIsAIg6RCATdz9/W2ENxa6WQGADwS5hH2dXCsBQNhtBYCY4a44AHJPxBIABjF4v/cprHVq/gAACMusAGg+AMAx/g5bOwMBCLECcAEcCuA6JWoPNx4lAPCplgAwBi8DKgaAlIhYAiBDDl68BWiSwwAAv8oKQBYCcJq/1o0aDwBQ21kBAIsArs3CdvHPCQAGtgNZAcAI9lUQAC0aiVgCwNtGDN4bv4ClTr9NtBgAkGUFQPIAAJ6bzWH7DsC9Rd2sAIAnAveHGkTt4/qtBADhnDUADEPtqBQAA3//lgA4FyIH70+w1E2WiC4CAJysAMg+AMBNPLZvGwQgxAoA2AngEvI1wYMLvfcQAIRliwAYIWdFANDSkYhFANLk4N2AK4AmeQUAcElmBaAPArCbx/YNLAPmATB4H6A4AGAngEvcVcC6umYSAI9iEQDDULJlB8AdTESsAtBJDt4puAfQLM8CADwqKwA6AOAdPt+i+xB8vKCTFYAoAEDgV0o2PEoAEE61WQWg/zogVV4AlJ5IxCoAVxcAhg/eF7DQzbIeANDBCoDqAwAc4rOBRyAAUVYAugEAZ8Xt5fqpJADhPssARKMxd6p8AGjJeNwyAA6XQgzepfguINO0AACyrAC4IQDHOW3hRgCAxApABACwUOR+biYBCLutA3CVgDIAIEcTcRsAxFQCgCm3Y52bpfEiAMDJCkAvAOAgr8ruBQBcORaEAQAHACAo8l7ysVtJADyyDQCi0ZCzDADIxkD5WwcgrZIA3IJ1bprHIAAaIwCSDgB4htcmboEAdDIC8BEAwCX0gZKTjxIAhHXVDgD9BGi9pQVAjV4pf8sAZFQSADwGqPBNgDwAwiojAJeXAIYDsJvXJjaMBwAkGQG4EAMAzBG6q0+QAIQ77AEQjRpytnQAKOn4UKwBEFdIAH6P7wIskB8CAHRWANwQgFHctnElACDICkAaACD4a2VbSQCu3AqwAUAymQy6e0sBQCDYnUjYBMCrqCQAv8AqL5B3AQApVgCyAID/8tvGfQAAlRWADFgDOCV2X4/bQQIQ7rINQDJpqHYBcLelOxMJuwC0u1QSADwFpGC2AgCyrAD4AQC/4reN2wAAl08FYQEgAmYAZwXv7NvuIQEI5+wDkEzaBSAxGFsAnA+qJABLG7DIC6UFAJBjBEDyAQC28NtGYhGghxGAdjADeFr03j5BASDsrBUAQioJwA/wGaCCGX0RAOBmBEAGAHC8BFBXd1ImtwKxAHAOzACmCL+hfBcFgLC7JgBwxFQSgCV4CEDhTIAAaIwAOPMB0B/huJH1eymrgCwAXHDlA+AS/u9kzFYKAL5ADQDguPr/nwcA7gAokiYAwCWVEYA+MAM4xHMrZwAAFFYAQgAA8V8s1biTIoBHEx4AhyFTAJiFFV7kv/HTAAAfKwC9AIA9PDfzX3AVsJ0RgCQAoAbuKDXRpgBDAogKQH/9UwCY+Dks8SJ5BQCgswKgAwCauJ74TgcARBgBSAMA5tRAl5+gAODzBIQGwBGTKQDMbMQCLzYDeBsA4GcEYPAmwLU1gBu4bucycjMwEwA9+QAEa+KSspkCwFUBBAUgJFMAeABfBFg8zwIAUowAKACAg3w383oAQJoRgAyYATxVE+q3UgDw+dziAhCSKQAswR2ADGm1CIAMAFjHdzNfIp8GYAIgAQA4VROd3rCeBoDPKSgA7UGZBgAeAsiS3wIAsowAuAEAH/DdzIcAAAYjABEAQI0cLT1uLQ0AX5ckIgBeSaYB8F0sbpZsBQB0MQKQAwA8zHczzwAAQowAePMB2H+2Rrp9xQ4aAL5eAQFIKDINgEV4CChTHgUA5BgB6AMA7OG7mZvInUBMADjADGBDrfT7fatoAPg62kQDoFuRaQDMwvpny2EAgJMRgCwAYDffzfymTJwKxgTAeQDA0prp+AktNAB8fkUsANLDH/K8NnZ/jGcAMuanFgHoBQA08d3MI+RWQCYAzgEANtdOz/99Jw0Aj18TCIB2Q6YC8OcvYmUz5nmLAKQAAO9xfs1LnghgBQDxHwcclqlHaQB4PDmXKAB4XTIVgP+MxsJmTYtFADoAAJy/OvtWuBeYEYAPwQyglgCoOz6XCoAnK4kBQEaVqQBcPwrrmjm/AwAEGAHwAwA4Py93HATAwQbAR+AuwMKa6vw7j1IB8HQoIgCQhn2K9W8hiwEAbmsA6JxPusaUBgBXbQFQd9tOKgAePcA9AJGQTAfg8TFY1SPI/0ozA9A5X3X5DPk4IBMAFwAAX6mx7p+wigrAwGUA3wB0KjIdgG/hCWAjykWLAOgAgLEIgJC5bwcdAI9f5RgAryHLdABm4f2/qgDgr0MAxMyKtXQAPHouyCsACUUzAWA+7v9BABCAka2PrjcBQO9QuATAm5Q1OgA/exILGgFAAEaYhlYTAHS9z8UfABlF0+gAPPFtrGcEAAEYceqbzQDQO2TOAPAammYCwMxvYDkjAAiAlZx4zQQAXe+SeAKgR9XMAPjLg1jNCAACYC1NO80A0P1ObgDolDTNDIDHP4/FjAAgAFYze4EZALqekrkAIG5omhkA6h24/I8AIAA2MmaXKQB+f1aqOgCRpBYImAHwAC7/IQAIgM3cNdcUAL+/T6oqAJG02v+hZgBMuh0LGQFAAOxm6ipzAK4QUCUABsvfDIBZ+PQvAoAAlCDjWgsA4PfnXFUBIJ5WAgFzAJ7A3T8IAAJQqsuAewsAMDALqDwASTUQKADAxK9iESMACECpsmJdIQD8/i41VkkAEoZ2+eNMAZiPD/8hAAhACTO2+bVCAPj9vQMEVAaATDAw+HEmAMz8ElYwAoAAlDZ3ri0IgN+fykkVACAeVdxDH0cHYBFu/kEAEICSp2Ha3IIA9Ccrx8oLQLdLc7sLA/BrfPcfAoAAlCUTFhQBoKMj1afGygVAd0y++lGmAEyfjzf/EAAEoEyp/+O9RQDoTyqnGKUHIBNVh32UGQATP4u1iwAgAOVL47tFAehPb06JlRCAznRIdeZ9FB2A7d/Bk78QAASgvJm6rjgA/dOAVFdAKgkAmWib23kt5gBMP/BlLFwEAAEo+3XAXatYAOhPb84uAFFJc+bHFICTR7BsEQAEoBIZ9fBcJgBSKbsAOImYADDpbixaBAABqNhSwNfn8gTAzDN48Y8AIACVzIpdz/ECwPYX8K2/CAACUOlMPqTzAMD23+BLvxAABKAamfDMy9UGYNk+3PiDACAA1cqtpw9WE4CJM/DaHwFAAKqZ0Xv+WS0A3rwbj/xEABCAaqdh91urKw/Amvl43x8BQAD4SOO0Y5UF4NUzeOmPACAA/GTslg9WVwqANQfwzx8BQAB4y+w961aXH4D7V27C474QAASAz0uBIQPKA8D9K2fg1B8BQAA4zuRplw0oAwDff2MOVj8CgABwn9HLDx0rMQDzbt67BW/5IwAIgCCpf2/a394pFQCvv/TXG/AnRQAQANGuBv59yC4A826evwmLHwFAAASNXQDwOR8EAAH4BAOAvyACgAAgABgEAAFAADAIAAKAAGDKn8UWAfDkA/Ay7wB8rTQALMQRQ888WwC4puAvWKW0AAC62ABQffkAHOS9neMBAJ1sAHgBAE/jiKFnDQCgpzAAETADuBF/wSrlMADAIzMBkAUAPMJ7OycBAIJsACTzAQhuwBFDz+sAgLbCABgAAIS1WnkRAPBxSmYAwO0DANzEeztXwkWAJAsAGQnMABbhiDH5fQEAgVghALoVAMCP8BesUpohAB97nHIRALSh//8hAE7z3s4/QQDkWPx8EQC8w///r8wAbsERY/L7QgACUrfXBIB4TAEAuJ7CX7BKaSIA+H97d8zSVhQGYHgphAwNuDTqoIEoBOxkhwSiMU3REgQNOpg2oZNQBwkOJXeoFKGSUp1cDEkVhE5ZlM4JIkKgY4dOxR9QBxd/gYsObW5u7jnn4jkH3ucfnI+Pl3uP5Hrv9sFfFz0BSJp+zk89Abi66rnu+O3ysPPvE0CMjXE33hOAh//k5zb1/wPwa4kJajJ0FEQAvhn/A65INIgA5Pg4Zb892lQJQIgfAGpzEkQAps0/514QAVhlX/ppqgSgzfy0GQsgADcWfLotGUAA6q/Zl366CgH4U2B++jTUAxC24Zzb6gH4wbZ4zFc+AO+ZnkbD86oBSF/acM5OQjUAcR4APHyflQ1APMb0dKqoBmDHjnNmVAPA36q85ysbAG5W9Bo6VwvAnCVfb444agH4wFW19x45cgFY5uvfmqWqKgE4G7HlnLFdlQCUnrEp3i43ZQJQ4sVKu8kj6QDc1C7sOefLdfkAhHhRHSg5Ix6AtSJzM6AAVdkAvOtYtaG7sgHIFdiSwT6/FQ1A6SlTM+ItoCwXgLkRu84Zc+QCsMxzqh9PfjpiAWCuxtzgVK7FA5Dese7+JpJJiAcgvsr9n989ysz6D8DCAfd/5rhoCAbgMJyy8ZzFbcEA1PNTbIfIfH0GYCvPtYpZxr5U/QegVhm29ZzdZtZ/AEJt3v6F5xsdHIDjfeZqntFXb76Wqy+8A5CurYRPJ61+KB4dP5hoZRe8AxA//pjfWOLhX2q+ixNO9Ll7ANazrfwic7X9uocRAAAAAAAAAAAAAAAAAAAAAAAAAAAAAAAAAAAAAAAAAAAAAAAAAAAAAAAAAAAAAAAezx0DLe/DXy5dfAAAAABJRU5ErkJggg==;imageBorder=#0000FF;strokeWidth=3;" parent="4pgbnnCEekSiCqALWcIx-15" vertex="1">
          <mxGeometry x="160" y="92.86" width="70.54" height="70.54" as="geometry" />
        </mxCell>
        <mxCell id="4pgbnnCEekSiCqALWcIx-22" value="&lt;font style=&quot;font-size: 16px;&quot;&gt;Microservice&amp;nbsp; chain deployment&lt;/font&gt;" style="text;html=1;strokeColor=none;fillColor=none;align=center;verticalAlign=middle;whiteSpace=wrap;rounded=0;" parent="4pgbnnCEekSiCqALWcIx-15" vertex="1">
          <mxGeometry x="165.26999999999998" y="176.99999999999997" width="60" height="30" as="geometry" />
        </mxCell>
        <mxCell id="4pgbnnCEekSiCqALWcIx-24" style="edgeStyle=orthogonalEdgeStyle;rounded=0;orthogonalLoop=1;jettySize=auto;html=1;entryX=0.5;entryY=1;entryDx=0;entryDy=0;strokeWidth=3;fillColor=#dae8fc;strokeColor=#6c8ebf;" parent="1" source="Ig7GfmeTVwYkc1D9pHod-2" target="4pgbnnCEekSiCqALWcIx-20" edge="1">
          <mxGeometry relative="1" as="geometry">
            <Array as="points">
              <mxPoint x="423" y="610" />
              <mxPoint x="497" y="610" />
            </Array>
          </mxGeometry>
        </mxCell>
        <mxCell id="4pgbnnCEekSiCqALWcIx-4" value="" style="group" parent="1" vertex="1" connectable="0">
          <mxGeometry x="430" y="330" width="360" height="270" as="geometry" />
        </mxCell>
        <mxCell id="4pgbnnCEekSiCqALWcIx-7" value="" style="rounded=1;whiteSpace=wrap;html=1;fontSize=18;" parent="4pgbnnCEekSiCqALWcIx-4" vertex="1">
          <mxGeometry x="-5" y="-6.460000000000008" width="360" height="270" as="geometry" />
        </mxCell>
        <mxCell id="4pgbnnCEekSiCqALWcIx-9" value="&lt;b style=&quot;font-size: 18px;&quot;&gt;UvA&lt;br&gt;&lt;/b&gt;" style="text;html=1;strokeColor=none;fillColor=none;align=center;verticalAlign=middle;whiteSpace=wrap;rounded=0;fontSize=18;" parent="4pgbnnCEekSiCqALWcIx-4" vertex="1">
          <mxGeometry x="8.372093023255815" width="179.2213953488372" height="34.83870967741935" as="geometry" />
        </mxCell>
        <mxCell id="4pgbnnCEekSiCqALWcIx-10" value="&lt;font style=&quot;font-size: 20px;&quot;&gt;Data pod&lt;/font&gt;" style="sketch=0;outlineConnect=0;fontColor=#232F3E;gradientColor=none;fillColor=#000000;strokeColor=none;dashed=0;verticalLabelPosition=bottom;verticalAlign=top;align=center;html=1;fontSize=12;fontStyle=0;aspect=fixed;pointerEvents=1;shape=mxgraph.aws4.vault;" parent="4pgbnnCEekSiCqALWcIx-4" vertex="1">
          <mxGeometry x="272.99837209302325" y="92.85677419354838" width="56.7293023255814" height="71.37209302325581" as="geometry" />
        </mxCell>
        <mxCell id="4pgbnnCEekSiCqALWcIx-11" style="edgeStyle=orthogonalEdgeStyle;rounded=0;orthogonalLoop=1;jettySize=auto;html=1;entryX=0;entryY=0.5;entryDx=0;entryDy=0;startArrow=classic;startFill=1;fillColor=#dae8fc;strokeColor=#0000FF;strokeWidth=3;" parent="4pgbnnCEekSiCqALWcIx-4" source="4pgbnnCEekSiCqALWcIx-12" target="4pgbnnCEekSiCqALWcIx-13" edge="1">
          <mxGeometry relative="1" as="geometry" />
        </mxCell>
        <mxCell id="4pgbnnCEekSiCqALWcIx-12" value="&lt;font style=&quot;font-size: 18px;&quot;&gt;Distributed agent&lt;br&gt;&lt;/font&gt;" style="ellipse;whiteSpace=wrap;html=1;fontSize=18;strokeColor=#0000FF;strokeWidth=6;" parent="4pgbnnCEekSiCqALWcIx-4" vertex="1">
          <mxGeometry x="13" y="90" width="107" height="77.77" as="geometry" />
        </mxCell>
        <mxCell id="4pgbnnCEekSiCqALWcIx-13" value="" style="shape=image;aspect=fixed;image=data:image/png,iVBORw0KGgoAAAANSUhEUgAABAAAAAQACAMAAABIw9uxAAAAGXRFWHRTb2Z0d2FyZQB3d3cuaW5rc2NhcGUub3Jnm+48GgAAAAlwSFlzAAB2HAAAdhwBp8J46gAAAwBQTFRFR3BMqKiopKSknJycu7u7oKCgn5+fpKSkj4+Pk5OTSEhIkJCQmZmZqKionZ2dqampnJycjIyMpqamp6enkZGRlpaWpaWlnZ2dkZGRnJycnZ2doKCgnp6elZWVlJSUoaGhoqKip6enl5eXpKSknp6ekJCQlJSUpaWlnp6ekpKSp6enpqamnp6en5+fk5OTkpKSn5+foKCglJSUjY2NoqKikpKSlJSUn5+fkJCQpaWlpaWlkZGRnJycnJycn5+fkpKSoKCgn5+fpqamkJCQpKSkjIyMoqKiq6uro6Ojo6Ojo6OjoaGhlJSUoaGhpqampaWlp6ennZ2dk5OTp6enl5eXo6OjkpKSo6OjpKSkkJCQnJycpKSkjY2NnJyckZGRk5OTlJSUj4+PoqKijo6OoKCgpqampaWlpaWlpqampaWllJSUp6enm5ubjY2Nj4+PkZGRoKCglJSUk5OTjo6OpaWlj4+PjIyMnZ2djY2Np6ennZ2dpaWlnp6eoqKim5ubpaWllZWVjY2NoqKimZmZnp6ekJCQkJCQkJCQpKSkjY2Nn5+fo6OjlJSUj4+PlJSUoaGhnp6eoqKil5eXn5+fnZ2dnp6ekJCQpKSknJycjY2Nnp6ek5OTjIyMoqKilZWVnp6ejo6OlZWVjY2Nn5+fkpKSnZ2dnZ2dp6enoaGhoaGhj4+PkpKSlZWVlZWVjo6OlZWVlpaWpaWloKCgpqamlZWVj4+Pj4+Pj4+Pnp6ekZGRlZWVp6enmpqalZWVjo6OlZWVj4+Pnp6elJSUlZWVk5OTnp6ek5OTlpaWn5+fmZmZj4+Pp6enoqKilpaWl5eXmJiYo6OjoqKin5+fuLi4oaGht7e3ubm5tra2m5ubtbW1pKSknJycoKCgurq6jIyMkZGRtLS0kJCQk5OTnZ2du7u7np6epaWlpqamj4+PjY2Ns7Ozqampp6enkpKSqKiosrKyi4uLlJSUjo6OsbGxqqqqlZWVsLCwq6urmJiYrq6ura2tlpaWr6+vl5eXmZmZmpqa4Tww6AAAANB0Uk5TAEbBiAHLGO9duAMGETsLDdQKchIEFR3yMyII1d8cO0svGCj4t0CEl/0Z7in5a0ZqV+mf+a/2HkAsU2H6+Pye0/NG6Eym/fsiJbZcjJd4QdAy5tqPV/4l9DaP6+jbvutT/la+l/i0e7qH3a9r8uaf4P3N/cnJfPDa7E1g1sJvTmaR0YE+7ubxpeK6qp/5dF/k0ZB7hZZ9/f3iwabw9e6mr6pz4DNly5BXxdr1vfbHh+lOq2aA8LButcbCwKA42deMOHMv4OQ7e7QraoHDzNGu+AxSQpgAACAASURBVHja7N19kBP1Hcdxh54gBUVKUQ4QFBS5QosURBB5qpUWZTpCQUB5GB5sp1Bqqc9FtFDvqqP2aCtQB0cGsYpiZ5x2RmQ6tva5+ld2b0Mum3B5YpNwl0u45+OeaO6O3MM3u5tfNrnb3+583v/DzO+3v9/rNpvdzVVXIYQQQgghhBBCCCGEEEIIIYQQQgghhBBCCCGEEEIIIYQQQgghhBBCCCGEEEIIIYQQQgghhBBCCCGEEEIIIYQQQgghhBBCCCGEEEIIIYQQQsiCjZ4ybpJu46ZcZ4txzjhxrW7rZ4zCashlHZ3AvFqt+U++XHyhu9pUUZWKT30xzsrjvPkH20q9PUk9Cakc3T0y5MCDWBUG5vfQplWhkNKV2K/uGX9kG+aVv0Z8vL/iQk+6AASSLTk+3qLj3HewdynqA9DZ3q+Mx9rIan6/fjDUlTYAnXO9dx/mlave2V1RkQ0AgUDxrAILjvOF0r5LMTMAyfOAXQVYHsz9aZUnxAKAJM3GvPLTvMcrKrIFIBDYU2i1cRae7L8UWQBwOJ74LlYI4/x+4vGwAiAJmFdeuvepCiMABEq2WGuck5eKRgCQh72HNcLS8y96sgFAWLcAc8bF6f99FcYACCycZanT05miIQAcjiO7sEoY5neRJzsAhOWYVw66JrX/swfA57OQAPdPF40C4JCxUjPPb7knWwAEAfNq/vn/nIocAFh4r2XO/2eKxgFwHHkWK0W/ZYuMALAc82pyRc9U5AKAb/M8a4zzltliLgCs/doNWCt6DX243AgAwjDMq7m9fDE3AHynrDHOW8WcAHDIP8Ra0Z3fcmMAODCvprb1Yq4A+CzxVcACMVcAZHwVoNMd5UYBcOCrADPbnzsAS6xwQ8eE3AHYixtXtLveOACYVxPbcjF3AKxwCkBPAIwAIONPlfb8lhsHAKcAJnY6HwAM53+cK/IBwKNYL3pXAAwDsALzZ1Yj5+QDgIUjeR/nmJl5ACA8dQxWjMY6uicXADCvZl4CpADUdu3q6lTBnmq6CwbSAPCt4f4SlZgGgCSHu4v0FEsVTxZJPwPAZUDdS4D9AVCknmlLFu5JltIAcGBezWo7BaC2Vez/Z1FI+7ModfgoACt5H+fitP3f5Cy70tmezqU639m5tjQAbseKUa3gdQqAEq90d+Xqztld53w7mwQKAObVrN4gANSW0/NiQeW8WPERAM7wPs7n6P6vKyvLBMD5834KwBCsGI35JQAol/x+LQDKyhICAQDzala7CQCtXhYA5A4CwGO8j7OUAFDvZAHgfAsB4CWsGPV+TwCI+/UAONtEACjFDJrUmwQADxsAEgGghPdx3kgAqGQDwEkAGIYVo96PCQCN+gC4CQDrMIMmdR8BQGQDwEEAWMj7OKcTAFxsAJwjABzBilFvEQGgUh+Asv4ArF2LGTSpiwQALxsAMgHAx/s46TVAJxsA5wkAMlaMeuUEAL8+AGfJGYADMwgAAAAAQAAAAAAABAAAgHUa+fzfcgXg4U1fWjYCMwkAAIDFGvr5W582NDTkCkDnP77nk3eXfRUzCgAAgEUq+Pe0PQ3d5QOALgQ2/b0QEwsAAAD/5/2f//doTU1NngHo/D+uf/cuvCAAAAAAjhu9ZueH3Y+G5R+AzlYtXgYDAAAA4Hz3DxgA3QZgqgEAAOCt2976sOfJ8IEEIPn/PH0I7wkAAACApw/+xz/t+2qIAQbA45l562R8FAAAAICPvrHz1f7vhhlwAJJNPDQU2xQAAACzK1izJ/iz4OADkDwNOHYzNioAAABmNur4P4PBtLfDDQ4AodD0TbggCAAAgGnN+8XRYNBEAJL94Q5cDAAAAMCMila+GgyaDUAo9PTPQQAAAACD3dgNdwaDPAAQCk24GxsWAACAwWzktKPVQV4ACCkHJ2PLAgAAMFiN+O3Rfr8MYToAinLyBDYtAAAAg9JHq8lPw2gC0J4rABHJwwaAMv3YLdi2AAAADHjzT6X9NpQqAK0eIV6fKwB1dY1NEZEFAEW58QBeHQIAAMAAX/tbubCaAYAOMVxVnyx3ADprq3eEMgOgKBPxc8IAAAAMZGs2V1dnBKBZjHTt/rwBUFeXSLRElIwAKMq2G7B3AQAAGKDmDe/z67AaAHTu/mR5ByCRqGuJhDIBIC7dh7sCAAAAGIgKZpX4MgDQGura/QMDQKcB9UIGAETx6v9h+wIAAJD3pvzR59MHoNlb1dPAAJCsMS7qAyDu+B1eIQoAAECem3WnTxeAmlA4Hh8EACorE00OXQBE8eAM7GAAAADyWNGp1BFVB6BVicXjgwRAsrawogeAuHQftjAAAAB566PNPj0Amr1d23/wAKisbIwrOgCI4gq8LgQAAID8NHr7YZ8OAO1SPNXgAZCsXtQBQCzF4wEAAADko/mre49nOgDtQixmDgB+f+osQA0A8acP4AtBAAAAcm5rSUAbgFZvLGYeAP7KKkUTAFHchpcHAwAAkFsF0w4HNAFo6Nr+JgLg9ydiiiYAYul67GQAAAByaOyZ/sezLwA1oUjMdAD8/sawJgDiDnwbAAAAgPE+Kw5oAtARjsV4AMDvb5G0ABDFxbgpCAAAAINtKQloAdAqRGK8AOD3N4laAIgncSEAAGh/wgUAOn18OKABQNATjnAEgNudCGsBIL7/HWxnAKDReLJYvACgF8cN0YAGAO1yJMIXAG73Ja8GAOLsa7GfcwZAZATARxYM55/AxpC1IjECcI4AcMR+K2D8zqgGAEElEuEPALc/pgGAd+l72NDZNsfgGQAFYDTfwxxqEAB6BjDVdgugaH9UA4BmOcIlAG53m1cdAO9yfBmQbU/l6QxgLN/DLCRrRTB4BjDMbsf/ptVRdQCqr/z55xEAd2VYHQCv9wFs6ex6hgCgMAJQTRZMEd/DXG8QgDKbA1D4dlQdgAYpwjEAbneLVx0A7+3Y01m12yAAQbJgHuJ7mJPJWpEZAThLAPiWvY7+Q8VRdQAuy2G+AXAlZHUAvK/gyYBsejtPAPyS72HeT9ZK2OAZwEu2Ovj/uLL/KQBBbzjMOwAud5U6AN5vQ4As2kgA8DAC0EAA2ML3MPeRtRJnBMBJAPiRnY79pJKoKgANQtgCALhc9GNAaunOxU2B7P3VIACtBIB3+B7mbwgAVYwAuAgAe2106OdvjqoC0BwOWwMAV0JQBcA7F+cAzD1OAChnBKCZAPAfvod5jADQxAiAmwDwhC33f18AqsvDlgHA5Y+oAiC9go3N2mkCQAcjAJcJACv5HubVBIBLjABUEgAetc/1/+KoGgBdH/8tA0D/CwF97mHBdwGs/YoA0MwIgIcAcIrvYc4mANQxAlBHAPiLXY570WNRNQCCQthSALhcTaoASLgfgLENBIBWRgAUAsASrkc5il4w9jMC0EYA+L5d9v/GqBoANb373yoAuBolNQCkA9jbTD1JAGhgBMBLACjhepR3UQBcjAC0EAD+bI+jft3+qBoA7Q7ZegA4E5IaANIL2NwszSIABBkBkOmto4U8j3Jf+o2AbAA0EQB22eKgF5yOqgHQnBygBQFw+gU1AJY/i93N0FYCgI8VgGoCANc3AiwmAERYAagiANjjcbOfRNUAuCxbFACnX1YBQFr6ILZ35m4jAERZAWglAEzjeZQH078FZAMgQgD4nh2O+WtRNQDKZcsC4HTJKgBIpfgJ8czdRAC4wApABwFgOMeDHDEz/VtAJgD6PgzYBYAdltTWqBoAHtnCADhdYRUApAmjsMEzfhx8kwDgYQTAQwD4l5WuAVYyAnCWADDVBreYTfpABQDflf1vVQCczogKANIK3BKYsY0EgHJGALz0BRLz+B3jAfo6EBcjAG4CgA0eBRhbHFUBILX/rQuAK6ICAG4HyNwbBIBmRgCuvBKkF4Bf8zvG59IfBmYDIEEAGGL5w/3lMyr7P9qz/60LgNMlqwAgLMAOz3RFmADQwApAAwHgm/xeAtiR/igQGwBtBADr3wi4vVZl/1+WbQCA0xVWAWDdDGxx/b4gAFSzAtBBAFjN7RCX0TfINbIC0EQAsPx9QNfUqgDQ4bAFAL3nAH0AEN7HhcAMS4IAEGUFIERfIsntrUCvUwDcrADECQB3W/xgz/9ABYB2h00AKHM70gEQ5mKP6/YZASD1TqCMAAgUgNd4HeLE/7N3/zFSXHUAwLf2StUjVDyg/Aw/jlZI0TYFioW7tkoBI6Kp6UmFM7Zaq8UGU4mladBWQwJaG6k0KVCQWgRb0gJirI22VtT4o4nJzO7sz5nrLjOZWfaOvc0utz9u75d73PW4/X7fzL7v7B3uXOb7/+7s5L332ffj+94DAAh+TgDaIgAAhx88P6U1gwHoEaoHoEOoFgDdKFYPgC8mYgDETW4jt4rZ6wAAIU4Ahk4FGwVArW4IPAZPke/gBWD0eUCDL/3iFGeX9Z4MBkAVqgagUylkqwWg9Fk93lstAL6UhAFY714dbBmtAIACLwAFAMCaybX5ghshADleANoBAA5fBXwogwFIStUCEAllSzEGAJQ+LRSrBMCXwwCIr01xW7lF/AEAkOYFQIc3ydTosWBzAQBKkBeAHADA2ceBLH0SAxBVhKoA6JT6s9kxA6AUUr46AHx5DIDoHg9iFacAAFFeAIQoAKA2xwCr4EVShp8XgDwAwNGnAdQdzCAAzutCVQB4+9LZsQUgFFLyVQHg68AAuNkAlh1DAECGF4DLmQCjAVhTk9cD3QUByHMDEAcAOHoR4AcZDEBIqAKATqkvnR57AEoEdFUDgD+OATjibgsyj1kAgOFZQA4AZHibbC2eDDp1NwQgzAuATwAALHBwMc9cjgHoE+wD0KkMNv9xAaA0ECjaB8AXFBEA4rfddm4eTwAAengBECEAtZgL9EN4mbTh5wWgHQDQ6ODz5ut2ZBAAadE+AEIhnR4/AEIhMWcbAF9KxJV3tdvOTeMgACDJC8DgGKD8PvlP1d7bzYEA5LkBKAIAnHwm+D8zCIDzkmAXACOUTo8vACGt0zYAvm5ceY8sdBu6+SxgOQAZbgBkCMC2mpwCLAcgzA1AJwDAwZPJs05iADTBJgAX9XR63AEIyd6iXQACHbjy/s5t6GaxFgAwdCQADwBiFACwpubSgRdDAOJ+XgDK8wBLL+3g88AOZhAABdEmAJE+Vb0aAMiykbIJgC+CKm+Le0SgWdywDgBQ4AUg0gMASNba/SALlkAAurkBCAoAAOf2Im9NIABUySYAsqpeLQBkb94eAIF2EVXeve6uILP4CwAgyQ2ADgFYWWMrgT/TAQBSkBuAXgCAc/MAlz6BADiviLYAGPz7v3oAyHLcHgCBIq68bjqQWWwHAGS8vAAISQBA8t2aerNbmiEAHX5uAMAUgODcUeSeBAIgJNoCwJtWry4AstJrCwBfHFXe9Qvcps6O3wAALmcCcAEQGYAA1FYXYIUOAWjnBqANtH/h404t35kJBEBWtAOAMaCqVxsAWeuwA0BgKBugrPJ+yG3q7LgDApDlBkBMAgCSz1T5Y+qOrd5/9BvXzZlz3asrnv/kqqnVfNcDSyAAhp8bgHYIgGP/QHYgAKKKHQCEHvX/AIAsG+02AAj04sr7W7ets6MVAHCeG4BIAQKwcl4VP2TGpsW7y9P2Hn514zHbX7dLhwB08wMAsgCErU4t3Q8nEAAh0QYASlodPwAGLADQxJQNAAIXUeXdO9tt68z4JgBg8FAQTgBECEDyZbu/YvbZXUvgov3ls57nPDLJ1hf+SIcAiGF+AOIAgHsdWrhTX0EAZEU6AHFZVc0B+Ee1APz7UJM5AJq31wYAg4MAUHl/77Z1ZqyFABS4ATB6IADJm2z9hhs23YcG7CPXvTz87Ab6N9bPRQAUg9wA+OEI4PMOLdxTCQjAeYUOQLxfNQfgv09NqxYAj2fStY+ZAqDpeToAgW5UeTe7+YDspnIYABDlB0BBADxu4zaGunO7S6VsCoCirP8EeRl3vwYBkML8AMBFwBcbHLoEeBgBMCCSATD6VFMA3rm/VODVA+DxNJQRUAaApnXRAfDFUeX9s9vYmfFTAEBpDMALwEgXYAQA9dfk57+9b7CMrQCQpF8Q/4I/twwBkA/yAwAWAVu+5NThXQICoIpkACI9qhkAf//PZe/HAoASASeazADQLpIBCIRFWHkbN7iNnRXPQQD6+AFQEAAriZcE1W1aplUGQJJWUDoBdbs0CIAU5AfAB0cA33FoB+AkAkAnA4Da/wgAr787vEwzNgB4PLOOyiYAaHEyAIE8qrz3uo2dFV+BAET5AfigC3AFAJV2NFDD14aLuBIA0muElbhzGgIgTwAgBwFw6IHA2xMQgD6RCkAkq5oAsG2E+rECwOOZv9MEAM1opwLgj8CXXe9eFMKMHwMAEjo/ABICQL2VsvS3U+YFQLrnGt5vXXQjAkAMEwCAaYBbnXnN5B3LIQAXFCoAAm7/QwCcvv/Kg8YOAE/9/iY2AJoRIwIQyKGXdXcFMuM9CEAPPwBGPwJg5ae5n3zLAZkfAKmR82CHaaMnFYa/sjvID0AAdgAcmki+JwEB6BeJAAiqygTgwdtHnwI9hgB4PMc+xgZAi1MBCMThy7YscFu7xRhgBIALBACGdgSMBkC9u573n3qLTAFAFPmmAk9oCIBIkAAAXAMQvujMYl0OAYgqRACEbJIJwOkzZU8aUwA89S80MwHQO4kAtMXQy37Lbe0WY4ARABIyPwBGCAGgcu4LXjhXJgKwnmcUMH8JBiBFAQBmAX3WmSOA7QkIgCzRAIhkk0wA/gRys8YWgFIJbmECoHcQAWjrgC/b4s4CWIwBrgCQJQBgpBEAKtdt4VPnyFQAxOsrF+CG3RoCoCNIACA2MUYA009CAJISEYCeJAuAB2+GIMrVAdCCfvuk40wA9DwRgDB6WTcXgDlbBAHIeAkAeDEAr8/keOohmQ5A5Ytepu7TEABKmAJAfmKMAE4lIAAyEYBCkgXAS2fQo5qqA6CRMY3zAhMAbzcNgLYu+LKNbjqg+RhgVI0pEAAYnAcEAKjfq7wxeHXIDgDis9bfWndUwwAUgwQA0BSgM9cA6p+EAKgSDYBQkgXAO4vws7YAAC5ZAxAEABxh/f6zyxgA6N5LNADC8GWdmtIxzvEcBCBKAUBQEQDq45W28s57zB4AovXxbs9rGAAjSAEgJ4LDwJx5JdCb70MAZBoA3iQLgDdYd0AeAAB0WwMQAwDsZb7Aqi0MAHQpRQJguAswqjivd+8KZMTkwwCAjEwAwNAxAOq/KvxvHg2xARA6irlUKtWbj0tsACy3dZ7VMABKOwmAi+JEOAqgrhUCoEokAMQkC4BtzAWe4wCALmsAcgAAk0Trvx1gAKBHYiQA/AIAwLlHu4xrvAwBUCkAGP0YgApLAfNDLACkfPuVgg12GywARItO3G3NDACKQQoAMREA4MwLAb7+PgRAIwEwuACAAfgCW/VDAADDGoA8AGCFyTvMmMsAYHAxkABAWx4C8Gid29xx3AQByOgUAEaqy+j68lWrBx5nAODNx0CNyQkMADabbs2bvwzXFz0eJAHQBQH4riML9I8QAFUiAVBgFKip6T8BAOjtlgBEAACmY6zp+xgA6N0kAMIQAOEat7kzohUCkCVVGIlVX2627gBAAIwUrjH+LgyA6TzOZ5oY9UWKkQDwCaC6bHbkgdLz1kEAZFJ5yowunWp65uudAAAtbwVAWAIAPG36Gg37GAAMJ3VwAnA5F6CsRFe4rZ0R70EAhlYCuf8xZFaP0VyAtzAAnewa0yshAI7cYPb/jwHw9oZJABRhdXHmDrJTsDijpCGdkmQAYH7m8+RmAIBoBUAeAmCxS7dhJ2NMJ4QpAMRgiTZOcps7jqXLIQB9tEmjAmvO6BmT8dYiGQHQZVZjchIEgP2XcVsTa86oK0wCICDA6uLIJIC6VyAA/SQA0gwAbrd43j4AgFY0ByAsAgAsz1tcOBcDoOcpALRdhIO6R9zmzp4GLAfggpcEwPA0AFg1+tVHmQ/bGIIAxMOmNaYXAcA64vmpZaxVIyNMAyAHR4zOPApkLZzSuaBQABiIYgC2Wc2dnYAASOYAdEgAAOsu+az7MADeSxQAUhCAR93Wzoi/omnjPtq6saiy8kY+wuyuH4AAiO3mAIAqU/olLTPwPFQzK29EjNEACEQgAE87dQqwvDhJiV1KFAPwhuUGr2MQAM0wK86UAgGosMPrgXswAEKYAEDAECdEaud4xw4IwGAXgJI5pjAzR+9mXBm6IAQA0HMxCwD8EQAAmpmfdhc7czQVpgGQg2kjW+udWJTTl0MAdAoAaQzAlytkdu6EAGhFdnGGBQjA5kqZOXc2IwC8eQIAbd3ihLnmaTzjIZQ61kPMHZeZe0dO44OCz0EAOmNWAPhyEADQa5z0FnPviLc3TANgqAPg/MTRN2Fip0rZ3DUQRQC8VOmIh2sRAENp+7A4g4YCAai8Q3cTBuCDlQAuAHwAgJbN9W5zZ0wctUIASl0A2u6xfubu0Z//Ej5qMQBAT1kD4IsAAMrnjd4+wN49WgwTAchNkK0jByEAlO3dUhIB8P0zlZ7YcCMEQPcWcXGGDQUBwNEfP4oB+B979//bxHkGANzq6DoaKIqSAg2tCJRC0QqEUsrooIGNr62qFkaBbais8MPUbVqpGC0dbTUYGVURrZA2ui9qy9jUoVbTpO4LY1KraWNdx/aDfRw4XI7aZ3OOe/adSezETpwvi+MkxM/7nv3c2Qn3nt7nD7D95r3nk7v33vd5JAsAXInB4x28SxAtjhHHx7IWAYhkdGoFmX+DDeSbAABSsDgAuSLvBQB4Ry8CvLyCXj8CdXp89PUy8LDoisOj8z8DACiyBQCyAQIARNPXnxIAjN6zN7yvy0fs6kCtslbPIADIl3hCApCAAPCtANQ/836igoRgtYRUL72E1D8LHgOqVwIA0qUA8EMArp8IqpljUkEKVz9m9PXSSZSPqGdTcni6O2OhwpMaIAD4G2Lz7PoVJACq2D36HLbWStnY7UWVeSss8qgOV3nGAnApAgDYVs3TnRLnCQDarAIQ6TWpIfejUUd4thfWfh7cOVocgEsRAMDIiY5XNpnVkLxsFYBLkksKSO2FAAh4AKQ2AoA/zMd86bsUAAYISHUOVmP1a2lp+GxXwU85gNuZv4AAQEjhAbjS5ZZOT2Mbt+0nqkiGrVaRjWRNqsh++OOR72kAAIjBkgCkAQBDRXpqftliUkW6VbMMQDdRQvIJJqfxwbUAAF3EA9AcIADYibt4NtEAGCzILHm98qjT3QU/Bbsx/x0CADmIB8APAeC1AYvfAowAELIKQJxyD5AvI/+tt4dfJf0HABApDUAXACC/QfeH3zDrIxHRglYByB8cHT1URq+SY7DGax8eAK9OAPA28msbzACA5R1G/xTsn3hCzSYIgGDgAYDNXp+8m1cFKHoLcL2QfL9VAOLkOsBwJ5lf/bo2/1oHAGCUBiAJAMhdOL/5q2knqVYtaBmAGMwNRm8Aht4BXAegXcUD0A87Penn0IehXrMOwFv4tywNBACChgeAaPWynGc7LfYRAAREqwDE4xnTXnIfbhl5aWwNgAQAYJfnrodXmvaSNAp6SeIACIowNzYyupa7BACgy2gAhm8ARgGwE/3Fk35uGQAraTiHACCOB4Bo98yLgxZ9ETCqm2zGOgCt/ebdZJ97hQQgVhoADQBw+t0Vpt2k859nFYBWCACrNwA7Yae3DB6AZqLb80QL31w/zSIAloqtzTpMNHxPoAG4GgcAvMqTnf78SAAw3E7SAgDxeEuxfvJbKgCA2GzaTl4d7CVtFYAeEQLA6jrR9wEA7SoaAEmHAFhr9br6PksAbLRWm+cxAoA4HgCi2QtvEECN2h0EALpoHYC4YA5AR8efxhIAtStoAwC/DwJwN6tXyCkAgC6jARi5ARgBYK617/5gpQUATlt8GV/7AgRA0NAAEM8A/EwwPZ4mAIj22QAg7mszByAzhgDInUE7AMRECACj/QA9sz8FAPTiAQhBAM7VWfz2hvvQANxkeSF+JgFACg0AfA9APVLOYyDOEgAosg0A4pHMjQDAlwjaAUATIQC31LC6jgsBaEED0BKAACyy/PUN30MCsLHO+theggDIfjQA3QAA/iLQJKavhQBE2+wAEI83jz8Ahha0A0D+sFFBbjB7h3gGAKDIaADaIACbbRTQ/eROFADz7NTm/RfRPKILDYAGnwF4bVCTOEIAMLgZwDIAhiF3jC8AalqzB0BahAC8yuyB0f0AgA40ALICAXjdzg+oeac0AItftDe4XfBTJTQAVyEAvEWQSdz1HgGAotoCwBh6DBgnAHydmj0ANJEAgNm94rOvAQD60QBkIACbbVbQX76pBAAP2C3LuZ341AQagBhfBMA+RRIA5N4E2AHAiKtt4wWAmtI0ewBckAgA2L04FgEA2gUsAF4dArDI7o+Y8rlpRQC4aZn94b0EPzWGBgBuBtxWy1Pd5HXLQQKAaK89AAxDyowPAL4ezS4AaZgcT65j9yXxEQBAQMYC0KIAAM6V8RhU8+hiOgDrdpVVkG8m/FQfGgB4IEjazlPdbB1wCQFANGwTACMudIw9AOH8v39bACSJ5GD58XAHACCLBiALAfi4vH8jDXNWQQD2zDg0tczxzYCs9GABuCIBAHiTQNPYTQIQEG0CYBitzWMNgLdTsw2AXyKS45k6Zmfu9rUAgD4sAL4AAGDp7eX+mKqZx3fdee9Qoi4+ffShChRYWwABiGMBgIsAEj8SbBq3NREARDt8dgEwYt7MWAIgdyc0+wAYZHK8yO7MffUaACCMBWDgCaAQgO9U5hdVT61ftqx+aqUarE2ZBgAQ/VgAwG5giR8HMI+dJADRPvsAxAy5d6wAUFOJRBkApMnkWMPwxJ0HACgyFoAsBOAeZ47wKFxZ6MECEAQAvDmFJ7pp/JkEYGQZwAYAOQKyYwFA2EgmygEgSSbHN2cxPG8nAQBtWAByTwAFwzGpLgAAIABJREFUAGx26AgnQwAMLABXAAAS7w9iHpOaSAAUsQwABkLorTQA4XgiH3YB8PvI5GC6ZPRHAIAMFoCwAgCY69QhvgAAGHoGKA0AOA4g8VXAYrHwMwKAaKg8AGKGmKkkAGEjkSgPgIsRMjlYfgDw3LoEANCMBaAXArDBqWN8FL5bSGIBSAMAeFGQ0m8CCgAYWgi0DUAslvI2VwoAMZVMlAtAikyON5h+MJx+DQCgYgEIAQAaHTvGTyAAaSwAPQCAH/AsLxJ1H5EARDPlApBKxeVMBQDwdieTZQPQTUkOto+I/BYAoMhIAGQFAPCxcwc5AwAQwQIQBADcwrO86H+TJSQA0eayAUilYkL5ALQmywcgSUmOeWzP2W4AgI4FoAUCsNW5gzwOABD8SAAuAQCk9TzLi8U+CgCKWj4AKZ8jAAj6yOQ4UMf2lJ0BAGSxAGQBAM86eJCrIQCdSACuSgAAfiK4aEw4QwIQVQSXAHBZIpNjWz3jU3YQANCPBUAHANzv4EHWHhYoiwAYAAwAwHd5kheNSadIAKK66AoAci8AiOR4iPUZex4AEEYC4FMAAK87eZQbAQCtWADSAICv8RwvsQzwXpQigM8FAFyMywQA3nnMi30NAKAiAQgDAL48ycnD/BkAYHAnAAaAHgAAbxJcKhZRAIiGfMwD4DdkEoDHq5gHGwDQLiMB6AcANDp6mJMBAIPFgTEAaACAx3mGl4qTFACUNi/rAFzP/5Hk8L21gfnZehoAEMACkC0EQL/f0cOsXQUA6EEC4AcAfIUneKmobqQAoGQZByAlkADscUG3uH0AgBAWAB3cAfzF2eM8TVkFxABwAQDwZjXP8FLxYBMFAKXDyzIAaYECgBsaRewGAHQgAfAqAIDpzh7nwwCAOBKAgveAuQuYtweysxCYu1Q6fOwCkBYoAKxxw1ydBABkkADIAIClDi+XtwAA4MUC0AoA4OcBMQ+W7RQA8gIwCUBMoADwvyo3TNUvAAB9SADCAIBGh48TrgKKWABiAIDf8fRGxHkaAIMCsAhATKAA8MYsV8zUQQBAMxKAfgDAGYePs+5eIEAQCUAaAMB3AqHiCA0AJeRjEAB/TKAAsOoJd0zUKQBACxKAXgDA150+0MUCcSIYBUA3AOCPPLkxUfU+DQBFF5kDwG8IFADWzXTJRD0PAAgjAcgCABY5faA3k+8BUQD0AAD4VkBcVO+lAaAEZMYAuBwRKADsecQl03TrpwAAAQlAGwBgodNH+gD5HhAFQBIAsIbnNi4mNdIAUHSVKQCCXoEGwMtumaX51woBaJeRAOgAgNlOH+lxmwAkAADf5qmNvbZ20AAIBJoZAiApCjQADrlmkr4EAFCQAHgVAIDjqyI9BgCIIQEIAgD+yzMbG3c0UQEIZJgBoEsWaAAcdc8cTbcJgA8AsNTxI/2A3AlkCwBeFAwf/3iKCkCgw8sGAClKm8qBeG2Ce6bo7wCAABIAEQBwzvEjXS4QVcFQAPgBAPw0kJUbzCYqAIGQzAIArQIVADflv+eeCgGw2fEjnWwTgIsAgAM8rfExYVgAAEBADzseAM0nUAFY46b89ywEAOhIAOTC+TzR6PiR1oPplGzeATzD09pKbG2iAhAI9HqdDUCPLFABcFf+5xoD2gJAAPP5e8eP9ItgOn1IAC4AAHh7QIsrgc/SAQi0iQ4G4HJMEKgAuCz/8+UAKgDAWcePdD15GggFwCUAAC8IYPUe4BQdgIDe4lgAkl6BDsBRl+W/5wsAgBASABXM5/uOH+msCt0B8M4AVmP+cyYA6BnJmQCkBYEOwDzXTU6lAJjo+JF+njwOaOsOgANgOaacNQFAD6kOBCARgY2khgDY48LOkBwADsDYR+0REwDyNwHOAqBbVukArHvEwwHgAHAA7MRcMwByNwFOAiD3758OwKrVHg4AB4ADYC+OnTABIHcT4BwA0oJqAsAb9R4OAAeAA2A3Fj5lBoAeaml1BgCdXlU1AeDmqR4OAAeAA2A/tjaaAhDqkB0AgGaoqhkAa6o8HAAOAAegrJcBE00BCIX6vDcYAC0thMMmAOw55NpJ4QBwAMYtJsw9YQpAKNQv3UgAusRw2AQA+fBMDweAA8ABKD+2/MQcgFBbS+RGAdDjC4dNAZixwcMB4ABwACoRd+w1B2CAAPWGANAphcOmAMhHqzwcAA4AB6AyUft/9u4+RoryDuA41pM0OfTEW3O8ChihJYIWIviCgoQGtEBtDYmaKr6U2pTUQl9Sqwa1FGhrCS9CTetZWhJqiSehtWlTGiytqS30Jd0d5nL7lu7dbvbFvd297N3t3XHA0TkFejw7s/tw+/bM7vf7P5PM88zvs8PcvhzLAYBBQChabgDORMIhawCa7qru/QAAAChzy9bmACAYzIQi5QTglNM4mDUAu+4bAwAAAADFbPaRXACcfxZQFgC6+vUPD2YFwMbdjjEAAAAAUOR2NOcCwGjAnyo9AH0p7fzBLADYOa36twIAAKACTW3JDUAweDacKC0Ag96Qz5cTgNcbxgAAAABASTqwLTcA6XTG7UqVCoC+hHbhSFYA1MLLPwAAQMVa2JIHAKOMz1kCAPpS+ogjmQOwcfE1YwAAAACghK35az4AjM6GIp3FBKCv1+W75EimAEz+bK1sAgAAQMUaf2xBXgCM24CzPldncQA4ldLPT39OAJqedowBAAAAgJJ3Y4sEAEan3eHCAXCG3SOzBOC2GTW0AwAAAJX9f8AGGQAymYHCAdDdMgDsur2m1h8AAKCy1e9fqxAAU56vGwMAAAAAZaxhVrMiAGzZXF9riw8AAFD5rl+1XQEAmnaPq72lBwAAUKGF8xdUGICm3TNqceEBAADUaPax5goCsGVlY20uOwAAgDLPAl49XCEAPr96fK0uOgAAgDrVn1hSAQB2veSo3SUHAABQqvf3vV1WAOb8/GhNrzcAAIBijdv/btkAmLJnRo2vNgAAgHLVLdvXXAYAml5ZyloDAACo2KQ1698uKQB3Pzb3GpYZAABA2RpPHHqiRADc84e541hgAAAAxWtYs+9w0QH46k1zG1laAAAAW+S45eV3iwjAs3uXOlhUAAAAOzV2zap/DxUOwLrXT0xkMQEAAOzYm4UD8DFWEQAAwKZdCQAAAAAAAAAAAAAAAAAAAAAAAAAAAAAAAAAAAAAAAAAAAAAAAAAAAAAAAAAAAAAAAAAAAAAAAAAAAAAAQAAAAABAAAAAAEAAAAAAAAAAAAAAAAAAAAAAAAAAAAAAAAAAAAAAAAAAAAAAAAAAAAAAAAAAAAAAAAAAQAAAAABAAAAAAEAAAAAAQAAAAABAAAAAAEAAAAAAQAAAAABAAAAAAEAAAAAAQAAAAABAAAAAAEAAAAAAQAAAAABAAAAAAEAAAAAAQAAAAAAAAAAAAAAAAAAAAAAAAAAAAAAAAAAAAAAAAAAAAAAAAAAAAAAAAAAAAAAAAAAAAAAAAAAAAAAAAAAAAAAAAAQAAAAABAAAAAAEAAAAAAAAAABQ9QAcZBUBAABsWP37r/79P4UDoF+7+PmxrCYAAICdmjDr0PZMJjNQBACG//21e5c6WFQAAAA71PDi/MPpdCZTRACM7n7sLytYWwAAAMU3bP+h7enhig3A8FGuvfJGVhgAAEDVGm/940fTXxoAhnv2zeOsMwAAgHqNP9CyPZhOlxgA41i//PFYAAAAAFCq91Y1B43KAYDPN+emaXUAAAAAoEiTdhx6IhgsHwBGU/aMBQAAAAAFum9+c/BCZQNg+DbgdgAAAACocEfXfyMYrAQAvlBo8lwHAAAAAFSsuhdbgpdUXgBCoZ+sbgAAAACAiuS49cFgsLIAhEJb9jQAAAAAQPlf/ddkjX8lAAiFmmqPAAAAgEq3bEkwqAYAxl3A5kkAAAAAUL4eX5JMqgNAODxvkwMAAAAAytMdLcmkWgCEw1PuBAAAAIAydP2qRUkpAE67w4UD4HX6pAAIhw9OBwAAAIBSP/u7dW0yKQHAQMjZ2+sqHIBoT89gVJcBIHzP4kYAAAAAKGW3PJhM5gfgnB7tHa44ABid6XWG8gIQDm+ZWwcAAAAApWrc/EAyLwBD/kRnZ2dxAejp6urp94byARDWrjoOAAAAAKXp8a2BfAAM+aOdH1Z0AIx6hg+YGwBt3WYHAAAAABS/2euHr5lcAGTc3s4LlQIAo76ElhsATZt8NQAAAAAUuwPNgdwADPgTqc5SA2DU7wzlBECbs7seAAAAAIr6v//1568ZCwDSbm/KqAwAxOPxnmgoFwDGTcBxAAAAACheMzcEcgGQCUVTqfIBEI939Wq5ANDWPQ0AAAAARcrxSCCQA4CMlkilyguAQUC/ngMATbt/BgAAAAAUoxuXdOQAIKNFU6nyAxCPt18kwAwAbd40AAAAACi8x7d1WAOQDkUTiQoB0H6BAFMAtI0r6wAAAACgsOpmvdZhCUA6bIx/BQFoj/f7LQHQtKcaAQAAAKCQxrWMvGAEAM5FEonKAmAQ0Bu2BEDb+TkAAAAAGH0TNnRYAjDgSiQqD0B7e09UswJAu/czAAAAADDadizosAIgrSUSagDQ3t7ntAJA8++uAwAAAIBR9bfXOqwA8EWi6gDg8Qz6LQDQtPvHAwAAAMDl55jf0WEBwGlXNKoUAJ6uqBUA2r9mAAAAMM+XW0NLzAKAoPHyrxoAHs8p3QIA/87jAAAAdHktXBKzAGDAGY0qCICnPWUBgP/eKwAAAOhyumNrzByAYDgaVRMA4ybAbw6Af92nAAAASL731sbMAUjrUXUB8MSj5gD4l98FACYAtCh/pjMAoBLdsC1mDsBQJKoyAJ62Qb8pAP6Nm6ppf54UAEhWLQArhM10SgJwUgDgCwz1ZTTzo/nPAiCoRVQHoK3LaQqA37+6ijZo2SjvADQBgCPKn+nNwma6RgnAD5jqy7i8FsRMAci4IuoD0OZJmAPg31w9O3TLKO8ARAAOKX+m00d5B9AqAPAVxlq6Xy+KmQIw4I3YAYC2tn5zAPx7qucWTQAgIAmAXwBgifJnerUAgFcSgDYBgBeYa8nqZr4VMwMgGYpEbAJAW59uCkD13AP8uUgAbFD+TO8sEgAPMNmy19b/538kAEE9Yh8A2uJOUwD066pkkyaMEgCXAMA25c/0HQGAqCQAHgGAbzHZkpfWt2NmAGScETsBcMmDgBEAbHypOnbpDgGAmCQATvGvOsr/hsJqAYDUKAH4J6Mtd2WtjZkBcNobsRcAIx8EjABA31gd7wdYKADQLQmANyAAMFX1M10pANArCUBcAODLzLZME7fGzAAYuPj6bx8AWi++I2AkAPry56phn+r/eykAH2iSAAQFAL6n+pm+IgDQLwlAjwDAbxhuicb9KWYGgNvrtSEArRceBV4CgP7Qw9WwU28IAIQlAUgLAOxQ/USvEgA4JQnAGQGATzDdEq8rR2ImAAR8XnsC0BrXTQDQ502sgq16RgDAJwnAWQGAWaqf6E4BgB5JAAYFAH7LeOet7hcxEwACIa9dATgvgACAPrnB/nv1XQEAtyQA5wQA5qv+mvRJAQCPJAD9AgCbmO+8PRIzASAQ9toXgNa4ywQA11P2//3gnwoADEkC4BYA+Lri53lUfFdnmyQAvQIAv2K+83UgZgJAQPPaGYBWjysbAF3/tO0363cCAAOSAGgCANsU/8bEd7I/CiAHQEIA4AoGPE8zF5kAcGH+bQvAsADZAOi2/2DQ1wQATksCoIsf71b8gcheAYCILABeAYDpTHjupj6TPf+xi/NvXwBaPU4TAJbb/QXhHwIAaUkAvEkBgCfVPs+D2X8FlAJg5NcBfAhAIyOeM8c3u01uAMJe+wPQGndmA6D/bIW99+vjAgABWQAyAgAvq/1cukkA4IwkAK0CAHwfSL5byu5sADpC3moAoLXdZfI+uQfqbb1fNwgAxGQBGBIAUPsp4MPidzvEJQGICwDwWaA8DwC7TQDwOasDgJPtusl4/MjWGzZbAOADWQDcAgCLlIZwtckfAaQA6BMA+BIznqsJb5kAcM5ZLQCc7NJNxsPenwt6QwDAJwmALn7J60yVz/K27A8DywEwKADAGwFzNf7R7mwABpwFA9DpdBcOgCvRVzAAJ/tMxuMhWz8YflQA4JwkAM6AAMAxlR8BbMn+KJAcAL0CANcx5Tn6fnc2ABlXoQAktLOZgcIB0N0+Z3+hAJzsNxmPF+z8GOCHAgBnJQHwnhYAUPlLgW4Xf+ehTxaAiADAc0y5dU92ZwOQvnjBjBIArztjVBQAjLTOnsIAONlrMh52vi/8ogBAUBaAc+IPvcxW9yRXigC0SwJwyV8Bh0/7ZsbcsqnfyQYgqRcGgGsonSkmAG53uLMwAFoTJuMxzb679nsBgJgsANr/2LvX3yiuKwDgaaCAAtRBgEkbXjVuhBRIaWgBpYaEklASSAS0NI1pWjepqqqBPqAFi+DmAR9aRFooRbxE+ghEVUT4gBQloi9VVUlJW2lmd+x9zDpeZjSzrNnZ1a734bWNXa/Xxrvn3Nm5Zwxkp5r7B+zs7Mz57X2cey4E4LPVe5OHNJwHyAVAAACwYIYb56bjrBMpBECHRxgDAHGpO5m82QD4/Wq8awwAeFuDODy2OvfY0LkAgCgvAMVJgBIAqvdsgDp41FuaF4AsAMBdBTRvl1IYAFkYAwDi9WTyVgAw2AsYIsAmAN6wiMPjcedO3EIAZE4AipMAJQB8cWa13uMRCECWF4AcAOBRN87N2oqlGIBuwT4Aen8yeasA8Ps9afsAeLOM8HBuhbA/AAC6eQGQ4WGvVTsGuBcAILXyAhAHAHzXDXSzAcDOFAIgKdoGICInk7cSAL9fytsGwJvD4XHasYOAdwEAGV4AJAhAtZ4OMh8e9x7hBaBdAAC4iwBm7bUUAqBDEmwCENMyyVsNgF+OJOwC0BrD4eHYWnHnAQBXeAEYqgtYCoCxojrvcBUEIM8LQAAC8Gk30tlt2S4MgCrYBEDoVpRbD4Bf9uRsAuBtDeLwcOqfw7cBAMWygDwADEAAXq7KG5y8HwAQCvMC0AcA+JIb6SbtF1EEQLdoD4CYmlRuDwCyHMzaA6D44eXh8XOHFghbBgHw8wIQggB8syozoi5oAIBIKy8AaQCAWxPcpE2KIgAUyR4AweuKctsAkLWcPQDacjg8nJoOtB0A0MsLQGEMUAaAcaYa7+8QBCDPDYAOAHArgrLblGYEwJWQaAsAT1K5nQDIcsQeAN4ICo8tDq0T/g4AwOAGwA8B2FyFhcFWawCAUIAXAJ8AAHjKjXVmez6KAJBFOwBE+hXlNgMgh/rsANAWFlF4OPTYuNcAACkPLwAiBMBYU323Vw8BiLfyAtAFAFjwKTfWWa1uKQKgV7QDgNir3H4ABocBdgBo68Ph4cxkgHsAAEOTAFwABDMQgItVd3fzF0IAurgBAFMAgpsHyG7vRiEAhQEAHQBNUT4KAGQ13mkDgLYYCo+t05z4+MbvAgBkuAFQIQDGA9XZASgBQPDxAtAeBAC4xQCYbU0UASCLdAAifuWjAkAVEzYACIgoPL7nyAd4AgBwhRsAwYAAVFsy0MaFEIBcKy8AYRD/gnsmAKvN+AYCICnSARgd/jMAOHj32AH4VaM5AGooSwegLY/C42lHlgg9DwAoZALwARAcgADchFmAGffPe6jlyZaXljx1E9JuhjsAGtgJzAVAHsT/sQlutLPmkKIQgOIAgAZAsFcxBeDchmXjxg7AndOebDQFQPX00QEorASA8HBkPuBcCEA3NwCiAQF4eEwLAbWLD+xeNBqsj/zn8LwxDauWaxCAeCs3ADF3CoCjTWtGAAyIZACEpGIGwMENg/DeDAAGv+vRRjMA1KGpQBoAhZUAEB5bNjpxEqAZAKBwAxDshwCMYUvQnKP3wiV7jyf0nceX2N6EP/4QAiDBDYAXjgC+4kY7o/00CgFQRDIAIoz/GwA0vb+ucBUIQNwagAQG4I47at5sMAFgSAAiAG05FB6O3Bf8OwBAih8AEQFwaoq9LzG1Hg3XR05kPb3e5nEcLRoEQPdxA5CAAEx1ox23mmYEgEYGQELxPwLAf4dnlY8CAGLWAHQBAIYLOq+rNwFAVdNkALwCDA9HZgNNAgBEB7gB0K9DAIwNtsJ/7yDBZgCEfvTIYTuJ1tP3IwCy/ADEQfxPHO+GO2MCKQoByIhUABjxXwTg3H0jv/liAIBuDUAfAOBGLYfVx00AUK9RAWjrQ+HhxHTxmVEAgMIPgIQAMObSI3XVQrUSAIM9ktMv0O/rpAYBiPi4AUAjgM+70Y7blF0QgKseKgAhRWEDcHH0wMk9AADRGoAcAGD0AI9P/MYEADVHBcAbQXe73IGP8RUAQMrDDYDejQD4C3VP0JL9xUFYJQAk6TnqosBqFQHQxQ8ATAMUXnLDHbdnohCA6xIRAElhA3Dqcsl19gEAtE5LAGIAgNKNHMuPswHQckQA2sLobv/t4IXAG09zgB8AEQGg3Edb9lu/UOUBQDpN23FdMxsBoPv4AYAjgGNuLQBGB+AtCEBHiAiAqBhMAH5cdt70TACAmrcEQAQAlGVx1BxgA6D1EAFov4bu1oE7RlZAAAx+AEa6ACUAfOHPlO7/x2WVDwBpLek09pMqAiDBD0Ab7AD8xA133D6IQgD8Eg0AQTFYADS9DJZ+GgEAMSsAshIAAFR03zOLCYAnTwTAJ8C7deLxcX8FAJSMASwBGE4HLAEguZl/yq52t8wNgEQ5gWGJigCI+/gB6IMAuGcC4TZ5OwSgQ6IBEMwYLABOfQteai8AoDAGqAhADADwNFxMnj+bBYDm6aIB0J6Dd3vMgYdHnAcARPv5AdD9EABFeZD3wl/eJFMA4D+KtXY/AkDqJAAQcUcA1u3MhxCAASIAvQYLgM116FLjAACFVKBKAHRKAIDncN+zngWAFuqkAdAqwLv9k/Oe5NcgAB0EAIJJBIDCmQ40YbdMA0A8zPnfdFZFAOR8/ACgfQB3uuHO6jgCAAyJBsCAwQLgbUbaxz4IgNZVEYAIBIBRzGX8mywANDFMAmCkC1CybdyBfxavAABSMj8AuoYBOMg1DVBzt0wFQOTriq9SEQBigAAA3AksvOCGO2prPoQAyDQAZIMFwOusVaQZjQAAVa8EQF6CAGxk3UHLSgYAmk4DYLgLMHq3WxyYM/oBBCBDAEDvRQAoP+Q5JuSATAdg7cc4PviCigHI+vgBQFOAC6a78Y7aCQiAIZEACBksAEzWkFZBANS0OQCwZqcgvGgyU9TAAEBLkwBo7wF3K0x0Xl2ATz4GALgaIgBQmAcEAChvW2cDLJZtAMBzDtvyRRiAuI8AQFYEALjlQHGrewwC4CcBUFgAQAA0/drkavsQAFreDICAEIIAmB3psnoWAwBPHwmAYhfA4f3FnQCA1AABAF3FACjft0qd/VeDLQBEy2Cs268iAKQwBYAIBOAJN95Rex68MakOiQKA3mtgAJoumV5uNwRAHV6yQwCER4/vHPkmC2rNPvaf2zAAWihBAaA4C+DwNeNJEIAOCgDBDAZA+ZvFJZ/1mwAgRuLX4vGgaAKAaBGNE2arGIC8jwBAWAQAbJ3sxjuaZ22GAPSTAPAbGICmCpPHFxAAmifNAiArhSAAWyoc6jh1GwZA00kABCAAwvz/g8fpJwCgiwYGYEfljMA9fiYAek/n8O/uS+QEJgBbK6YZTD+En6cW81EAuAYBcIuBcfxlXA1RAAgZDAAuVbjejOMIAE0TuiAAgWulR1sNf5O16zgGjGUvTI4CwFA6oNNfGNShMygA6Brref6+kjibWABEusqepy8vMACoWHpt2lkG6FKAAkAAPs7g/W68s6YAy9+YbokAQDDJeGEq9xkvMwDQPLGu0gcbyIkhBgCVT3Wet4jRZUxQAAjDN2ai8wpIr4AApFQKAHo/A4Adv6wwA+jHAEh9qEfXmpMwABPNuwDTnmUM6UZWADgByIHHucVNA2ZPAZZPG3soAPQzxowW6WPjzzIAKPQC0tlCp7HQY4yAMaPEd3TvQwsxAEKAAEB7BPYZHbh1bCcEIEMCQM8w5nR2XObv0KlaJMwa0iVEBIDwqtnH1uxlTOpq6QAFgKFJXXcjoEV7xnrhuMIL42HMGr9vNWv8xkomAMWpIklkzBoPf5cWq5s5ggHwpCkAZMEb48T/jDMorcNDAaCwrYuxqmM2CliCpnTUeMBqUvfGF9lq8q5MP8ta1tUDJAB64JTORPdAEPx3vB0CoFIASGIAHrZePB9nCoDJslHxu/zRupTLSQzAyEoAFwDtQdADOOa8+sCTmyEAGRIAEQ8rr6PJZCawHgGgm+Z1hEUIgDCP+aG1u1mJXVKYBIAXreq6xQBx+wxH8rj5C+PHmWOn6qwvetd7dgA4Xcvx8p/FmWNBCgA5uHDswHMkz6OtHRoJgOHMbpDYlWRmdk5vgACIneaJXQmU2Mksv/zGJlZq99D2LgIAKK9rQa0b76j9gGP7mOkLIxkIgB1cR8rUNtIBWDuP55PnfA5vHukhABAQnV9DeuZbEIAMDQD9OnNvx8Up7CnAMgAq7+3ISVabOwuTuduYezvyARIAKLNbeNQNdzwCaObYQG76wvTizSOX+K779VlkAFr4Pnn1Srx9NMAPANo+GlznwJVAVN5BJQEQ0dm7O/9xD7rUbyEAFrs7g7C8A6689veVzN2duQANgB50s/PdeEftAVhCRpH4AdDw/vGLvBVXf9ZABOBV3ls6ggtIpAkAoBJyDjwmbNlSCECGBkBkaHUX13c4h5YDNwEAPBYFXvogAPDnralnFnjR4gEaAF60u9vdBmA+AhgFwM8PQHH7eBkAp+ZwX/mrDSQA1nN/8F3v4RJSnfwAoP1jLzrwsb6DSjxqNACGlgJYFZ4eLJ9IX/c/9u79yanqDgD46ixq2QUKLLoO+CiCw4wsFRCkIEhBwUcfdkZqxyKMSDu1Y4GOstKBzhTBnaEP1A5gpbVSH1PB4qPlXB2DAAAgAElEQVSdyrS1Uh2lSvkhuQT3bpI2yQ03yeRJzGazbHY33WUfZL/n3OR7b7K752S+3z/gZg/nfj/ce8853y+nvENBAPoeAWCbh7zX/yddXAAGzoyiAWDqu9guoXRnom4bACCk4AFwMTXktPtN/Pau3XgAtpgpIrf6KgaAKB4A9gS5hE+O1zIAxEwCEHRwazwmk/+sZxYB8wFIFSvxBos8f3fIG+n+21QuAPDMeFEAWpgKb9QQrMAbwCAAWTcaAKfGADDP1I/3YI8E4MWbTV24gS0jncADELbJvw5QtYdp85AzCUDQzQcg+adf573m7QcAOIqWeYed3tbkbQa88qH8Is95ANhwZd7zpjPODPYnlO6cr0UQABUPgMqUkX7LZNeXiQdxAEz9xOSwdiAbSXABYLrJy7h/tJ4BwGO2zHtQMWjzkPzxh4O/c5BT47UwAKftQwGwDbZgqm54TOUDYPeaBSDBDPYUZTsn3gcAhNxoAAYeAPIA2Gv69/+8uzgAG+81vX/rrtlMK6kEGoCz4B1gzfMyFpE5xnR6azfd6cltAEDyl8cHNnvNAAC0Fm/0EgQADKzuvvIaaPQ0CMDgzgI0AKcDzGDpCwDvazHsJ53GA+BiWkm9YeEvmLJsaREAdnxi4bJP4ZpJ8gFg6kjKWERiEQPAQLP3kno9DvR6fevLfe8BOzhtHooAEAEA9P3rTt63VDUAwB72mgWgg3nfoVqgvHgXAqCiAehfAsgDYMF0a3fqwaUFABhzs6WL1kxDtZM26CYJ3wGk3EByiOn2njXf7dlh3O396Me9v/IaAKDTPAC9B3Rq9j/GNnvuB8AZ9poF4IydAeAblO2850QAQMiNBkBn2kkft/pXTN/3IB+A5S991eo1/8gAEMcDANcBVsg4t9+eDwEIuUwDELUljQBIp4++V1X1RQBAG67XY/4fMqmq5tPfqKoRAIG85nFYAOLMkscGSnZOjG0EAGh4ANIAAG3dBKt/RnV13f0//xYEYPmMhtoSxvY681jhRQPA7AW6T8bZ3cQA4DEPQNSZNQQgnf73e+UA4IP89IcA9O4rMAtAgtn1JGWz9+GPmf8DAOTQACge+ARworS/pXp6w74ZTz54laLM3j1tx7Kvf1xX2vXGMQBk0ACcroSFwKopjRCAULt5AKLBdmMA0unbSgdguaoaAqBnvOYBOONkAPgHJTsvTkIAdDQAWQjAR+U5aj127MSx5RncDAiAvRkLwNlgRdSS3soAENLNAxANqgUAUEsHwG0MgHLeawGAVnjyac0D1A6MG3sAAB43FgC7BwLwqWiDe2UW/LDQhgbgPADgcimnt24tA0DffkBzAESjyigBYE95LQAQZosffJ9ynfvU3QgA6EIDoPoAAB/VCTe8GRCAIBqAFngiUM5akusZAPpeAswCELVlRwOAYNhrAYAhhw36fuNRqgXOX4A7BwBQ0QAkIQAnxBverczSQgsWgLMQAEkbyu1hAAj5rQAQDXaPOAD+zMX8NwNAhC2A+BXKdW68CwD4XMEC4PABABbUCji+MRCADBqAOABA0lISi+YzAHjcVgCIx5X0yAJgT4UtAdDG1kCnJUCDOAQA8LixALRDAL4m4vjugQA40QB0AAAelXSK32QACKWtARAPtI8gAP5oImwJgGYbA8ADqynV+bEWAJDGAmCLQQCuFvIj2Fy4uyiMBQCcCHQ6Jf2MXLOWASCkWgMgHtXTIwWAozMctgTAQDf5fADoC6BBTLgTAJDDAqD4AAB/F3OEz0EAMlgATkMAZD1LOpMFwKdYA6DnIaB7RADQI4mwRQAybC/0b9ZRqhvcG+cAADoWgBwE4FUxR7h6FgDAiQUA7ARwOv8i6yw/wgAQitktAhCPu7PDD4AtFQ5bBCDF3rur7qNMN/wGOBSAkBsLgAYAWDBR0CHugPuLW7AAZAAA78g6y+NfZgAIZS0DEI8o6eEFQMmEw1YB8NrZe5daARjGJgBAEguAwwcA+L2oQ2yAAHRgAUgBALZLO81vswCEctYBiATVYQTAH08lrAPgZO5d22HqBWQYjwMAslgAXBCAOaIOcfJsAEAUC4AXAHCDvG+Sm1gAQrp1ACKRQG6YAPBHU4mEdQDi7L27ahzluWE0AgBULABZAMBvxU2OhwAAjmYkAJ8BACSuKT/xfRYAj6MEACIRZ24YAHDFe9PfOgAdnHv3KUpzw7j6HABARwLQuwg4BIAfijvIBgCAkkICcDYAAFgs70zXz2cACGmOUgDoeQpwZcsLgB7tS3/LALRx7t0nqinPDWM9AOBzNxKAC58A8gHYK+4gr4EAZLAARAAAMn9MOsECEErbSwIgEokqXeUDwN06kP5WAQjb2XuXtgAVil8BAGJYAFwAgCW1Ao9yKgAgiAXgPADgHYmnuvoFFoBQV4kAtLZGbGpZAPDbMqmL+W8NgBY7595dTFleIB4BAKSxAHQBAI6KPMrnAAAOLAAJAMATMs/1wm0sAKHuUgHoiaC/dACiqd4oDYBmJ+fepV6gBeMYAKAdC0AMAHBc5FFeBwC4sBsYA0ALAGCF1JO9kgNASC0dgFaldAAyZQAgyLl3t4+nJC8UOwEA3UgA7D4AwNsij3L8bADAeSQApwEAz8u9oHySA4DPVSEAnIly7t3L76IcLxiNAAA/EgAdACD0J4CqqmcBAK1IAIbUBu/NkJuknu3qYywAIZ+/IgBojrvZe3cNFQEoHBPOAQB0JAAqAOB2sce5jPMVEAVAEAAgeWu52rUhjgBKJQAw8P//kHv3B5TihaMeABByIwHoAgDME3uciwEAdiwAEQDAJMknfNERjgAeRX4AIgoHgA20A6DYZyEAgAcLQBIA8Aexx3k9/ArYggSgAwAg/amSK3iPAIMCSAtAq8ICYD88mTK8SLwKAIhhAfAAAOaIPc66jQCABBKATgCA/KXlT3IAGBRAUgCaIwoHgBdvogQvFlsBAEkkAP2LABcBmCL4QOFWoE4kACkAwPfkn/NNHAB8Hl1iAJrjCgeAjdQIsHi8CQBIIwFQAADrRB/oLexmYBQAYQDAf+Sf87o3OAD4PH5pAWiOKhwAttxD6Y343wAA0IUEQB8KgO+o6AOFewEjSABaAADbK2DSx+/kANAngJQABBUeAFQEEBN/BQC0IwFwgSeAQ6IP9AN2HRAFwBkAwIpKmPWFT3MA8PlyUgLgDSg8AGgHMCpeAADkkAB0AwB+JvpA4WbgABKAzwAAN1TEtNc38QDwddnkAyBsU3gA3E1FQFGxEwCgIgHoAgCcEH2gcB3QhgTgvwAAZ2UUl/pXEw8AX9YpGwBtDoUHwKVUAwwXawEALiQAWQDAFaIP9DL2PCAKgPy9wBcAqJCl5ZlHeAD4kja5AOjIm9I8AF6nE0DIeBkA4EcCkAYAzBR9oGNnAQGwAAQAAJXSYnrlER4AHs0tEQAtEYULwNQJlNnI+BEAQEcCoAEAPhR+pLsBAF4kAEEAQMWUl1m/hAeAJ6ZKA8Dg5z8AwOHLKLGxsa1MAIh/6PKZMgFQObvL9h7gAeDxtEsCQMqhcAE4/CXKa3Q0WgQgBgC4RviRTmNKglgD4PrKmfyHl3AB8CTtMgDQAY939N+5U+n/fxPxOwCAGwmABwBQK/xIpzKHAXAAxAEAlVRifmUTFwBPTBcegJaowgfgFB0AMhN3AgAUiwCIv+rybJkAqKgN5ruauAD0vAY4xQYgZVe4AGw5Rd//TMU5i08A8IYR/9z1GKY1gDUALqmo+b+2iQ+AJ+kQGABvq6LwAdgwkXJ6VACoIgDkjPqn+QB4Yq6AqAAkbLoBALfQ/j8CgAAwFQtvNwAglrWLCUDGrRsA8AsqAEQAEAAmY8LfDACIxVQBAUjZdJ0PwKpJlM8EAAFgOurmGQEQu/AlQCQAet7+dQMAllMBYAKAALAUWw8YABCL5ZwiAdDp0HUDAOZ+h7KZACAArMXeBUYAxDQ9KAoAqYCuGwEw5kpKZgKAALAaizYbARCLZR1iABDRdUMA7qihXCYACADrUfsFQwA0rd05+gBk3H6/EQAbf0qZTAAQACVF9Y0HDAHQtJxzdAHosPv9hgDMvZUSmQAgAEqN9U3GAGiaGhg9APrS3wiAS+n0HwFAAJQhVj9eAABNcwVGB4Dz/enPB2DLvbT7jwAgAMrzGnBiSQEAep4CnCMPQMbh9xcAYNo4SmICgAAoV+zaXAgATcvZRxaAVqX3csYAvESH/wgAAqCMMX5eQQA0rd0RHSkAUlF/3+WMAFi+mDKYACAAyhsPrysIgKal/YERACCRsQ9ezgCADbT5hwAgAMoetfMKA9AT3Y5hBqAzqLhchQGY20DpSwAQAMMRczYXASCZTLts8eECoC3iGLyWIQB30+IfAUAADFPU3LikCADJfgPKDkBbq92Vdy0DAJ65jnKXACAAhi/qjxYFoCeyLluknAB0xB2u/7N39zFyVWUcx4lZVKSwaFtLaUWCttCwdEtlK6FCii9QbUFAgkpoMViNVqSUFyUVEIRCpA2vNhoolBrejBCVaISqFItI/MPkzt0Z52XH7OxM5sXZmdnMzk532+3uOrvQhX3mzszZufNy7uT7+383Ofec5zPnnnvuub4Z/8sSgE3rOPkLAACgvrlqS2UACtOA0QkzVhsAhmNR33spA8CGtRQuAABA3e8DbutSAGAyYz32ATB8M1MSgEUXUbYAAACNyKrNagDkffYBCKoBcN+dnPsHAADQsKWA47QC4L51fPYDAACgsQRoA0DHo5Q/AABAo7NknxYAdFzIk38AAIBmZPm+pgOw4HnKHwAAoFk5b+XOZgJwxeNM/gEAAJqZZfufbBYAi87mzA8AAIBmp/2xvzUBgI5Ps+sXAABAj7z19EuNBWDx4x+kSAEAALTJnL1bGwZA4cefXT8AAACa5eS732wAABfccTYLfwAAAHoasP/NugJwwXO7PsFVBgAA0DZt965/s04AfO6OSznrCwAAQHMBjjlm7d63X6o1AL96YhszfwAAAIfklN+v/3fNALhhw64DXFIAAAAnTQTajmlfvnSBfQAW7XqLJX8AAABH5iT7AHyMqwgAAAAABAAAAAAIAAAAABAAAAAAIAAAAABAAAAAAIAAAAAAAAEAAAAAAgAAAAAEAAAAAAgAAAAAEAAAAAAgAAAAAEAAAAAAgAAAAAAAAQAAAAACAAAAAAAAAAAAAAAAAAAAAAAAAAAAAAAAAAAAAAAAAAAAAAAAAAAAAAAAAAAAAAAAAAQAAAAACAAAAAAQAAAAAAAAAAAAAAAAAAAAAAAAAAAAAAAAAAAAAAAAAAAAAAAAAAAAAAAAAAAAAAAAAAAAAAAAAAAAAAAAAgAAAAAEAAAAAAgAAAAAEAAAAAAgAAAAAEAAAAAAgAAAAAAAAQAAAAACAAAAAAQAAAAACAAAAAAQAAAAACAAAAAAQAAAAACAAAAAAAABAAAAAAIAAAAAAAAAAGArp//rGvsAfGDFfK4kAACAw3LgsX1/zOd99gEI+nwnXbhtLlcUAADAIWm/a+Xv8lOpDQCTOen5E9q4sgAAALpn4WMv78xms7UGoJArnlhxPNcXAABA3yzbu/Vb2anUAYBCbtiDAQAAAHpmfue+d6u/bgAUsmDPinnUJwAAgF5pu+vtneFwtv4AFP7PNb84nQoFAADQJ6uW/iM8mcYA0NNzwavbuBUAAADQ48f/qn03h8MNBWByGvD8WsoUAACg2Tml88rwdBoIQE/PmRs+S6ECAAA0M8v2PxnONgmASCTy3DYWBAEAAJqVA0/vDM9IowGIRBbfyWIAAABAM3L1AzeHw80GIBI55+/MAgAAABqdhSu7wmEdAIhErrgTAgAAABp6779+dTqsCwCR6OKf8qIAAABAo9J+d1c6rRMA0eiiT1K0AAAAjUjbQ9vTaSUARnvsA+BSAyAa3cD2QAAAgPrn3q3ptAoAIxGj37QPwPChjKtHBYBox4VzKFwAAIC6ZtXmdLoyAPkJd2qokFoAkMvlDg7HzMoARKPnvMJSAAAAQB1n/3u70hUByI8HU/1DQzUEIJcbGDiUMisCEI0eexq1CwAAUKec93JvbwUApqq/kJoDMDBpQLQSAOamdWwMAgAAqEfmLV3dWwGAsehU9dcJgEkDAtHyAJjmj3lDAAAAoA6Lf1dO9WhpALI+o386dQJgYCA35C4PgHnmox+lgAEAAOrw818GgNFoPJNpAADJZPJQIFIOANNc/A0qGAAAoIZZuPVoj1oDMBZMZTKNAiCZPJiJlAPA7FjH4wAAAICa5aH7e8sBMOLKvJNGAZBMDgyZZQAwzRc/ThEDAADUJHM2T/enFQATRibTcAAKBAwHywBgrjmfKgYAAKhBTt3eVwaAESOVagoAyVDyKAFWAJjmDh4IAgAA2E5nV19pAMZcqVTTAAgdJcAaAPNYbgMAAADsZd63Z/TnTADG3KlUUwEopD9aEgDzKV4RBAAAsJNV9/SVBCBrxlPNByCUi5cEwLzpcUoZAACg6izf2FcSAN/R8m8yAKHQEaMUAKZ5LpuCAAAAqsyzq/tKATBivFf/zQYg5D8cLAWA+QgLAQAAAFXln319JQAIR+NxnQDwh1KlADAfPo1yBgAAmP3y3wOJUgCMB+KaAeD3H3GXAMBcw1Lg7PMlAYCpCECvGDD6H9f6iBguA1UCcFmLjYA5ryVKAJANxuP6AeAPDZnWAAQvfoWCnm12VzkDkACcqH1LF4nhkqwSgBNaawAsvDJRAoCJeFxLAPz+g25rAILB71HRs8yPajQDmK99SxdXCUBcAHB5S/X/1VsS1gCkzbi2APhDmRIABM/g5aDZ5XYBQFQRgLQYMMscB0CoSgDOaqXuP7A9YQ3AqCuuMQB+/5GgNQDBHQgwq/ywSgDCYsDof1TzfWK4+KsE4JIW6v2TNyYsAUj3xGJ6A+BNxqwBCJ7L14Nmk19XCUBWALBE94a2dYjh4lUEICYAaKHHzafen7AEIOyOaQ+A1ztsDUDw+lMoa/VcKwDoUQRgVABwne4NnStHi0cRgIAAYG7L9P3yroQlAKNGzAkAeOVtQBABZp/XqwRgTADQqXtDzxIAuFQBMAQAJ7ZK1y+Zrv+ZAIwHYs4AwJs0LAG46XreD1bOLQIAnyIA4wKApbo39CIBQEARgP8IAD7VMvf/9yesAEibsZhTAPB6U1YABN1fZh1ANX8WAIwrAjAhAFipe0NfEQDEFQHoFgB8vkU6/ryNCSsAwq6YkwCYsRDwvj0sf+BZgGJuFACMKALgEwD8VveGrhMAZBQB8AsAftIa/b5we8IKgKwRcxYA3kNuKwDcOyhttXxTADCqCIApANiie0MfFAAMKwIQEgDc2gq93rZqRv1PAzD6Xv07BQBvzm0FgPtRalsptwkA8ooAuAUAq3Vfd5HvAh1SBGBAAPCdVuj1Oa8nrAAYMQLOA8ATclkB4P4uxa2STgFAWBEAQ24dPVnz37w1RS8DqgFwUADwlxbo9ONfS1gBMFFongMB8IRiVgC4vkJ1K+Q6AUCvIgBH9wJPA/Cs3u1caxZtBFQD4LAA4GstcAPwTMIKAF/AoQB4vDELANybLqO8K+dUAUBCFYBRAcB6vdv5gqh/t0cRgCEBQAvMLPcnrADoCTgWAI8nbgGA+6mzqO+KWSYA+J8qAOMCgH3OeggQUwUgJQB4wfFd/mzCAoDeSMDJAExtCCh6lf03cynwitktAOhRBCAiAOjSe+/FiwKAflUAAgKAy53e4ctXWwDQGw04GgCPN2MBgOtFNgRVzLUCAJ8iAEF5gMQbOrdynlwDPKwIwPs3Ak4B0O7w/l61sbj+E9P171gAJucAFofZnEGBV8rPBQAjigAYveIAib06t/IEs/ghgBIAHgHAh5z+AOAWi/pPRAKOB8DjjVudZvUDKrxCbhQA5BUBCOTFDOA4nVv5M7kG6FUEICkA+KrDu/uBQYv69wVaAACPJ24BwNcvp8TL5zYBQFgVgHEBQJfOW4FetVgDVALgiADA4fuAOgctAJgwWgMAT8xi7D7MQmD5fFgAkFAFICoPkVyubyPbO4o3AqsBMCQAcPZN5RufsQBg3GgRALq9MYuxez3vBZXNAQHA0TOBKgLgkgBovBNghTxF9qAqAHEBgKPvKedvHywGYMywD0B/xD4A/fYB6PYaFmOXk4LLr4/vFgD4FAF451Sw9wGg8ftADwoAgl5VAAwBgKMPBf/TYDEAWZdtAOKRUZ99AILR+BG7AHSHXMVj92J2BJbNPQKAEVUAxuWHJP6q7dL3gqjFEoAKAF4BwC+dfB5Q52AxAGGXYQ+Aftd4Pp+vBQCFv3cN2wSgO+cuHrsPt1PlZfKMACCrCoApAbhb1ya+IL8kM6wKQE4A8H0Hd/TVu4sBSAcNWwBkzLF8vnYA+HzB4ZwtALoPWYzdL1Ll5R8DzACgVxUAIy0A2KLrcsseCcCAKgCHBQAOfgjwkVsGiwDoNQ07AKSi+Wy+tgD4fGZ/zg4A3cMWY/d8yrx0viAAGDQVAZh6H2jGxyQ1fQ4wd5MAwOVRBSAjAHDwgtL+wWIAIoYNAFKR0Wy29gD4fNGhnA0APKnisbvmEuq8ZJYJAN5dBVQAICIB2KxnCy+VX5MdUgXgv4YAwLmvAi0ZLAZgxLABQHSy/OsCQGEWMFw9AN3eQPHYvZVngaVzuwBgTBWAyd3AMwDo0vMLgYskADlVAPwSAMf+ksx7vRiA/P/ZuxffKI4zAOBUAVoViiGAqYGKBBwEKjQObnhIxlRNQgIENakggN00gCKqohK1IEIhTdMAEpQGhSRFdSFNoiBLbRolaVqaKiqq2qbvVNq11/fYPcdmt7vHPa3z6/w4m9o++3z3fbO7861j4kU7f8Ctx7Pz23l8843oHACxL5UaPwACAanbMQD1URG/u097/dy0vAcAUHkBGJwDFACg/n0i1m8NvE9eaOAFIFMIgFHt2kZ+qxUB0CQJTgGQ+1Op8QUgoITbnAJQn8Hv7g5vEmCxClgIwLU6XgB0AEDig4l4/HITBKCdG4AYGAG4dg1wbTkGQBccAhDX1NS4AxBQ6tJOARj67cJ3V9zkdXTT2SEAIJsSgAcAuQkAkJiAicEWL4MARHkBaDQAAG5NBzT5UCsCoF90CIDUq94QABRF6HQIQL2BABC8FIFmZdrLAIAubgD6IQAbJl71KnUAgNHAC0BhGNBAtd0aB3g2ggBIic4ACF9X1RsFgKK1OwPA1ywiAKq9U0Fm5RAAQOUGIAQBSEy4S0KLH4cA9HADAJYAhCUuTTCz+mUEwNWQMwCEXvUGAqAocpsjAHzdCADBCwcyK7sAAK3cAMgdEIANE22/JTsA0EEqAD4AkgCA/7i0gS9HEACK6ASAgdm/emMBUOp6HAHgSyIAtn/O6+rs8hgAYCgSgA8ABQKQ2DbBPn4rIACxBl4AfKD/Cy5NCX5HBAHQKzoBQO5SbzgAihJ3BIBfgAAIH3rBAOxSVA4A6OAGQFYhAF8f4zC5aNHWyr0LFt518vkFv7z3eNntY6zbBR0CEOUGIAoB+JQ7VwCfRQA0iU4AEFPqJwGAIkcdAOBrQwAIXkSw7SJAFoBr/AAEIABjyg14acuUFcN9ddnwwd1fVS4aA9w7l0EAjAZuANKg/+9w57Xzd0YQAJoTADRV/WQA0EKdDgDwxRAA1TO8vs4s/wYARDRuAIQEBOCb0x3+FbP3LYDrddlk78+/8IDTmk3RIQCd3ADATUDBnVEARd9HAPSKDgC4rloAUDF2AB43B0Cr63YAgF+EAAhebhB2+TwEoJcbAKMfAuAwM9DULfPQaD133ct3N93m6Ec36xAA2c8NQBDOANwZTrorAgEY3AGgAmD0qeYA/HfbzLEDsO94lSkAmp6mA+DLIACWePGA7HIAANDED0BuCJADwElikGkvrRhoZVMABgi418FqwOy7EAAZfgDgDMCdBwFWlyMAFJEMgNGrmgLwvXcmTfoYALh10qzz3zEDQNOSdAB8cQiAtxVoUk4BAAbmALwA5IYAowBsIK8DLlo42MZWAEjSV54mrwVU6hAA2c8NAJoBPOXKpn0iAgFIiWQAhA7VDIC/Dm37fCwADExXbqkwA0AzomQAgiIEYLt3XSCzfAYC0McPwMgQYBQAdSnt6XO2LNPsAZCkvVNpv7tmGQIgww9AM5wBuDIhcEk5AiBEBiBv+R8A8Lul84ceUwsAyNgD0A4AeCY7YLlgBsCgAEQAfGkIgPBlr7NbbgSOAHCVHwDjOgLg7r9QHl5cO9zEdgBIp9eQKrVQgwDIfn4A4AxAcGVuyVMRCECfSAVAQP1/GIDdr4yc//4BAKDbHoAYAGAkVv/ETBMANDlKBaBehpXd/pDX21nlPQBAROEHYHgIkAeAuoGwYba4RuEFQNpIOdFxRkMAdPID4JNB//+qG8NIHimHAFyVqADg7/8wAB/8MPecUgBAuz0AYQDAotyA8HwFGwBNbiYC4GtDlfVOBVrOAXIAdPADYAQQACr/TsCJKoUfAGkjf17+zRoCIO7nB6DlppgBXI5AAPpFIgCiqjIB2P3grNHnXAAAJG0BqBcBADvzvgm1bAA0o5kIQGMcVtYLCGaWWW8AAK6F+AGQUwiAg+9wPvjSPIUCgMh92+MD8xAAoWYCALGbYQawNgIBSEhEAEQ1wQTg7YIWPg8AkGwBiEqFAGzPz90955b1TAD0MBWAZlTZb3m9nfmpAABEAvwAGHUIAPXiYr7xf5VCBGDjOj7RzmkIgHY/PwD1Iuj/p904AziFAFCIAMipBBOAXy8veFAZAEBrswMgDQAAyZZO1DAB0JNEABrbYWW9VQBm2QMBUAkAGH0IAPUKT9jl9IUKFQBxx07OBQAIgOgnANAt3gQzgOXlEICURAPA6E2wANi9FHC4GAIQswGgXgYAwJOW00uZAOjtRAD8Aqzsb7zezijznwQAtNYRABBUBIC6n+OT+apCB0A8zZHZYfLWxMcAACAASURBVKuGAegkAOCTIQBunDruikAANBoARl+CBcBFPMF7GAAQiloD0CYBAGCU7uTJL61nAaD30ABoTMPKLin2ujujvAYB6CMAYGgYAPVPts/8c8AJAKL9Xm7ZegxA3E8AICoCANx4JdCMJyEAqkQD4HqCBcAVxvTuDABgcB/AAoAGAwLAWGIpm8cCoC5DA6BBAJV166nucS53QACuhQgAGB0YAPVOm0feX+EMANFuM/DSPA0BkF0B5AUgBgH4rQub9OxHEACdBoCWYAHwPuuqvZUQAL3FCoC0BABgnrT8YxUDAD0UJQEwPATIP9Xp3RXIKt8AALT2UwAQExiA52y2Ah4NMAEIGelMSzTa3NaTlNgAVFu34OKTGgYg4ycAEBQBAEtud1+DTn4dAtAhkQCQEiwA9jNjPOZWAAA0MWoOQFSCALAn5iVHGADoQjMJgHoBACDs83o7oxyGADRRADAUDID6nOVdYWUBFgBiT17D+jvDLABEy0FccY2GAUj6KQCkIQBuPAm85yMIgEYCQFZZADxosrRTCgHQ4qYA+OUQBOAo+1dnn2MAoMdJAGSHAK7f0Rn3MrccANCqUAAw+jEA6t0nLB44kwFAqBu+MC0GAwCrD/LUhRoGQApSABiaNhYAcNSFDfpzCIAqUQAY2gBAAJge89iGANCSJgAE5RAEoPqzZvtEUxgA6GkSALg513ndnVEuQwBUEgCDO8bohbl4wnIAAAEIN+MXpiGNAbBYx5l6hPHC1LX5KQD03AyfjJL7IAAKCYAAA3SLY15zahAA2eZEADTLIQTAcdPfLfoDvT3hgC52Mwzoxr98CQKQHTJyx45LrC/Gm/eYPa4WA9DO/mJ0igiAHWZbgcVHHHwxwBvjQ5NGN2aS2QWbs0miABBiTOksN3b+hQHQxTbUng09UggB8GmLnd2iWsaITgxSAEBLOj/zdgJNlgELAeggARDWGQAcNFsJ/GcAAZA2mzO2iBAAs+w8X3yYNWcMB0kAZOCysRt3juccgAAEKAAIKgOAH1k9cFoNBkCvS0YL27PTyF/TGflDLIGdfY6xphOjANCYhJs6Xm4wVvk9WjXSSQCE+1mrxrvZWUJ/igBImq8adyIAPmT+6JqTrFVjMUgDQIYAuDGPzB60phuiANDH2NZ9xXoidIwBwAAB4Uxw5P8eTcuFuzoi167O6KpO3q5OJwWAFgiAtwzINPwABEClARDuZQaOrGL8tyfD0DHLbaORfeNRALaz8nOVVTD3jVtoAHSj2j7kwsb8MQSgSyIAoDMCu963S/T0KAuAwbgOOR5Lt7cbIorrEPniOnL7unkAiBQAGg0Y2HnU6+6M8haKHNFoAAgpZujo/lnoUZdg8LjeaRk5JsN9o1uxKSOxo+TIsYI3xoeCx/e6sCmXRyAAdQQAWKHdG2zDZ9ZWmABgGtiV/Tvs/79rVuDIzhgFAHS0w8sMxNwJfAMCkKIBMHh4lHV4BAePwvOjgyfI7WPH8wBAC7lFpYrT2PGCN6Yb1daN94GchYGdHRIBgH58uOtiif1D33UEQDVHkNW7jLMdLQQAGuDh7h3eFQGs8gQ6PaLQAAiHmACoFx9Dw8VCAPQ2m+OjYQDAL8C84rYjzk+P5b8x9QKs7dfc2JKHIAAKAYAQPt598B6ep55xAMBGLl8rMQBykB8AnN7BuyWIVR5BACSIAITrmACou1fNL3hSFQAgbHd+PANPjxQuAqysCDg/P57/xvSg2rrxVVl9HwDgqsQPQPbK10IAXuR67IxaOgBb+TY1puD8DmkCAOiaNy8UgFleQxkkAtQcclqCnUPqSn6m0CIFANBjB0ADBCB/GWdqaX4OqTwA4kEiACPHx0dr+2033gl+GKZ36CIAoOEUb//gnUQeoQLwAucvf+EkzvAU5AfAF4ZXvXsngpjrOOUQgCZyEknFJIncm0tHu9LfwGVyepQriWQ+AHknOo5VBdgAxJupAMRQbV05VnwWADCa3cEegOELX/MBeHsu74NLamgA/IS7SutwjscYPwCNGTgEeMbr7axyCmWR7CKnkdZVkzSyV3KBwccAABLfRRL5AORS9BSXgjzS5Cyyo29MC+oeT7lxx7gE5nhVJX4AAijNO98CwHBrzKQAQMmzVImzPLfwA4CWAb3cgOxXB+WRdnCRhKaaJZJfNfwpWQkAMOwByAAAhqNzpuXuk0IAGLx55HNvTL2BusdmN7biYQhAFz8AjIteSLc9zq3lBmDjVsoPz8L3PMT5Afhf0psDkDYCRm+S6KVfJaWrplfJvPh/9u79OaryjAN4SoO1JIA0DAO0okwBk1EIiQRULoGKGLyU6mihKmUExrZ0FB2tdqjQWoujIFALONNBwbZCqajDUGtLW5S2QG/8sOewNcnugb2xl8leQthsdsPm0mRzI8/7nt33nL2979nn+wcc8p53nw/nPZf3SawD7gcApN5Geli/96G7OFteIHtJ9f/+vMytpAZ/MR1EeQh5ATDY733wcs7NDgDZ6m3jZE3/+KhD5WwAVC3RNqolZKenZnYAiDXAb7HYqfePyV5SLu3NJBU1AFoiJ3b21NTntQPQDADofX1k3ou0bpID63/NANRLRHkI+eEo0egpqDADIJHNXo9q/fdnP8ICwGrNm6yQvR4D7ACcgwD8BYudmnUEADbtAASkiHo72RMPFUMA/KkBgBvJjyg6vZreT7rvy0K7dgD8RHmcFXIKH4etHrvYASDbvW/Q/geU7lmYCoCqmToOS3Z7bmYGgFgDPIq1Tj/LPyT6SXdqByBgiidpKH9idfoArBhe/sMBcF+xawcgTJTHw0L2AySaPV+WmQEY7PY+CMC+Cj1/wpTVSQFYfG+pnqPeQQAQYAegDV4CfAOLnZodBAA+t3YAAp5OdQAisfQBMDeoA6AkutNqBCCxVf3w8hB0C/knAQBOhRmABhsE4IzOP2LKtIVqAFTtLtV50JEQALmJGQBiDfB7rHVqij8hAOhrKKUNgIC3O18ASGG7DgCiRHmsFHPfiIkXAAAxZgCGLgAGADhVovvvmLD3OgoA66fN1v9q1ehyCICfGYCL4F2gh5/DWqfnTgIAX5cOAAIBuSUvAISa7DoAaCLLQ9BtI/4DAXAxA2C1QQB2pndLeea2F24Zqv6fHTy0ZVxaBzwAAVAamQFoxweBjPkjAUBiEaAZgKtuBOQOAHfUbtcBQP8Hx1eXx6vjxJy+1wAAPoUZgBYIQG36j0FH/WvLps17/3Zs9ryK9A92czlcV0SZAWg04aYAbOntKg8A6H0jWDsAocFlQM4AMLc16QLAT5bHPWLOXvHzAIAIMwCyAwKwhrfRbYMAmJgBOG8BAGCLILWf0IcEAL64LgBCISWSSwBcgd6WIjoA6CDLY4Sgs3fbJQBAAzMAnRCAB7l7D6puIbyzGGYF4GIrAOC/WOoqKXmMAMDXoA+AkCeWOwDk9qYmXQA0SkR5rKwTdPI+BgBcVlgBkGwQgJ38De8ABCDEDEAY3gQYj6Wukul3EQA4FH0AhEK99wJzAUDiv39dAJzzkuUhbP+odwAANmYAGhwAgFMcVshvIADmelYA4AdBltFY6Wp5igDA55R0AtB7JyAHAJg7mpp0AhAly2OFsP87/BoAEGEGIA4B2MHj+A7DZ4vtrACc9wAAsEmgasZuJQDwxfQCEApJsWwD4PI3N+kFoI0sj2WrRJ25igsAgG5WACQHAKCGy+dksyEAXlYA4E0AC24LpJ41JAC+Bt0AhELmeDYBsHrDg/WvGQC7RJbHG+JO3CUAgJsVACsEoJrLAY6vAgAo9awAgC8CLfg5QLKlJAmATdENgN8fcMWzBYDV1NHcrBuAehNZHr+bLOy8fQgA8CmsAEQgAFP4HOEb8PXCdlYAwJsAFksZ1rn6ImAjAYAvaNYPQA8B7nhWAJDam5vTACBAlsdXV4k7b38AALSwAtC7AhgGQC2nI6wrBwAEWAE4DwH4HNa5eqbcSgDgi0hpANBHQIYBsFr6yl83AFFKeYh8c+gxAECMFQAXBOAMr0McCQDofw6QGoCLAQDAl7DMk11MkgD44mkB4PeHlFgmAbCaBspfLwAdlPIYIXDnuMl3AQAaWAGIQQDm8jrG++EXRmFWAKIAANwUJFlGPUsC4OtKD4CeSN2ZAsAdaAs3pwdA2EyWx9siN48+eQkAILMCEAQAPMPtGKeWAwBaWQHoAACswCpPlkmvkAAkHgWkA0Bra2tA7soAAFI03JP0ALBLlPIQerO4SgCAQ2EEQHEAAM7wO8jDAAALKwCNAICV2CU4aa6lAOBwpw1Aa6s5fQC84XDaANSbKOVxk9BTtg4A4GQFoAECMJffQT4BAJAbGQE4BwCw1GGRJ/85kQD4bHL6AEhcANBoUcjyOFsi9Iy9BgDoZAUgDgB4kONB3ggBaGME4KIHAIBfBCfP+OMkAD0CGAOAeo9CAvDoBLFn7BMAQBcrAEEAwFM8j/IrAIAoKwB+AMBmrPHkqdhKAuCzmQ0BgFchAVgm+pPh5wEAVkYAzA4AwBqeR7kdAOBhBeAKAAC3BEiV6beSAPicZvEBqB+q/6vKQ/QHw6WXAAAyIwBuAMB8rvfLOgYASLwJwAJABwAAvwZImR0UAByDAggLQL1HpgAwR/TZOgkA8CmMAHQBAGq5HuYEAEBic2AWAOwAAHwOmDrVFAAGBRAWAK9MAeDsGOGf2wAAbKwARAAA1XyPcxflLiALAPUAgK9hfae+EXiEAoAjqAgNgFemALBrqvCT9QMAgJMVgCAAoJLvcc6h3AVkAeAzAIAFdwZOnTEvUQDoF0BMAOotMgWAt28Uf67WAQAijABIDgDA3/ke524AgJcRgIsWAMDNWN+pM3crBQCHTREVALtFpgCw7AYDTNU7AIAYIwAKAKCG81fkbgcASKwABAAAX8fyZsjE9ygAOHrfBxARALsk0wD4sRFm6pcAgC5GAFwAgFrOx3k3AEBhBcAPAMAm4Uw5Op8CgMNmFRGAsFmmAfBdQ0zUSwCABkYAugEAG3gf6GIggJ0RgCgA4PtY3Gx3l2kAOBxd4gHQZpZpAGw3xjw9CQCwMgIQAwB8yvtAvywTXwQzAXAFAIAdQhlTSQXAEbMIBkCUaFWfKI+lBvks7C0AgJsRgDgA4F3eBzoNANDOCEAHAOAmLG3GfEwFwBY3iQRAo1+mAjDHIPVfcgEAIDMC4AQATOd9pIvI54BMAIQBAEuxsllzhgqArcUsDgB2j0wFYLlRWsRcf2k4AJcVRgCCAIBv8j7SJ3QC0AQA+A4WNnO+RQXAFnSJAsDQ8n84AIcnG2WKbgMAOBgBMDkAANy/Egm/BvAzAtAIAMD+gBoygwqAzZa4EcA/AFfgo6P+rB1nmBmaqBMACQBQw/1IbwCTGdAJwHNY1lpWAQ4qALaISQAAAjIdgOUlxpmgkwAAGyMAZgDARu5HOpr8IJgJgHoAAH4NpCk73qQCYAu6eQcgLMl0AOYYqUXs9AwBUMv9SOsyBMCPsKg15d03qQD0LAM8XAMQlWU6ANsNtS3kLABAkBEAWTgApoLJNDEC8D8AwPewprXlofl0AGwRM78ANFlkFQAM9hj4TgCAUycAH3A/0jLyYwAmAM4BAF7Fktb6G3uPDkAwaPVwCsAV2U0H4Gmj9Yd+XOcVgBvM53HuRzpO5xXAZwAA3BBA+53mrSoABFvMPALQ7IHNJAcAWH+H0ebmWp1XABCAI9yPtBhuCqYTgC9gQWvO3FoVAILBbg93AEQVtwoAi433KWimAPgi/0NFAPKXsUfUAAi2KHwBEDa53SoA7DLgXhAIAAKQi4yvVgMgGIyZ+AHAHpLdagCMNGJveAQAAchNKuerARAMWr2cANB39U8HYGlJEQKAACAAejNlqyoAzojs5QCAdsnlVgNgvUE7wiAACECuUnFcFQCns1PKNwBtFpdLFYCq0UUIAAKAAKR3I2CdOgA9BJjzCUCz1+1SB2BtWRECgAAgAGn/3F5RB8Dp7DLlC4D+8lcB4Ol7jdsUHgFAAHKZSc8mAcDpjJnyAUBboL/86QDsMvJG0AgAApDTFJ+ZnwSAHgKUQI4B6PC4hkIBYHlZEQKAACAAmcrLG5MB4HTGlVwCEJV6j6YOwOJjBl+UIQAIQI4zdn9SAJzOiNWTGwDaQnLf0VQBGFlXhAAgAAhAZjNrY1IAEiuB7AMQtbgGjqYCwPrdxUUIAAKAAGQ6Y9alAKDnMsDlySYAHQF54FiqAKydZPyZQAAQgLzkZG0KAFpaWjrdluwA0OY3X3UsFQCqZhbCPCAACEB+UjKjJhUACQM8mQagI6QMPxYdgG3XFCEACAACkL3M3ZAagJ7ErZI/UwC0RT0D1Z8cgJ8vKZBJQAAQgPxl+jMMALREIvFuWU4fAE/IbG24OqoAVG0uLkIAEAAEINsprvw2CwA9iaUPgLkBRAWAWxaVFs4MIAAIQF5T+pMavgAoP1BXSOcfAUAA8pyK+2o4AmDtqsI6+wgAAsAnAXkB4PDpQjv3CAACwEEm7X+dAwBefLnwzjwCgABwkes/3ZdfABZOm1eI5x0BQAA4ydhfnMofAIsX3V2YZx0BQAC4Scm/T+QHgAd+Wlao5xwBQAB4yun97+cagIV/2lRSuCccAUAA+Epp5Qe5BOCBPXUFfboRAASAu/y1el9uAFgw7fbiAj/XCAACwGHGz6rel20AFqyeWYpnGgFAAHg1YP9HWQTg4N5r8BwjAAgAz5l89L5/ZAOAR7ZtKsOziwAgAAKk7lf/fD+jAFy3Z0kxnlYEAAEQ50Jg1ow/f5QJABYcPDQbl/0IAAIgXooX/Z+9u4+Ro6zjAB7lCmKvXGqvl6YSwdoWCNqmhrYqAcGiQjE0xaZYkSZQhIB/tGJFqX8IWFo1SE0aiASkL0KggrWRFEIlpcQEjfLHzOxsd3dmZPdmM7PT27fs3e3dbe/NvWtprr95Zvfp7Nsz6/f7/13yzMz3s/P2PFM7AOtmYzsCAAAQzFxUOwCfxFYEAAAAACAAAAAAAAQAAAAAAAAAAAAAAAAAAAAAAAAAAAAAAAAAAAAAAAAAAAAAAAAAAAAAAAAAAAAAAAAAAAAAACAAAAAAAAQAAAAAgAAAAAAAEAAAAAAAAgAAAABAAAAAAAAIAAAAAAABAAAAACAAAAAAAAQAAAAAgAAAAAAAEAAAAAAAAgAAAABAAAAAAAAIAAAAAAABAAAAACAAAAAAAAAAAAAAAAAAAAAAAAAAAAAAAAAAAAAAAAAAAAAAAAAAAAAAAAAAAAAAAAAAAAAAAAAAAAAAAAAAAAAAAAgAAAAAAAEAAAAAIAAAAAAAAAAAAAAAAAAAAAAAAAAAAAAAAAAAAAAAAAAAAAAAAAAAAAAAAAAAAAAAAAAAAAAAAAEAAAAAIAAAAAAABAAAAACAAAAAAAAQAAAAAAACAAAAAEAAAAAAAEhN6f7VPbUDsB3bEQAAgMCla8Pjf3mjOFI7AOof9r1/JbYnAAAAwcmiA8eeLk6lHgBM/f339+2Yh80KAACA+Onc8dJfC4VCsa4AlHPDKxf9CVsXAAAAkXPZhoffKEyn7gBMZf2NN2MbAwAAIHr7GwUADAAAAEDMdBx5+GnTLDQcgPJ/+dmzFwMAAAAABMqqpf8wp9IUAHT9i/es7QYAAAAACJHuDcceMc1mAlDO+ot6AAAAAAAtT+eBrea5NA8AXb9h8WoAAAAAQGvP/d97wTRbA0AymXxlRzcAAAAAoFVZ8s9HTLOFACSTl78/FwAAAADQirx7qUnTdACSyZ175wIAAAAAmp0F7vq3BIBkcv0DCwEAAAAAza1/1hQFgKT1f0cAAAAArczGS7NZkQCwrMvXAgAAAACakq73VmY5AZhoFgCWNWs1AAAAAKDh+fTyzdksFwCTiibXDoBm6FwAWFdf1wMAAAAAaGzW3JnNcgBQ1OXc4OBgHQBIDQwN2xYHAJZ1096FAAAAAIDGZf7ueLY6AKNJaar99QKgnPxYxqgOgKXsuQIAAAAA0Kg8szleFYCiLuXS6XSdAShnLG1UBUBR9l0MAAAAAGhENh6bOmYqAlCMalPtbwgA5ZTsZDUAlBW/BAAAAADU/+bfByvjVQAYVzLpj9MQAPL5gWG5CgCKsbgHAAAAAFDnn/+fnD1mvAAoROVcLt1oAPJ9fUMZqyIAinLT1wAAAAAAdb363xWvCEAhmcrlmgNAX19+2KgIgKLs6wIAAAAA1CudR+PxSgCMWplcrnkAlDMsVQRA2XMzAAAAAKA+ObK5txIAo+rZ+jcRgL6+klYJAGXb7d0AAAAAgNrTsfS53goAjBqpXK4FAPQlhuwKACjKhz0AAAAAgFoz//UZB4wLgFEllcm0CIBEYkyrAICy4g4AAAAAQG15d2uvNwDFqfq3EIBEoiR7A6BsexIAAAAAUEuWr+z1BkCfrn9LAUgkhg1PABTlui4AAAAAgN/M3k0OmJkATNqZjAAAJPpyiicAyqFvAwAAAAD8pfOdXk8ARtVMRgwAEom87QmAsmIOAAAAAMBPNm7t9QLA1O2UOADEYiXVCwDl/lcBAAAAABeeJZsdLwDGpVRKKABiiZwXAMa2NwEAAAAAF3yMXe94AGBaqZRoAMRiY6oHAIZxSzcAAADIBeWDXscDgBEtJSIAUycBHgAYt80GAAAAuYAsdRw2ANkzP/8CAlA+CZA9ADBe6wIALABeF36kHQCgFdnkeABQlFPiAhCLZTwAMD6c11b7514CQLZtAZhLdqfkE4BvoNQXoO6XHQ8AJjVbZAAikdMGGwDjs221VNgan2cACtmf7wg/0nlkd8qcAIQIAL9GrbnTvd9hA2Aati04AJG8zAZAPdROc4OW+TwDoAD8WPiR9vg8AwgTAB5Cr7n7/7bDBqAo2eIDEKGXAeeqsaeNBFhCAIhzAmAQAL4u/EhvJQDYnABECAC/QLF5z//P/f4TAEY0OwgAlC8DmAAY2w59vm120ok6AbBV+JHOqRMA69Bszv7vdpgAZJO2HRAAIkMqC4DyVUDb3AlcQADo5QRAJgDsEn6kXyUAZDgBiBEAtqPafNniMAEwVTs4AEQSEhMAdV27PA38ik8AJPpUR/gXJP5GAEj7BOA/qDZXNjlMAEzZDhIAkViKCYD62tz22E2rCAAOJwBalgCwSvSRPkkAGOQEoI8A8CC6zZPDDhOAUckOFgCRSJoJgHpfe7wVPPuj8wE4pXACYBIAlog+0hsJAMOcAAwQAG5BuTnyssMEYFzSggZAOHyaCYDaJgfCiwQAixOAAgHgZdEHeh8BoMQJwBgB4Cq0u3rW/JkJwGR5+wUPgHDJYAGgtsfcwIMEAJ0TgBECwFLRB3qIADDACcBpAsCbqHf1W8u7HBYAUS2YAITPPAygAKht8e3AJwgAUU4AJgkALwk+zo77CQAxTgCGCQA/Qr+r3lh6ymEBoGtBBSA8oLIA+FY7LBb8PAFgghMA/XwAnhP9TaBr6XudYU4A0gSAV1HwKuk87jAAiCe14AIwLYALAPWP1wZ/b+0nAIxwAqCQM4CVHWKPc617KgAfABkCwB1oeJVzrbcdBgBxSwsyAOG8ygBAfSj4LwRtIQAUOQGQ6fTuRWKP83YCQIoXAI0AcCUqXjmHGf13zvU/qACUBWAAoD7YEfTd9W8CQIETAC1OAHhG7HEudj8F5AJg5mzgaQC6UPGKOXKKBUBSCzoA4QGZAYAc+HvCnyIAxHkBKBIAviP2OHcSAMY4AYgQALAeSOVs/Hk/o/9RLfgAhPMy6y25xwK+w04QABxeACYIAGLfBaT3AJU+TgASBADMBaqYy473MwCISjUDoLYegNCAyijHJQH/YEgnAeDjVwGrAqATAK4X+uXoL9EFwSKcAIwRAH6IklfK0X4GAJNSrQCkrInaAbBrBSA0xPp1XBfwdUIfJQDonAAYdJHXZSKP8rfuycB8AJwmAHwXJa+Q5f0MAEak2gBIyxPF4kjtAKhGZqg2AEKnWeUI+LuhxwkAE5wASHECwOMij3IF4x4gFwBpAsBn0HLvLHqRAUBRrgmAnDpeLNYHgGg0aQ/VBEBomFWOKwK9035DABjnBEAbJQDcKfAgv0cXeh/iBcAmADyGmnum+4l+NwCFcweMHwAyydFisX4AlP9eK9UCQDjDKMfdgV4gaAsBwOQFIEq/8yDwjOC9lvtFYC4AZi4JOj3sW9Fzz2zqdwOQNWoAIGONFgr1BaAcqeQfgFDIZpTjtkBfthEAHF4AFArAAXEHOctyrQjKB0CMAHBXB3rulWX9bgDiiuQbgPKvf6HQAADKZwFD/gGISYxyBHmCyAkCwNnHANUBOHMTYAYA4i4N3nO15VoNhA+AMQIAngJ6pvMpBgC65BeAnDFd/0YAUP4vqQG/AITyqrscdwV4UsDCbxIAopwAnLkJMPNbj9eIOsZn6dceB3gBGCYA/B1F98rufjcAE5JfALSRQqFxAESj1qBfAEIlRjm2B/jM8AcEgBFeAKIUgN+JOsTfEwDUCC8AmfMBsPEQwCtr+t0AFGWfAKSihUJjAYhG1TGfAITSjHIE+CLgKAGgwAuASgEQ9esg/6IffE+FeQGQyBnAJ9B0duYedAMQVyV/ABhFs/EA6MlM3h8A4ZS7HJcE92MhhwkADi8A08uCzQQgu0DMEV5FASjxApCgAMxD1dnZcsoNgCL5AiA1aZrNAEDXjZIvAEJh2VUOKbiviN5LADizLCAPAJMUADEnBM3eSQAwYrwADBEA8GVQj3zulBuACdkXAGrRbBYAejKX9wPAyQE3AFJgV4q55iMCwCQvACoF4AUh5wOstQgAqTAvAIMEAMwEYKf7uBuAguwLgKhpNg8AXZcH/ABwctgNwN2BnSh+kABQ5AVgakrweQBk3xJxfLMoACVeAP6rEQAeQNeZ+ekpFwC9hh8A7HGzuQDoyWE/AJzUXAAEd5rIfgJAnBuAKAVgq4BPQ1ZbBAA1wgtARCIAg8Up0AAAHONJREFUzEHXWZn/qBsAXfYBgFowmw2Artt9PgCIyRQA6QtBfRngLQJAPzcAcpwAkN0g3vAWUwAy4f+xdy+8UVxXAIBpcG0aA3YF2OHVEAzEUQPiUUGCbBpHCVHSOoojIKkRCiWqWlKgtAiMCNC0ILVJ+sgDBAEVR0G4jdTWaUXbKH1EQKukKaCZ9Zh9wi4znV1s70OLsdde27jexWvvnnNm954lVRg09wfM3dmZ+819nHuuKACdAICKYquxU2VLGwJgQOYDEHCo6mcAgFuK8AG40IsAkMx6aNRpAEAyFEgIAFcfBODWWwmcVQkB6BQGAEwBSNbBoGS5qw0B4JXzAKBH/WwA0DzdfABaAggAyaQ7xQp2AAD6hAHQIQCh927NDoCemQ9YDAA4BSBZyQDIsg0DoPEBGBn+UwCcWff/BEDT42wALvhkBMCLJj0v8GUAwBVhAFwqBOCrt9gswPFKCEBMGAAnaP/Sg1ZjJ8q4NgRAn8wGQOpSDQE4s6tg7M0DcPb8oBEAmh5jA5BcCQBtw6SBop8AANo0YQAcEIDQc7dkB0BHQQACAMRB+z9khQERZfI7CACvhw2AFFWNAGieP/Rh/RQAuGPM6TlGAGhamA1Aix8BUGTOpcC7IAA9wgBIIQjA07dUN6hGhwB0tAoDELCmAETmkNsQAA6ZC4AC2v8oAL8dmwwu+VQAGDNm3wkjALQgF4BEBbBtmDRL+GYAQEgYANcgBOAm0wJMfnb51xp3f3769LMbvvLmr28242rBdARAuzAALXAE8B2rteNSvBkBEJW5ACiqagDAR1NvVAMBCOcGIEIAMKbg3/UGACQuyQNgaBAA24ZJuwA/AQBctQkDMNoFSAFwNP9dwTNr55RnRu3PePXBm+lR7NEhAEG7MADdEIBnreaOy8/bEAAeLgCyagBA88iyci0fgE4AwHAY55QVBgBoAS4ArbhtmPMjMQ4A0HZdGAD/dQhAaHGeX+uFGyphzF7iRMZFr+edhqtwPwIgIg5AGLT/h61sQLh8cTMCYEBmAoD6/8MAdB0bP1LPfABAIDcA3QCAR1LXWnCYBkALMgG40ItutciU80QlSwAAIXEA5BAEILQgr+Y/XYPz9alD2bc+nmeM1Ss6BCBgFwYAjQD+YDV3XLa3QQAuK0wAqPafAOBk+qLLLgCAnBuAGABgNH33xAPVJABaBxOAlgC6VXMuFW8DAFzVhQHw9yAAvsffE7SsIbEWYwCAx7Py3nzGVndrCICIOAD9EIDlVnNHZeJOBMB1mQeApKokAB8Uple0DwCg5wYgAABI38ixahMJgH6NB8CFdnSrz5iyC/AJAKCtRxyAVBdgFAD1JW4PZEWllhUARfklP/l6yWEEQNAuDkDYWgRkzACMABBSeAC4ukIUAF3zMgdc492ZAGi9uQBokQEAGVEcU0+QAOgxHgAXw+hWTTkLMBUCoIoD4B9EAPyANwiYNSP19xsDoCiv38kdAGgIgIg4AGgEcIfV3PHA7R0EgJsHgL8vRAFwdC+sqh4A4M8FQL8CAMicSipeQQJg6+cB4ES3+rApN4z8CABw1SYOwPBCQBoAavMURt0LyzURAJQNvE/wLg0B0GEXBwCtAXzXau/E7DEEQFVYAPh7QhQAT89GVa0DAOiRHAAEAADPwA/IqfsJAHRbJwuAizF4q+Z8UbYDANLGALmfpxsBoL4gXvX8arcYAMq7hYw7eqwcAeBxMgCAUUAV1giA+m5AANw8ABwhAoDo94kHfRAAkAgFygZAuwIAwHv1auoJAHSlnQWAXYIAbDTjatHSRwEAlxkAuKIIAFU4HOhUtVsUAGWjeObFaa9pCICYXRwAH+wAfNtq7qjMvQQBUBUWALYQBcD5aURdf4MADHUBsgCQStw5+ktq8TVP1xEA6C4fB4DhLkD6q2LKTYHbAAAJykUB8NswAKLTAMvTnkBOAOR3hYcWRzQEgORkAAB3Aks/tNo7Ki8jAHQWALJKAXCM/IIW1AMANFc2AEDOrqGf8DFx0bIGAgC9gwVAqwQB+I95xwBpj7OLAUByKTATALV5pki1E6pYAMhnBWdY9mgYgE67OABoCrCixGrvsKx5FAIQVVgAdIUIAL5u0IM+AAEYWbUnAIgoEAD6TKf7SgkA9F4OADe6ABmJo54y7Rgg/XHaGAAk5gEBAOo5gSazdL+bB4D8iNDd3H0/BiBsZwDQLwMAHrfaOyrfuAQB0FgAXA8RAIw1qu04AkCLGwHgUzwQgFr6qlNKCQBs7RwAkl2AjJflXjM+zbcgAD0MAPwaBkD9IGcUf8E6NxcAWSQcZ1bmukLyqrKdA0BAtlIB5Cp37oQAqAoHAFuIAOCAcX2lCABbjAYgInsgABVGE8hDAiAAdMnJAODiNQhA0TQTPs5vQgC8HgYA/gEMgJpzU8ApBx+Ah3LvECyr0zAA3RwAIuCJSmsnWw0erwFCANwcAOQoAcCxLDPoCxEAup7cvwMB6Jc9CADjj3JhAwZAj3EAcEIATBk0OnkzfJwODgCSigFQP8xe5cxNeQAgb8h1J5Om4weqd9g5AIThE7WSgQn0Gb2cFyYRAYQA+CjbClpBAwZAV/ohAM4AemVkuSLL+tGaOvy+JEPGRAHAr4sppwHRiC7Eep42AgB1XvaZegcJgNQR745EOuNhmQRAztEbn/QaIbri5ACASD/0mNXeYXPEs0bXOS+M24vfl3MTs1b5BAGArvv7nWkPNhJWiFdGzjoqP16OAZCcDADaIQAuM2YIx3O6rB6df5AAYH22cIDjDgIAWzgy8sfbu/0UABuzdsdLThBjutQKgCAAaFBnhQHj8nu4bnSZM2aUVAzAmVyLvOsoAIZ0D/dGEu3V133NlfpkZL4yv8oexbW3GgFgizEAwFNGpuwxvgUB4M3ppBZ1MsZ067P0ARoJAFztmfJ2S/hpZo21nHSCmNXVY04OAHha9wmrvaMewGYIwABn1njAiwA4OTtXnbOrSACoQWPmK5NrTP4GBsAWYQDQDQFYa8ZowHFkWIc4ACPTABnLOobzADOrEADJWd3MdmoPoqe5OkusZWEDta4bcLIAiMOF3YetKUBU5sLgcda6sc2LARA4VOZgfgDkXsN9BQPgYgBwAYaNSE+acxoQANDFi+vwUACoiw2aa5MDAmDrJRZ1WjtQD8B4TW72DCqyS/KxAMChXVYyQFyehwBEOZFjUQzAhyLdjjn5APDT3HtIJpYiAGxxcQAuxiAAfzXjM92OtnZovNBuBwWA+gU6IugwAiBOruq2hhEARnH5y/ZTsd2eiJMFAArurrjHau8GI4C0N2aQAYDDiwD4nVCnecphPgAr/yVw4QfKEQAKAwC0dcSUY4CSHRCAKA+AQA+5ueMcFRU8wQEBCBrFdfkhAAY783ZVUbu7buzwFgegFW3vetVq76gsgBkkrnjEAbixgTwDgKOC+7w+rucCsFVsUf6PCADbNXEA0OZR6XOmXAlE6R005vbuPgqAUPM+XNcBCEByG6ZBYCcAgJwGLHizmtrfrcedPADQBu9DX7baOypbIAB9jO2jPV4EgPCpsl8qZwKwR/DCjQgAj08cgO7bYgxw3xIIADO/Q8AVJRM8EIsBpRCAuM9wa0cMAkCMAQp3kxleUlnehAEY7gCk3ey3rOaO54t2QgDc4gAoIQTAMfGqazZxANhaK3rdKXUQAKMMchQAaPeYOXNIv41SPDIzPCWXAqgcjy+Mz6xpfDUAQPYZA9AqAQCK0L9bU0fneAs6mQDE0M1OsNq74QhgBACvRxyAAS8EoHk8o+7jdeIArGQE5S5EABjkkKUA+G/H7bAOMOY0AoCb4zGxx5tM8vrPzAQBex0AgFgWAFJdgNGf8RT4IDXRaZ71gI8JgBPdrHUgmPEawCgAfeIAKF4EwCpW5WtKRQFYVMOZ12zUxLLIkwB0SrfFUdJ/Qsc8DMrcNO90lufo+pfS90j9GACgt2cDwA4ByJwEmFVKH/QwmjNCGIAgutknreaOyz8gAJo4AAMIgPPM2oubKoUA+E0Z67Jl5WLnyJAAoFCAF035YB9AALDPeTA86CV6Jq0TcAQA4PJlAyAjwyPccV08tsrgpBdJ8Kyn0QfaiW7WigImylJ4nKzXIwyAgo6S+tlU9g9YdTg3AA/VcvNIHxQ7SY4EAI0BDplz8fhtCMDVHi4AATlKA9C1fvHI+t37AICO7ADEAABps4A1DUZnvY1+/4UBcMGbXW3NABDlzxCAAXEAehAA8/L4BRObqnIA0FjGvmhxAzpL1icMQOT2SCK3ZgkEgH3WYyCIBUgd9nryjeGo2hkAgHh2ADoBACP9q7JGt9Fpr652NgAx9PJauUCp8hcIgC4MgIxOkz2TXyL9sqZyYwC27t6XzzWfEzpNngbgImj/q026erQFARBlAxCUDI97j/79vWQ19QCA/uwA+AAAa2/82ElNVYbnvfvbfVwAnDJ8eVdbJwJTi4A7AABXPMIA4PPkf5Hvzygc20ADsGjFrDwv+T4EwGMXBQAdJVVkzsNkly6BAFxxsAEIuvqMAOjqOpcgYBMAIJIdgBYAQFHip5YcrHc4jAAIph0eJwpAEL28VgwAVeZeAgD0iQOgQgDO3UQ7KVh2oLQSADDjyML8927VoE5FXBgAdJikSUePzyMAvB42AEH/gCEA/2PvbnykKO84gF/jqbVHi1goXEFrISBpi0pFakDAckBstSFYSnKtILHWqqVShB4WUlLkLRqlhoJYaLGF2LQkCmk8JEVDadqYhjaZGwZ3b3fsvjG76+7OLMfu3t7L7m3v4Dhuf88zu8/N7MvzrL/vH7DZZ5/n99lnnnnmmVTqreP1TnsA7O//979uePkDALSkd+QAZIjBuwQ3AdLyNgTAyQyA2wMB2GLzy4xbvu/AmxuXjR+/bNKrb1y3aYW9T1sJAZCYATgPAXhSzN4d/TwEINw7cgBisT5zAFKp90cIwIcAgOCDe9c4naYAaD3ekQPgaCMG7x1Y7LS8CAC4JDMDkIIArCvVlyrNhHsbsayQYAXgQhAAIOr08QQBQDhgAYCQuwAAKbsAzHM6zQFQM14LAESJwXsjvg6MWmotAABdZQVA9UEAHuOscSchAAYzAPCZ4IWi9u8CAgCPBQBiMSVVPgCcBQCQ4l4LACTIwftLLHZa/nERANDFDEAfBOB93lbKlkMAFAcrAPCZYJeoJ0lOJQAIZ60AEHNlqwGA4fVaAMAhEYN3cz0WO3WKCAEIsAIg6RCATdz9/W2ENxa6WQGADwS5hH2dXCsBQNhtBYCY4a44AHJPxBIABjF4v/cprHVq/gAACMusAGg+AMAx/g5bOwMBCLECcAEcCuA6JWoPNx4lAPCplgAwBi8DKgaAlIhYAiBDDl68BWiSwwAAv8oKQBYCcJq/1o0aDwBQ21kBAIsArs3CdvHPCQAGtgNZAcAI9lUQAC0aiVgCwNtGDN4bv4ClTr9NtBgAkGUFQPIAAJ6bzWH7DsC9Rd2sAIAnAveHGkTt4/qtBADhnDUADEPtqBQAA3//lgA4FyIH70+w1E2WiC4CAJysAMg+AMBNPLZvGwQgxAoA2AngEvI1wYMLvfcQAIRliwAYIWdFANDSkYhFANLk4N2AK4AmeQUAcElmBaAPArCbx/YNLAPmATB4H6A4AGAngEvcVcC6umYSAI9iEQDDULJlB8AdTESsAtBJDt4puAfQLM8CADwqKwA6AOAdPt+i+xB8vKCTFYAoAEDgV0o2PEoAEE61WQWg/zogVV4AlJ5IxCoAVxcAhg/eF7DQzbIeANDBCoDqAwAc4rOBRyAAUVYAugEAZ8Xt5fqpJADhPssARKMxd6p8AGjJeNwyAA6XQgzepfguINO0AACyrAC4IQDHOW3hRgCAxApABACwUOR+biYBCLutA3CVgDIAIEcTcRsAxFQCgCm3Y52bpfEiAMDJCkAvAOAgr8ruBQBcORaEAQAHACAo8l7ysVtJADyyDQCi0ZCzDADIxkD5WwcgrZIA3IJ1bprHIAAaIwCSDgB4htcmboEAdDIC8BEAwCX0gZKTjxIAhHXVDgD9BGi9pQVAjV4pf8sAZFQSADwGqPBNgDwAwiojAJeXAIYDsJvXJjaMBwAkGQG4EAMAzBG6q0+QAIQ77AEQjRpytnQAKOn4UKwBEFdIAH6P7wIskB8CAHRWANwQgFHctnElACDICkAaACD4a2VbSQCu3AqwAUAymQy6e0sBQCDYnUjYBMCrqCQAv8AqL5B3AQApVgCyAID/8tvGfQAAlRWADFgDOCV2X4/bQQIQ7rINQDJpqHYBcLelOxMJuwC0u1QSADwFpGC2AgCyrAD4AQC/4reN2wAAl08FYQEgAmYAZwXv7NvuIQEI5+wDkEzaBSAxGFsAnA+qJABLG7DIC6UFAJBjBEDyAQC28NtGYhGghxGAdjADeFr03j5BASDsrBUAQioJwA/wGaCCGX0RAOBmBEAGAHC8BFBXd1ImtwKxAHAOzACmCL+hfBcFgLC7JgBwxFQSgCV4CEDhTIAAaIwAOPMB0B/huJH1eymrgCwAXHDlA+AS/u9kzFYKAL5ADQDguPr/nwcA7gAokiYAwCWVEYA+MAM4xHMrZwAAFFYAQgAA8V8s1biTIoBHEx4AhyFTAJiFFV7kv/HTAAAfKwC9AIA9PDfzX3AVsJ0RgCQAoAbuKDXRpgBDAogKQH/9UwCY+Dks8SJ5BQCgswKgAwCauJ74TgcARBgBSAMA5tRAl5+gAODzBIQGwBGTKQDMbMQCLzYDeBsA4GcEYPAmwLU1gBu4bucycjMwEwA9+QAEa+KSspkCwFUBBAUgJFMAeABfBFg8zwIAUowAKACAg3w383oAQJoRgAyYATxVE+q3UgDw+dziAhCSKQAswR2ADGm1CIAMAFjHdzNfIp8GYAIgAQA4VROd3rCeBoDPKSgA7UGZBgAeAsiS3wIAsowAuAEAH/DdzIcAAAYjABEAQI0cLT1uLQ0AX5ckIgBeSaYB8F0sbpZsBQB0MQKQAwA8zHczzwAAQowAePMB2H+2Rrp9xQ4aAL5eAQFIKDINgEV4CChTHgUA5BgB6AMA7OG7mZvInUBMADjADGBDrfT7fatoAPg62kQDoFuRaQDMwvpny2EAgJMRgCwAYDffzfymTJwKxgTAeQDA0prp+AktNAB8fkUsANLDH/K8NnZ/jGcAMuanFgHoBQA08d3MI+RWQCYAzgEANtdOz/99Jw0Aj18TCIB2Q6YC8OcvYmUz5nmLAKQAAO9xfs1LnghgBQDxHwcclqlHaQB4PDmXKAB4XTIVgP+MxsJmTYtFADoAAJy/OvtWuBeYEYAPwQyglgCoOz6XCoAnK4kBQEaVqQBcPwrrmjm/AwAEGAHwAwA4Py93HATAwQbAR+AuwMKa6vw7j1IB8HQoIgCQhn2K9W8hiwEAbmsA6JxPusaUBgBXbQFQd9tOKgAePcA9AJGQTAfg8TFY1SPI/0ozA9A5X3X5DPk4IBMAFwAAX6mx7p+wigrAwGUA3wB0KjIdgG/hCWAjykWLAOgAgLEIgJC5bwcdAI9f5RgAryHLdABm4f2/qgDgr0MAxMyKtXQAPHouyCsACUUzAWA+7v9BABCAka2PrjcBQO9QuATAm5Q1OgA/exILGgFAAEaYhlYTAHS9z8UfABlF0+gAPPFtrGcEAAEYceqbzQDQO2TOAPAammYCwMxvYDkjAAiAlZx4zQQAXe+SeAKgR9XMAPjLg1jNCAACYC1NO80A0P1ObgDolDTNDIDHP4/FjAAgAFYze4EZALqekrkAIG5omhkA6h24/I8AIAA2MmaXKQB+f1aqOgCRpBYImAHwAC7/IQAIgM3cNdcUAL+/T6oqAJG02v+hZgBMuh0LGQFAAOxm6ipzAK4QUCUABsvfDIBZ+PQvAoAAlCDjWgsA4PfnXFUBIJ5WAgFzAJ7A3T8IAAJQqsuAewsAMDALqDwASTUQKADAxK9iESMACECpsmJdIQD8/i41VkkAEoZ2+eNMAZiPD/8hAAhACTO2+bVCAPj9vQMEVAaATDAw+HEmAMz8ElYwAoAAlDZ3ri0IgN+fykkVACAeVdxDH0cHYBFu/kEAEICSp2Ha3IIA9Ccrx8oLQLdLc7sLA/BrfPcfAoAAlCUTFhQBoKMj1afGygVAd0y++lGmAEyfjzf/EAAEoEyp/+O9RQDoTyqnGKUHIBNVh32UGQATP4u1iwAgAOVL47tFAehPb06JlRCAznRIdeZ9FB2A7d/Bk78QAASgvJm6rjgA/dOAVFdAKgkAmWib23kt5gBMP/BlLFwEAAEo+3XAXatYAOhPb84uAFFJc+bHFICTR7BsEQAEoBIZ9fBcJgBSKbsAOImYADDpbixaBAABqNhSwNfn8gTAzDN48Y8AIACVzIpdz/ECwPYX8K2/CAACUOlMPqTzAMD23+BLvxAABKAamfDMy9UGYNk+3PiDACAA1cqtpw9WE4CJM/DaHwFAAKqZ0Xv+WS0A3rwbj/xEABCAaqdh91urKw/Amvl43x8BQAD4SOO0Y5UF4NUzeOmPACAA/GTslg9WVwqANQfwzx8BQAB4y+w961aXH4D7V27C474QAASAz0uBIQPKA8D9K2fg1B8BQAA4zuRplw0oAwDff2MOVj8CgABwn9HLDx0rMQDzbt67BW/5IwAIgCCpf2/a394pFQCvv/TXG/AnRQAQANGuBv59yC4A826evwmLHwFAAASNXQDwOR8EAAH4BAOAvyACgAAgABgEAAFAADAIAAKAAGDKn8UWAfDkA/Ay7wB8rTQALMQRQ888WwC4puAvWKW0AAC62ABQffkAHOS9neMBAJ1sAHgBAE/jiKFnDQCgpzAAETADuBF/wSrlMADAIzMBkAUAPMJ7OycBAIJsACTzAQhuwBFDz+sAgLbCABgAAIS1WnkRAPBxSmYAwO0DANzEeztXwkWAJAsAGQnMABbhiDH5fQEAgVghALoVAMCP8BesUpohAB97nHIRALSh//8hAE7z3s4/QQDkWPx8EQC8w///r8wAbsERY/L7QgACUrfXBIB4TAEAuJ7CX7BKaSIA+H97d8zSVhQGYHgphAwNuDTqoIEoBOxkhwSiMU3REgQNOpg2oZNQBwkOJXeoFKGSUp1cDEkVhE5ZlM4JIkKgY4dOxR9QBxd/gYsObW5u7jnn4jkH3ucfnI+Pl3uP5Hrv9sFfFz0BSJp+zk89Abi66rnu+O3ysPPvE0CMjXE33hOAh//k5zb1/wPwa4kJajJ0FEQAvhn/A65INIgA5Pg4Zb892lQJQIgfAGpzEkQAps0/514QAVhlX/ppqgSgzfy0GQsgADcWfLotGUAA6q/Zl366CgH4U2B++jTUAxC24Zzb6gH4wbZ4zFc+AO+ZnkbD86oBSF/acM5OQjUAcR4APHyflQ1APMb0dKqoBmDHjnNmVAPA36q85ysbAG5W9Bo6VwvAnCVfb444agH4wFW19x45cgFY5uvfmqWqKgE4G7HlnLFdlQCUnrEp3i43ZQJQ4sVKu8kj6QDc1C7sOefLdfkAhHhRHSg5Ix6AtSJzM6AAVdkAvOtYtaG7sgHIFdiSwT6/FQ1A6SlTM+ItoCwXgLkRu84Zc+QCsMxzqh9PfjpiAWCuxtzgVK7FA5Dese7+JpJJiAcgvsr9n989ysz6D8DCAfd/5rhoCAbgMJyy8ZzFbcEA1PNTbIfIfH0GYCvPtYpZxr5U/QegVhm29ZzdZtZ/AEJt3v6F5xsdHIDjfeZqntFXb76Wqy+8A5CurYRPJ61+KB4dP5hoZRe8AxA//pjfWOLhX2q+ixNO9Ll7ANazrfwic7X9uocRAAAAAAAAAAAAAAAAAAAAAAAAAAAAAAAAAAAAAAAAAAAAAAAAAAAAAAAAAAAAAAAezx0DLe/DXy5dfAAAAABJRU5ErkJggg==;imageBorder=#0000FF;strokeWidth=3;" parent="4pgbnnCEekSiCqALWcIx-4" vertex="1">
          <mxGeometry x="160" y="92.86" width="70.54" height="70.54" as="geometry" />
        </mxCell>
        <mxCell id="4pgbnnCEekSiCqALWcIx-14" value="&lt;font style=&quot;font-size: 16px;&quot;&gt;Microservice&amp;nbsp; chain deployment&lt;/font&gt;" style="text;html=1;strokeColor=none;fillColor=none;align=center;verticalAlign=middle;whiteSpace=wrap;rounded=0;" parent="4pgbnnCEekSiCqALWcIx-4" vertex="1">
          <mxGeometry x="165.26999999999998" y="176.99999999999997" width="60" height="30" as="geometry" />
        </mxCell>
        <mxCell id="4pgbnnCEekSiCqALWcIx-23" style="edgeStyle=orthogonalEdgeStyle;rounded=0;orthogonalLoop=1;jettySize=auto;html=1;entryX=0.5;entryY=1;entryDx=0;entryDy=0;fillColor=#dae8fc;strokeColor=#6c8ebf;strokeWidth=3;" parent="1" source="Ig7GfmeTVwYkc1D9pHod-2" target="4pgbnnCEekSiCqALWcIx-12" edge="1">
          <mxGeometry relative="1" as="geometry">
            <Array as="points">
              <mxPoint x="423" y="610" />
              <mxPoint x="497" y="610" />
            </Array>
          </mxGeometry>
        </mxCell>
        <mxCell id="4pgbnnCEekSiCqALWcIx-27" value="&lt;b&gt;&lt;font style=&quot;font-size: 16px;&quot;&gt;1&lt;/font&gt;&lt;/b&gt;" style="ellipse;whiteSpace=wrap;html=1;aspect=fixed;strokeWidth=2;fontFamily=Tahoma;spacingBottom=4;spacingRight=2;strokeColor=#b85450;fillColor=#f8cecc;" parent="1" vertex="1">
          <mxGeometry x="200" y="740" width="40" height="40" as="geometry" />
        </mxCell>
        <mxCell id="4pgbnnCEekSiCqALWcIx-28" value="&lt;b&gt;&lt;font style=&quot;font-size: 16px;&quot;&gt;4&lt;/font&gt;&lt;/b&gt;" style="ellipse;whiteSpace=wrap;html=1;aspect=fixed;strokeWidth=2;fontFamily=Tahoma;spacingBottom=4;spacingRight=2;strokeColor=#6c8ebf;fillColor=#dae8fc;" parent="1" vertex="1">
          <mxGeometry x="200" y="680" width="40" height="40" as="geometry" />
        </mxCell>
        <mxCell id="4pgbnnCEekSiCqALWcIx-30" value="&lt;b&gt;&lt;font style=&quot;font-size: 16px;&quot;&gt;2&lt;/font&gt;&lt;/b&gt;" style="ellipse;whiteSpace=wrap;html=1;aspect=fixed;strokeWidth=2;fontFamily=Tahoma;spacingBottom=4;spacingRight=2;strokeColor=#6c8ebf;fillColor=#dae8fc;" parent="1" vertex="1">
          <mxGeometry x="545" y="735" width="40" height="40" as="geometry" />
        </mxCell>
        <mxCell id="4pgbnnCEekSiCqALWcIx-31" value="&lt;b&gt;&lt;font style=&quot;font-size: 16px;&quot;&gt;3&lt;/font&gt;&lt;/b&gt;" style="ellipse;whiteSpace=wrap;html=1;aspect=fixed;strokeWidth=2;fontFamily=Tahoma;spacingBottom=4;spacingRight=2;strokeColor=#6c8ebf;fillColor=#dae8fc;" parent="1" vertex="1">
          <mxGeometry x="430" y="630" width="40" height="40" as="geometry" />
        </mxCell>
        <mxCell id="4pgbnnCEekSiCqALWcIx-32" value="&lt;b&gt;&lt;font style=&quot;font-size: 16px;&quot;&gt;5&lt;/font&gt;&lt;/b&gt;" style="ellipse;whiteSpace=wrap;html=1;aspect=fixed;strokeWidth=3;fontFamily=Tahoma;spacingBottom=4;spacingRight=2;strokeColor=#d6b656;fillColor=#fff2cc;" parent="1" vertex="1">
          <mxGeometry x="90" y="480" width="40" height="40" as="geometry" />
        </mxCell>
        <mxCell id="J3e70sRWHpcorDMng9y1-1" value="" style="group" parent="1" vertex="1" connectable="0">
          <mxGeometry y="266.46" width="360" height="270" as="geometry" />
        </mxCell>
        <mxCell id="J3e70sRWHpcorDMng9y1-2" value="" style="rounded=1;whiteSpace=wrap;html=1;fontSize=18;" parent="J3e70sRWHpcorDMng9y1-1" vertex="1">
          <mxGeometry x="-5" y="-140" width="360" height="403.54" as="geometry" />
        </mxCell>
        <mxCell id="J3e70sRWHpcorDMng9y1-6" value="&lt;font style=&quot;font-size: 18px;&quot;&gt;Distributed agent&lt;br&gt;&lt;/font&gt;" style="ellipse;whiteSpace=wrap;html=1;fontSize=18;strokeColor=#0000FF;strokeWidth=6;" parent="J3e70sRWHpcorDMng9y1-1" vertex="1">
          <mxGeometry x="13" y="90" width="107" height="77.77" as="geometry" />
        </mxCell>
        <mxCell id="J3e70sRWHpcorDMng9y1-7" value="" style="shape=image;aspect=fixed;image=data:image/png,iVBORw0KGgoAAAANSUhEUgAABAAAAAQACAMAAABIw9uxAAAAGXRFWHRTb2Z0d2FyZQB3d3cuaW5rc2NhcGUub3Jnm+48GgAAAAlwSFlzAAB2HAAAdhwBp8J46gAAAwBQTFRFR3BMqKiopKSknJycu7u7oKCgn5+fpKSkj4+Pk5OTSEhIkJCQmZmZqKionZ2dqampnJycjIyMpqamp6enkZGRlpaWpaWlnZ2dkZGRnJycnZ2doKCgnp6elZWVlJSUoaGhoqKip6enl5eXpKSknp6ekJCQlJSUpaWlnp6ekpKSp6enpqamnp6en5+fk5OTkpKSn5+foKCglJSUjY2NoqKikpKSlJSUn5+fkJCQpaWlpaWlkZGRnJycnJycn5+fkpKSoKCgn5+fpqamkJCQpKSkjIyMoqKiq6uro6Ojo6Ojo6OjoaGhlJSUoaGhpqampaWlp6ennZ2dk5OTp6enl5eXo6OjkpKSo6OjpKSkkJCQnJycpKSkjY2NnJyckZGRk5OTlJSUj4+PoqKijo6OoKCgpqampaWlpaWlpqampaWllJSUp6enm5ubjY2Nj4+PkZGRoKCglJSUk5OTjo6OpaWlj4+PjIyMnZ2djY2Np6ennZ2dpaWlnp6eoqKim5ubpaWllZWVjY2NoqKimZmZnp6ekJCQkJCQkJCQpKSkjY2Nn5+fo6OjlJSUj4+PlJSUoaGhnp6eoqKil5eXn5+fnZ2dnp6ekJCQpKSknJycjY2Nnp6ek5OTjIyMoqKilZWVnp6ejo6OlZWVjY2Nn5+fkpKSnZ2dnZ2dp6enoaGhoaGhj4+PkpKSlZWVlZWVjo6OlZWVlpaWpaWloKCgpqamlZWVj4+Pj4+Pj4+Pnp6ekZGRlZWVp6enmpqalZWVjo6OlZWVj4+Pnp6elJSUlZWVk5OTnp6ek5OTlpaWn5+fmZmZj4+Pp6enoqKilpaWl5eXmJiYo6OjoqKin5+fuLi4oaGht7e3ubm5tra2m5ubtbW1pKSknJycoKCgurq6jIyMkZGRtLS0kJCQk5OTnZ2du7u7np6epaWlpqamj4+PjY2Ns7Ozqampp6enkpKSqKiosrKyi4uLlJSUjo6OsbGxqqqqlZWVsLCwq6urmJiYrq6ura2tlpaWr6+vl5eXmZmZmpqa4Tww6AAAANB0Uk5TAEbBiAHLGO9duAMGETsLDdQKchIEFR3yMyII1d8cO0svGCj4t0CEl/0Z7in5a0ZqV+mf+a/2HkAsU2H6+Pye0/NG6Eym/fsiJbZcjJd4QdAy5tqPV/4l9DaP6+jbvutT/la+l/i0e7qH3a9r8uaf4P3N/cnJfPDa7E1g1sJvTmaR0YE+7ubxpeK6qp/5dF/k0ZB7hZZ9/f3iwabw9e6mr6pz4DNly5BXxdr1vfbHh+lOq2aA8LButcbCwKA42deMOHMv4OQ7e7QraoHDzNGu+AxSQpgAACAASURBVHja7N19kBP1Hcdxh54gBUVKUQ4QFBS5QosURBB5qpUWZTpCQUB5GB5sp1Bqqc9FtFDvqqP2aCtQB0cGsYpiZ5x2RmQ6tva5+ld2b0Mum3B5YpNwl0u45+OeaO6O3MM3u5tfNrnb3+583v/DzO+3v9/rNpvdzVVXIYQQQgghhBBCCCGEEEIIIYQQQgghhBBCCCGEEEIIIYQQQgghhBBCCCGEEEIIIYQQQgghhBBCCCGEEEIIIYQQQgghhBBCCCGEEEIIIYQQQsiCjZ4ybpJu46ZcZ4txzjhxrW7rZ4zCashlHZ3AvFqt+U++XHyhu9pUUZWKT30xzsrjvPkH20q9PUk9Cakc3T0y5MCDWBUG5vfQplWhkNKV2K/uGX9kG+aVv0Z8vL/iQk+6AASSLTk+3qLj3HewdynqA9DZ3q+Mx9rIan6/fjDUlTYAnXO9dx/mlave2V1RkQ0AgUDxrAILjvOF0r5LMTMAyfOAXQVYHsz9aZUnxAKAJM3GvPLTvMcrKrIFIBDYU2i1cRae7L8UWQBwOJ74LlYI4/x+4vGwAiAJmFdeuvepCiMABEq2WGuck5eKRgCQh72HNcLS8y96sgFAWLcAc8bF6f99FcYACCycZanT05miIQAcjiO7sEoY5neRJzsAhOWYVw66JrX/swfA57OQAPdPF40C4JCxUjPPb7knWwAEAfNq/vn/nIocAFh4r2XO/2eKxgFwHHkWK0W/ZYuMALAc82pyRc9U5AKAb/M8a4zzltliLgCs/doNWCt6DX243AgAwjDMq7m9fDE3AHynrDHOW8WcAHDIP8Ra0Z3fcmMAODCvprb1Yq4A+CzxVcACMVcAZHwVoNMd5UYBcOCrADPbnzsAS6xwQ8eE3AHYixtXtLveOACYVxPbcjF3AKxwCkBPAIwAIONPlfb8lhsHAKcAJnY6HwAM53+cK/IBwKNYL3pXAAwDsALzZ1Yj5+QDgIUjeR/nmJl5ACA8dQxWjMY6uicXADCvZl4CpADUdu3q6lTBnmq6CwbSAPCt4f4SlZgGgCSHu4v0FEsVTxZJPwPAZUDdS4D9AVCknmlLFu5JltIAcGBezWo7BaC2Vez/Z1FI+7ModfgoACt5H+fitP3f5Cy70tmezqU639m5tjQAbseKUa3gdQqAEq90d+Xqztld53w7mwQKAObVrN4gANSW0/NiQeW8WPERAM7wPs7n6P6vKyvLBMD5834KwBCsGI35JQAol/x+LQDKyhICAQDzala7CQCtXhYA5A4CwGO8j7OUAFDvZAHgfAsB4CWsGPV+TwCI+/UAONtEACjFDJrUmwQADxsAEgGghPdx3kgAqGQDwEkAGIYVo96PCQCN+gC4CQDrMIMmdR8BQGQDwEEAWMj7OKcTAFxsAJwjABzBilFvEQGgUh+Asv4ArF2LGTSpiwQALxsAMgHAx/s46TVAJxsA5wkAMlaMeuUEAL8+AGfJGYADMwgAAAAAQAAAAAAABAAAgHUa+fzfcgXg4U1fWjYCMwkAAIDFGvr5W582NDTkCkDnP77nk3eXfRUzCgAAgEUq+Pe0PQ3d5QOALgQ2/b0QEwsAAAD/5/2f//doTU1NngHo/D+uf/cuvCAAAAAAjhu9ZueH3Y+G5R+AzlYtXgYDAAAA4Hz3DxgA3QZgqgEAAOCt2976sOfJ8IEEIPn/PH0I7wkAAACApw/+xz/t+2qIAQbA45l562R8FAAAAICPvrHz1f7vhhlwAJJNPDQU2xQAAACzK1izJ/iz4OADkDwNOHYzNioAAABmNur4P4PBtLfDDQ4AodD0TbggCAAAgGnN+8XRYNBEAJL94Q5cDAAAAMCMila+GgyaDUAo9PTPQQAAAACD3dgNdwaDPAAQCk24GxsWAACAwWzktKPVQV4ACCkHJ2PLAgAAMFiN+O3Rfr8MYToAinLyBDYtAAAAg9JHq8lPw2gC0J4rABHJwwaAMv3YLdi2AAAADHjzT6X9NpQqAK0eIV6fKwB1dY1NEZEFAEW58QBeHQIAAMAAX/tbubCaAYAOMVxVnyx3ADprq3eEMgOgKBPxc8IAAAAMZGs2V1dnBKBZjHTt/rwBUFeXSLRElIwAKMq2G7B3AQAAGKDmDe/z67AaAHTu/mR5ByCRqGuJhDIBIC7dh7sCAAAAGIgKZpX4MgDQGura/QMDQKcB9UIGAETx6v9h+wIAAJD3pvzR59MHoNlb1dPAAJCsMS7qAyDu+B1eIQoAAECem3WnTxeAmlA4Hh8EACorE00OXQBE8eAM7GAAAADyWNGp1BFVB6BVicXjgwRAsrawogeAuHQftjAAAAB566PNPj0Amr1d23/wAKisbIwrOgCI4gq8LgQAAID8NHr7YZ8OAO1SPNXgAZCsXtQBQCzF4wEAAADko/mre49nOgDtQixmDgB+f+osQA0A8acP4AtBAAAAcm5rSUAbgFZvLGYeAP7KKkUTAFHchpcHAwAAkFsF0w4HNAFo6Nr+JgLg9ydiiiYAYul67GQAAAByaOyZ/sezLwA1oUjMdAD8/sawJgDiDnwbAAAAgPE+Kw5oAtARjsV4AMDvb5G0ABDFxbgpCAAAAINtKQloAdAqRGK8AOD3N4laAIgncSEAAGh/wgUAOn18OKABQNATjnAEgNudCGsBIL7/HWxnAKDReLJYvACgF8cN0YAGAO1yJMIXAG73Ja8GAOLsa7GfcwZAZATARxYM55/AxpC1IjECcI4AcMR+K2D8zqgGAEElEuEPALc/pgGAd+l72NDZNsfgGQAFYDTfwxxqEAB6BjDVdgugaH9UA4BmOcIlAG53m1cdAO9yfBmQbU/l6QxgLN/DLCRrRTB4BjDMbsf/ptVRdQCqr/z55xEAd2VYHQCv9wFs6ex6hgCgMAJQTRZMEd/DXG8QgDKbA1D4dlQdgAYpwjEAbneLVx0A7+3Y01m12yAAQbJgHuJ7mJPJWpEZAThLAPiWvY7+Q8VRdQAuy2G+AXAlZHUAvK/gyYBsejtPAPyS72HeT9ZK2OAZwEu2Ovj/uLL/KQBBbzjMOwAud5U6AN5vQ4As2kgA8DAC0EAA2ML3MPeRtRJnBMBJAPiRnY79pJKoKgANQtgCALhc9GNAaunOxU2B7P3VIACtBIB3+B7mbwgAVYwAuAgAe2106OdvjqoC0BwOWwMAV0JQBcA7F+cAzD1OAChnBKCZAPAfvod5jADQxAiAmwDwhC33f18AqsvDlgHA5Y+oAiC9go3N2mkCQAcjAJcJACv5HubVBIBLjABUEgAetc/1/+KoGgBdH/8tA0D/CwF97mHBdwGs/YoA0MwIgIcAcIrvYc4mANQxAlBHAPiLXY570WNRNQCCQthSALhcTaoASLgfgLENBIBWRgAUAsASrkc5il4w9jMC0EYA+L5d9v/GqBoANb373yoAuBolNQCkA9jbTD1JAGhgBMBLACjhepR3UQBcjAC0EAD+bI+jft3+qBoA7Q7ZegA4E5IaANIL2NwszSIABBkBkOmto4U8j3Jf+o2AbAA0EQB22eKgF5yOqgHQnBygBQFw+gU1AJY/i93N0FYCgI8VgGoCANc3AiwmAERYAagiANjjcbOfRNUAuCxbFACnX1YBQFr6ILZ35m4jAERZAWglAEzjeZQH078FZAMgQgD4nh2O+WtRNQDKZcsC4HTJKgBIpfgJ8czdRAC4wApABwFgOMeDHDEz/VtAJgD6PgzYBYAdltTWqBoAHtnCADhdYRUApAmjsMEzfhx8kwDgYQTAQwD4l5WuAVYyAnCWADDVBreYTfpABQDflf1vVQCczogKANIK3BKYsY0EgHJGALz0BRLz+B3jAfo6EBcjAG4CgA0eBRhbHFUBILX/rQuAK6ICAG4HyNwbBIBmRgCuvBKkF4Bf8zvG59IfBmYDIEEAGGL5w/3lMyr7P9qz/60LgNMlqwAgLMAOz3RFmADQwApAAwHgm/xeAtiR/igQGwBtBADr3wi4vVZl/1+WbQCA0xVWAWDdDGxx/b4gAFSzAtBBAFjN7RCX0TfINbIC0EQAsPx9QNfUqgDQ4bAFAL3nAH0AEN7HhcAMS4IAEGUFIERfIsntrUCvUwDcrADECQB3W/xgz/9ABYB2h00AKHM70gEQ5mKP6/YZASD1TqCMAAgUgNd4HeLE/7N3/zFSXHUAwLf2StUjVDyg/Aw/jlZI0TYFioW7tkoBI6Kp6UmFM7Zaq8UGU4mladBWQwJaG6k0KVCQWgRb0gJirI22VtT4o4nJzO7sz5nrLjOZWfaOvc0utz9u75d73PW4/X7fzL7v7B3uXOb7/+7s5L332ffj+94DAAh+TgDaIgAAhx88P6U1gwHoEaoHoEOoFgDdKFYPgC8mYgDETW4jt4rZ6wAAIU4Ahk4FGwVArW4IPAZPke/gBWD0eUCDL/3iFGeX9Z4MBkAVqgagUylkqwWg9Fk93lstAL6UhAFY714dbBmtAIACLwAFAMCaybX5ghshADleANoBAA5fBXwogwFIStUCEAllSzEGAJQ+LRSrBMCXwwCIr01xW7lF/AEAkOYFQIc3ydTosWBzAQBKkBeAHADA2ceBLH0SAxBVhKoA6JT6s9kxA6AUUr46AHx5DIDoHg9iFacAAFFeAIQoAKA2xwCr4EVShp8XgDwAwNGnAdQdzCAAzutCVQB4+9LZsQUgFFLyVQHg68AAuNkAlh1DAECGF4DLmQCjAVhTk9cD3QUByHMDEAcAOHoR4AcZDEBIqAKATqkvnR57AEoEdFUDgD+OATjibgsyj1kAgOFZQA4AZHibbC2eDDp1NwQgzAuATwAALHBwMc9cjgHoE+wD0KkMNv9xAaA0ECjaB8AXFBEA4rfddm4eTwAAengBECEAtZgL9EN4mbTh5wWgHQDQ6ODz5ut2ZBAAadE+AEIhnR4/AEIhMWcbAF9KxJV3tdvOTeMgACDJC8DgGKD8PvlP1d7bzYEA5LkBKAIAnHwm+D8zCIDzkmAXACOUTo8vACGt0zYAvm5ceY8sdBu6+SxgOQAZbgBkCMC2mpwCLAcgzA1AJwDAwZPJs05iADTBJgAX9XR63AEIyd6iXQACHbjy/s5t6GaxFgAwdCQADwBiFACwpubSgRdDAOJ+XgDK8wBLL+3g88AOZhAABdEmAJE+Vb0aAMiykbIJgC+CKm+Le0SgWdywDgBQ4AUg0gMASNba/SALlkAAurkBCAoAAOf2Im9NIABUySYAsqpeLQBkb94eAIF2EVXeve6uILP4CwAgyQ2ADgFYWWMrgT/TAQBSkBuAXgCAc/MAlz6BADiviLYAGPz7v3oAyHLcHgCBIq68bjqQWWwHAGS8vAAISQBA8t2aerNbmiEAHX5uAMAUgODcUeSeBAIgJNoCwJtWry4AstJrCwBfHFXe9Qvcps6O3wAALmcCcAEQGYAA1FYXYIUOAWjnBqANtH/h404t35kJBEBWtAOAMaCqVxsAWeuwA0BgKBugrPJ+yG3q7LgDApDlBkBMAgCSz1T5Y+qOrd5/9BvXzZlz3asrnv/kqqnVfNcDSyAAhp8bgHYIgGP/QHYgAKKKHQCEHvX/AIAsG+02AAj04sr7W7ets6MVAHCeG4BIAQKwcl4VP2TGpsW7y9P2Hn514zHbX7dLhwB08wMAsgCErU4t3Q8nEAAh0QYASlodPwAGLADQxJQNAAIXUeXdO9tt68z4JgBg8FAQTgBECEDyZbu/YvbZXUvgov3ls57nPDLJ1hf+SIcAiGF+AOIAgHsdWrhTX0EAZEU6AHFZVc0B+Ee1APz7UJM5AJq31wYAg4MAUHl/77Z1ZqyFABS4ATB6IADJm2z9hhs23YcG7CPXvTz87Ab6N9bPRQAUg9wA+OEI4PMOLdxTCQjAeYUOQLxfNQfgv09NqxYAj2fStY+ZAqDpeToAgW5UeTe7+YDspnIYABDlB0BBADxu4zaGunO7S6VsCoCirP8EeRl3vwYBkML8AMBFwBcbHLoEeBgBMCCSATD6VFMA3rm/VODVA+DxNJQRUAaApnXRAfDFUeX9s9vYmfFTAEBpDMALwEgXYAQA9dfk57+9b7CMrQCQpF8Q/4I/twwBkA/yAwAWAVu+5NThXQICoIpkACI9qhkAf//PZe/HAoASASeazADQLpIBCIRFWHkbN7iNnRXPQQD6+AFQEAAriZcE1W1aplUGQJJWUDoBdbs0CIAU5AfAB0cA33FoB+AkAkAnA4Da/wgAr787vEwzNgB4PLOOyiYAaHEyAIE8qrz3uo2dFV+BAET5AfigC3AFAJV2NFDD14aLuBIA0muElbhzGgIgTwAgBwFw6IHA2xMQgD6RCkAkq5oAsG2E+rECwOOZv9MEAM1opwLgj8CXXe9eFMKMHwMAEjo/ABICQL2VsvS3U+YFQLrnGt5vXXQjAkAMEwCAaYBbnXnN5B3LIQAXFCoAAm7/QwCcvv/Kg8YOAE/9/iY2AJoRIwIQyKGXdXcFMuM9CEAPPwBGPwJg5ae5n3zLAZkfAKmR82CHaaMnFYa/sjvID0AAdgAcmki+JwEB6BeJAAiqygTgwdtHnwI9hgB4PMc+xgZAi1MBCMThy7YscFu7xRhgBIALBACGdgSMBkC9u573n3qLTAFAFPmmAk9oCIBIkAAAXAMQvujMYl0OAYgqRACEbJIJwOkzZU8aUwA89S80MwHQO4kAtMXQy37Lbe0WY4ARABIyPwBGCAGgcu4LXjhXJgKwnmcUMH8JBiBFAQBmAX3WmSOA7QkIgCzRAIhkk0wA/gRys8YWgFIJbmECoHcQAWjrgC/b4s4CWIwBrgCQJQBgpBEAKtdt4VPnyFQAxOsrF+CG3RoCoCNIACA2MUYA009CAJISEYCeJAuAB2+GIMrVAdCCfvuk40wA9DwRgDB6WTcXgDlbBAHIeAkAeDEAr8/keOohmQ5A5Ytepu7TEABKmAJAfmKMAE4lIAAyEYBCkgXAS2fQo5qqA6CRMY3zAhMAbzcNgLYu+LKNbjqg+RhgVI0pEAAYnAcEAKjfq7wxeHXIDgDis9bfWndUwwAUgwQA0BSgM9cA6p+EAKgSDYBQkgXAO4vws7YAAC5ZAxAEABxh/f6zyxgA6N5LNADC8GWdmtIxzvEcBCBKAUBQEQDq45W28s57zB4AovXxbs9rGAAjSAEgJ4LDwJx5JdCb70MAZBoA3iQLgDdYd0AeAAB0WwMQAwDsZb7Aqi0MAHQpRQJguAswqjivd+8KZMTkwwCAjEwAwNAxAOq/KvxvHg2xARA6irlUKtWbj0tsACy3dZ7VMABKOwmAi+JEOAqgrhUCoEokAMQkC4BtzAWe4wCALmsAcgAAk0Trvx1gAKBHYiQA/AIAwLlHu4xrvAwBUCkAGP0YgApLAfNDLACkfPuVgg12GywARItO3G3NDACKQQoAMREA4MwLAb7+PgRAIwEwuACAAfgCW/VDAADDGoA8AGCFyTvMmMsAYHAxkABAWx4C8Gid29xx3AQByOgUAEaqy+j68lWrBx5nAODNx0CNyQkMADabbs2bvwzXFz0eJAHQBQH4riML9I8QAFUiAVBgFKip6T8BAOjtlgBEAACmY6zp+xgA6N0kAMIQAOEat7kzohUCkCVVGIlVX2627gBAAIwUrjH+LgyA6TzOZ5oY9UWKkQDwCaC6bHbkgdLz1kEAZFJ5yowunWp65uudAAAtbwVAWAIAPG36Gg37GAAMJ3VwAnA5F6CsRFe4rZ0R70EAhlYCuf8xZFaP0VyAtzAAnewa0yshAI7cYPb/jwHw9oZJABRhdXHmDrJTsDijpCGdkmQAYH7m8+RmAIBoBUAeAmCxS7dhJ2NMJ4QpAMRgiTZOcps7jqXLIQB9tEmjAmvO6BmT8dYiGQHQZVZjchIEgP2XcVsTa86oK0wCICDA6uLIJIC6VyAA/SQA0gwAbrd43j4AgFY0ByAsAgAsz1tcOBcDoOcpALRdhIO6R9zmzp4GLAfggpcEwPA0AFg1+tVHmQ/bGIIAxMOmNaYXAcA64vmpZaxVIyNMAyAHR4zOPApkLZzSuaBQABiIYgC2Wc2dnYAASOYAdEgAAOsu+az7MADeSxQAUhCAR93Wzoi/omnjPtq6saiy8kY+wuyuH4AAiO3mAIAqU/olLTPwPFQzK29EjNEACEQgAE87dQqwvDhJiV1KFAPwhuUGr2MQAM0wK86UAgGosMPrgXswAEKYAEDAECdEaud4xw4IwGAXgJI5pjAzR+9mXBm6IAQA0HMxCwD8EQAAmpmfdhc7czQVpgGQg2kjW+udWJTTl0MAdAoAaQzAlytkdu6EAGhFdnGGBQjA5kqZOXc2IwC8eQIAbd3ihLnmaTzjIZQ61kPMHZeZe0dO44OCz0EAOmNWAPhyEADQa5z0FnPviLc3TANgqAPg/MTRN2Fip0rZ3DUQRQC8VOmIh2sRAENp+7A4g4YCAai8Q3cTBuCDlQAuAHwAgJbN9W5zZ0wctUIASl0A2u6xfubu0Z//Ej5qMQBAT1kD4IsAAMrnjd4+wN49WgwTAchNkK0jByEAlO3dUhIB8P0zlZ7YcCMEQPcWcXGGDQUBwNEfP4oB+B979//bxHkGANzq6DoaKIqSAg2tCJRC0QqEUsrooIGNr62qFkaBbais8MPUbVqpGC0dbTUYGVURrZA2ui9qy9jUoVbTpO4LY1KraWNdx/aDfRw4XI7aZ3OOe/adSezETpwvi+MkxM/7nv3c2Qn3nt7nD7D95r3nk7v33vd5JAsAXInB4x28SxAtjhHHx7IWAYhkdGoFmX+DDeSbAABSsDgAuSLvBQB4Ry8CvLyCXj8CdXp89PUy8LDoisOj8z8DACiyBQCyAQIARNPXnxIAjN6zN7yvy0fs6kCtslbPIADIl3hCApCAAPCtANQ/836igoRgtYRUL72E1D8LHgOqVwIA0qUA8EMArp8IqpljUkEKVz9m9PXSSZSPqGdTcni6O2OhwpMaIAD4G2Lz7PoVJACq2D36HLbWStnY7UWVeSss8qgOV3nGAnApAgDYVs3TnRLnCQDarAIQ6TWpIfejUUd4thfWfh7cOVocgEsRAMDIiY5XNpnVkLxsFYBLkksKSO2FAAh4AKQ2AoA/zMd86bsUAAYISHUOVmP1a2lp+GxXwU85gNuZv4AAQEjhAbjS5ZZOT2Mbt+0nqkiGrVaRjWRNqsh++OOR72kAAIjBkgCkAQBDRXpqftliUkW6VbMMQDdRQvIJJqfxwbUAAF3EA9AcIADYibt4NtEAGCzILHm98qjT3QU/Bbsx/x0CADmIB8APAeC1AYvfAowAELIKQJxyD5AvI/+tt4dfJf0HABApDUAXACC/QfeH3zDrIxHRglYByB8cHT1URq+SY7DGax8eAK9OAPA28msbzACA5R1G/xTsn3hCzSYIgGDgAYDNXp+8m1cFKHoLcL2QfL9VAOLkOsBwJ5lf/bo2/1oHAGCUBiAJAMhdOL/5q2knqVYtaBmAGMwNRm8Aht4BXAegXcUD0A87Penn0IehXrMOwFv4tywNBACChgeAaPWynGc7LfYRAAREqwDE4xnTXnIfbhl5aWwNgAQAYJfnrodXmvaSNAp6SeIACIowNzYyupa7BACgy2gAhm8ARgGwE/3Fk35uGQAraTiHACCOB4Bo98yLgxZ9ETCqm2zGOgCt/ebdZJ97hQQgVhoADQBw+t0Vpt2k859nFYBWCACrNwA7Yae3DB6AZqLb80QL31w/zSIAloqtzTpMNHxPoAG4GgcAvMqTnf78SAAw3E7SAgDxeEuxfvJbKgCA2GzaTl4d7CVtFYAeEQLA6jrR9wEA7SoaAEmHAFhr9br6PksAbLRWm+cxAoA4HgCi2QtvEECN2h0EALpoHYC4YA5AR8efxhIAtStoAwC/DwJwN6tXyCkAgC6jARi5ARgBYK617/5gpQUATlt8GV/7AgRA0NAAEM8A/EwwPZ4mAIj22QAg7mszByAzhgDInUE7AMRECACj/QA9sz8FAPTiAQhBAM7VWfz2hvvQANxkeSF+JgFACg0AfA9APVLOYyDOEgAosg0A4pHMjQDAlwjaAUATIQC31LC6jgsBaEED0BKAACyy/PUN30MCsLHO+theggDIfjQA3QAA/iLQJKavhQBE2+wAEI83jz8Ahha0A0D+sFFBbjB7h3gGAKDIaADaIACbbRTQ/eROFADz7NTm/RfRPKILDYAGnwF4bVCTOEIAMLgZwDIAhiF3jC8AalqzB0BahAC8yuyB0f0AgA40ALICAXjdzg+oeac0AItftDe4XfBTJTQAVyEAvEWQSdz1HgGAotoCwBh6DBgnAHydmj0ANJEAgNm94rOvAQD60QBkIACbbVbQX76pBAAP2C3LuZ341AQagBhfBMA+RRIA5N4E2AHAiKtt4wWAmtI0ewBckAgA2L04FgEA2gUsAF4dArDI7o+Y8rlpRQC4aZn94b0EPzWGBgBuBtxWy1Pd5HXLQQKAaK89AAxDyowPAL4ezS4AaZgcT65j9yXxEQBAQMYC0KIAAM6V8RhU8+hiOgDrdpVVkG8m/FQfGgB4IEjazlPdbB1wCQFANGwTACMudIw9AOH8v39bACSJ5GD58XAHACCLBiALAfi4vH8jDXNWQQD2zDg0tczxzYCs9GABuCIBAHiTQNPYTQIQEG0CYBitzWMNgLdTsw2AXyKS45k6Zmfu9rUAgD4sAL4AAGDp7eX+mKqZx3fdee9Qoi4+ffShChRYWwABiGMBgIsAEj8SbBq3NREARDt8dgEwYt7MWAIgdyc0+wAYZHK8yO7MffUaACCMBWDgCaAQgO9U5hdVT61ftqx+aqUarE2ZBgAQ/VgAwG5giR8HMI+dJADRPvsAxAy5d6wAUFOJRBkApMnkWMPwxJ0HACgyFoAsBOAeZ47wKFxZ6MECEAQAvDmFJ7pp/JkEYGQZwAYAOQKyYwFA2EgmygEgSSbHN2cxPG8nAQBtWAByTwAFwzGpLgAAIABJREFUAGx26AgnQwAMLABXAAAS7w9iHpOaSAAUsQwABkLorTQA4XgiH3YB8PvI5GC6ZPRHAIAMFoCwAgCY69QhvgAAGHoGKA0AOA4g8VXAYrHwMwKAaKg8AGKGmKkkAGEjkSgPgIsRMjlYfgDw3LoEANCMBaAXArDBqWN8FL5bSGIBSAMAeFGQ0m8CCgAYWgi0DUAslvI2VwoAMZVMlAtAikyON5h+MJx+DQCgYgEIAQAaHTvGTyAAaSwAPQCAH/AsLxJ1H5EARDPlApBKxeVMBQDwdieTZQPQTUkOto+I/BYAoMhIAGQFAPCxcwc5AwAQwQIQBADcwrO86H+TJSQA0eayAUilYkL5ALQmywcgSUmOeWzP2W4AgI4FoAUCsNW5gzwOABD8SAAuAQCk9TzLi8U+CgCKWj4AKZ8jAAj6yOQ4UMf2lJ0BAGSxAGQBAM86eJCrIQCdSACuSgAAfiK4aEw4QwIQVQSXAHBZIpNjWz3jU3YQANCPBUAHANzv4EHWHhYoiwAYAAwAwHd5kheNSadIAKK66AoAci8AiOR4iPUZex4AEEYC4FMAAK87eZQbAQCtWADSAICv8RwvsQzwXpQigM8FAFyMywQA3nnMi30NAKAiAQgDAL48ycnD/BkAYHAnAAaAHgAAbxJcKhZRAIiGfMwD4DdkEoDHq5gHGwDQLiMB6AcANDp6mJMBAIPFgTEAaACAx3mGl4qTFACUNi/rAFzP/5Hk8L21gfnZehoAEMACkC0EQL/f0cOsXQUA6EEC4AcAfIUneKmobqQAoGQZByAlkADscUG3uH0AgBAWAB3cAfzF2eM8TVkFxABwAQDwZjXP8FLxYBMFAKXDyzIAaYECgBsaRewGAHQgAfAqAIDpzh7nwwCAOBKAgveAuQuYtweysxCYu1Q6fOwCkBYoAKxxw1ydBABkkADIAIClDi+XtwAA4MUC0AoA4OcBMQ+W7RQA8gIwCUBMoADwvyo3TNUvAAB9SADCAIBGh48TrgKKWABiAIDf8fRGxHkaAIMCsAhATKAA8MYsV8zUQQBAMxKAfgDAGYePs+5eIEAQCUAaAMB3AqHiCA0AJeRjEAB/TKAAsOoJd0zUKQBACxKAXgDA150+0MUCcSIYBUA3AOCPPLkxUfU+DQBFF5kDwG8IFADWzXTJRD0PAAgjAcgCABY5faA3k+8BUQD0AAD4VkBcVO+lAaAEZMYAuBwRKADsecQl03TrpwAAAQlAGwBgodNH+gD5HhAFQBIAsIbnNi4mNdIAUHSVKQCCXoEGwMtumaX51woBaJeRAOgAgNlOH+lxmwAkAADf5qmNvbZ20AAIBJoZAiApCjQADrlmkr4EAFCQAHgVAIDjqyI9BgCIIQEIAgD+yzMbG3c0UQEIZJgBoEsWaAAcdc8cTbcJgA8AsNTxI/2A3AlkCwBeFAwf/3iKCkCgw8sGAClKm8qBeG2Ce6bo7wCAABIAEQBwzvEjXS4QVcFQAPgBAPw0kJUbzCYqAIGQzAIArQIVADflv+eeCgGw2fEjnWwTgIsAgAM8rfExYVgAAEBADzseAM0nUAFY46b89ywEAOhIAOTC+TzR6PiR1oPplGzeATzD09pKbG2iAhAI9HqdDUCPLFABcFf+5xoD2gJAAPP5e8eP9ItgOn1IAC4AAHh7QIsrgc/SAQi0iQ4G4HJMEKgAuCz/8+UAKgDAWcePdD15GggFwCUAAC8IYPUe4BQdgIDe4lgAkl6BDsBRl+W/5wsAgBASABXM5/uOH+msCt0B8M4AVmP+cyYA6BnJmQCkBYEOwDzXTU6lAJjo+JF+njwOaOsOgANgOaacNQFAD6kOBCARgY2khgDY48LOkBwADsDYR+0REwDyNwHOAqBbVukArHvEwwHgAHAA7MRcMwByNwFOAiD3758OwKrVHg4AB4ADYC+OnTABIHcT4BwA0oJqAsAb9R4OAAeAA2A3Fj5lBoAeaml1BgCdXlU1AeDmqR4OAAeAA2A/tjaaAhDqkB0AgGaoqhkAa6o8HAAOAAegrJcBE00BCIX6vDcYAC0thMMmAOw55NpJ4QBwAMYtJsw9YQpAKNQv3UgAusRw2AQA+fBMDweAA8ABKD+2/MQcgFBbS+RGAdDjC4dNAZixwcMB4ABwACoRd+w1B2CAAPWGANAphcOmAMhHqzwcAA4AB6AyUft/9u4+RoryDuA41pM0OfTEW3O8ChihJYIWIviCgoQGtEBtDYmaKr6U2pTUQl9Sqwa1FGhrCS9CTetZWhJqiSehtWlTGiytqS30Jd0d5nL7lu7dbvbFvd297N3t3XHA0TkFejw7s/tw+/bM7vf7P5PM88zvs8PcvhzLAYBBQChabgDORMIhawCa7qru/QAAAChzy9bmACAYzIQi5QTglNM4mDUAu+4bAwAAAADFbPaRXACcfxZQFgC6+vUPD2YFwMbdjjEAAAAAUOR2NOcCwGjAnyo9AH0p7fzBLADYOa36twIAAKACTW3JDUAweDacKC0Ag96Qz5cTgNcbxgAAAABASTqwLTcA6XTG7UqVCoC+hHbhSFYA1MLLPwAAQMVa2JIHAKOMz1kCAPpS+ogjmQOwcfE1YwAAAACghK35az4AjM6GIp3FBKCv1+W75EimAEz+bK1sAgAAQMUaf2xBXgCM24CzPldncQA4ldLPT39OAJqedowBAAAAgJJ3Y4sEAEan3eHCAXCG3SOzBOC2GTW0AwAAAJX9f8AGGQAymYHCAdDdMgDsur2m1h8AAKCy1e9fqxAAU56vGwMAAAAAZaxhVrMiAGzZXF9riw8AAFD5rl+1XQEAmnaPq72lBwAAUKGF8xdUGICm3TNqceEBAADUaPax5goCsGVlY20uOwAAgDLPAl49XCEAPr96fK0uOgAAgDrVn1hSAQB2veSo3SUHAABQqvf3vV1WAOb8/GhNrzcAAIBijdv/btkAmLJnRo2vNgAAgHLVLdvXXAYAml5ZyloDAACo2KQ1698uKQB3Pzb3GpYZAABA2RpPHHqiRADc84e541hgAAAAxWtYs+9w0QH46k1zG1laAAAAW+S45eV3iwjAs3uXOlhUAAAAOzV2zap/DxUOwLrXT0xkMQEAAOzYm4UD8DFWEQAAwKZdCQAAAAAAAAAAAAAAAAAAAAAAAAAAAAAAAAAAAAAAAAAAAAAAAAAAAAAAAAAAAAAAAAAAAAAAAAAAAAAAQAAAAABAAAAAAEAAAAAAAAAAAAAAAAAAAAAAAAAAAAAAAAAAAAAAAAAAAAAAAAAAAAAAAAAAAAAAAAAAQAAAAABAAAAAAEAAAAAAQAAAAABAAAAAAEAAAAAAQAAAAABAAAAAAEAAAAAAQAAAAABAAAAAAEAAAAAAQAAAAABAAAAAAEAAAAAAQAAAAAAAAAAAAAAAAAAAAAAAAAAAAAAAAAAAAAAAAAAAAAAAAAAAAAAAAAAAAAAAAAAAAAAAAAAAAAAAAAAAAAAAAAQAAAAABAAAAAAEAAAAAAAAAABQ9QAcZBUBAABsWP37r/79P4UDoF+7+PmxrCYAAICdmjDr0PZMJjNQBACG//21e5c6WFQAAAA71PDi/MPpdCZTRACM7n7sLytYWwAAAMU3bP+h7enhig3A8FGuvfJGVhgAAEDVGm/940fTXxoAhnv2zeOsMwAAgHqNP9CyPZhOlxgA41i//PFYAAAAAFCq91Y1B43KAYDPN+emaXUAAAAAoEiTdhx6IhgsHwBGU/aMBQAAAAAFum9+c/BCZQNg+DbgdgAAAACocEfXfyMYrAQAvlBo8lwHAAAAAFSsuhdbgpdUXgBCoZ+sbgAAAACAiuS49cFgsLIAhEJb9jQAAAAAQPlf/ddkjX8lAAiFmmqPAAAAgEq3bEkwqAYAxl3A5kkAAAAAUL4eX5JMqgNAODxvkwMAAAAAytMdLcmkWgCEw1PuBAAAAIAydP2qRUkpAE67w4UD4HX6pAAIhw9OBwAAAIBSP/u7dW0yKQHAQMjZ2+sqHIBoT89gVJcBIHzP4kYAAAAAKGW3PJhM5gfgnB7tHa44ABid6XWG8gIQDm+ZWwcAAAAApWrc/EAyLwBD/kRnZ2dxAejp6urp94byARDWrjoOAAAAAKXp8a2BfAAM+aOdH1Z0AIx6hg+YGwBt3WYHAAAAABS/2euHr5lcAGTc3s4LlQIAo76ElhsATZt8NQAAAAAUuwPNgdwADPgTqc5SA2DU7wzlBECbs7seAAAAAIr6v//1568ZCwDSbm/KqAwAxOPxnmgoFwDGTcBxAAAAACheMzcEcgGQCUVTqfIBEI939Wq5ANDWPQ0AAAAARcrxSCCQA4CMlkilyguAQUC/ngMATbt/BgAAAAAUoxuXdOQAIKNFU6nyAxCPt18kwAwAbd40AAAAACi8x7d1WAOQDkUTiQoB0H6BAFMAtI0r6wAAAACgsOpmvdZhCUA6bIx/BQFoj/f7LQHQtKcaAQAAAKCQxrWMvGAEAM5FEonKAmAQ0Bu2BEDb+TkAAAAAGH0TNnRYAjDgSiQqD0B7e09UswJAu/czAAAAADDadizosAIgrSUSagDQ3t7ntAJA8++uAwAAAIBR9bfXOqwA8EWi6gDg8Qz6LQDQtPvHAwAAAMDl55jf0WEBwGlXNKoUAJ6uqBUA2r9mAAAAMM+XW0NLzAKAoPHyrxoAHs8p3QIA/87jAAAAdHktXBKzAGDAGY0qCICnPWUBgP/eKwAAAOhyumNrzByAYDgaVRMA4ybAbw6Af92nAAAASL731sbMAUjrUXUB8MSj5gD4l98FACYAtCh/pjMAoBLdsC1mDsBQJKoyAJ62Qb8pAP6Nm6ppf54UAEhWLQArhM10SgJwUgDgCwz1ZTTzo/nPAiCoRVQHoK3LaQqA37+6ijZo2SjvADQBgCPKn+nNwma6RgnAD5jqy7i8FsRMAci4IuoD0OZJmAPg31w9O3TLKO8ARAAOKX+m00d5B9AqAPAVxlq6Xy+KmQIw4I3YAYC2tn5zAPx7qucWTQAgIAmAXwBgifJnerUAgFcSgDYBgBeYa8nqZr4VMwMgGYpEbAJAW59uCkD13AP8uUgAbFD+TO8sEgAPMNmy19b/538kAEE9Yh8A2uJOUwD066pkkyaMEgCXAMA25c/0HQGAqCQAHgGAbzHZkpfWt2NmAGScETsBcMmDgBEAbHypOnbpDgGAmCQATvGvOsr/hsJqAYDUKAH4J6Mtd2WtjZkBcNobsRcAIx8EjABA31gd7wdYKADQLQmANyAAMFX1M10pANArCUBcAODLzLZME7fGzAAYuPj6bx8AWi++I2AkAPry56phn+r/eykAH2iSAAQFAL6n+pm+IgDQLwlAjwDAbxhuicb9KWYGgNvrtSEArRceBV4CgP7Qw9WwU28IAIQlAUgLAOxQ/USvEgA4JQnAGQGATzDdEq8rR2ImAAR8XnsC0BrXTQDQ502sgq16RgDAJwnAWQGAWaqf6E4BgB5JAAYFAH7LeOet7hcxEwACIa9dATgvgACAPrnB/nv1XQEAtyQA5wQA5qv+mvRJAQCPJAD9AgCbmO+8PRIzASAQ9toXgNa4ywQA11P2//3gnwoADEkC4BYA+Lri53lUfFdnmyQAvQIAv2K+83UgZgJAQPPaGYBWjysbAF3/tO0363cCAAOSAGgCANsU/8bEd7I/CiAHQEIA4AoGPE8zF5kAcGH+bQvAsADZAOi2/2DQ1wQATksCoIsf71b8gcheAYCILABeAYDpTHjupj6TPf+xi/NvXwBaPU4TAJbb/QXhHwIAaUkAvEkBgCfVPs+D2X8FlAJg5NcBfAhAIyOeM8c3u01uAMJe+wPQGndmA6D/bIW99+vjAgABWQAyAgAvq/1cukkA4IwkAK0CAHwfSL5byu5sADpC3moAoLXdZfI+uQfqbb1fNwgAxGQBGBIAUPsp4MPidzvEJQGICwDwWaA8DwC7TQDwOasDgJPtusl4/MjWGzZbAOADWQDcAgCLlIZwtckfAaQA6BMA+BIznqsJb5kAcM5ZLQCc7NJNxsPenwt6QwDAJwmALn7J60yVz/K27A8DywEwKADAGwFzNf7R7mwABpwFA9DpdBcOgCvRVzAAJ/tMxuMhWz8YflQA4JwkAM6AAMAxlR8BbMn+KJAcAL0CANcx5Tn6fnc2ABlXoQAktLOZgcIB0N0+Z3+hAJzsNxmPF+z8GOCHAgBnJQHwnhYAUPlLgW4Xf+ehTxaAiADAc0y5dU92ZwOQvnjBjBIArztjVBQAjLTOnsIAONlrMh52vi/8ogBAUBaAc+IPvcxW9yRXigC0SwJwyV8Bh0/7ZsbcsqnfyQYgqRcGgGsonSkmAG53uLMwAFoTJuMxzb679nsBgJgsANr/2LvX3yiuKwDgaaCAAtRBgEkbXjVuhBRIaWgBpYaEklASSAS0NI1pWjepqqqBPqAFi+DmAR9aRFooRbxE+ghEVUT4gBQloi9VVUlJW2lmd+x9zDpeZjSzrNnZ1a734bWNXa/Xxrvn3Nm5Zwxkp5r7B+zs7Mz57X2cey4E4LPVe5OHNJwHyAVAAACwYIYb56bjrBMpBECHRxgDAHGpO5m82QD4/Wq8awwAeFuDODy2OvfY0LkAgCgvAMVJgBIAqvdsgDp41FuaF4AsAMBdBTRvl1IYAFkYAwDi9WTyVgAw2AsYIsAmAN6wiMPjcedO3EIAZE4AipMAJQB8cWa13uMRCECWF4AcAOBRN87N2oqlGIBuwT4Aen8yeasA8Ps9afsAeLOM8HBuhbA/AAC6eQGQ4WGvVTsGuBcAILXyAhAHAHzXDXSzAcDOFAIgKdoGICInk7cSAL9fytsGwJvD4XHasYOAdwEAGV4AJAhAtZ4OMh8e9x7hBaBdAAC4iwBm7bUUAqBDEmwCENMyyVsNgF+OJOwC0BrD4eHYWnHnAQBXeAEYqgtYCoCxojrvcBUEIM8LQAAC8Gk30tlt2S4MgCrYBEDoVpRbD4Bf9uRsAuBtDeLwcOqfw7cBAMWygDwADEAAXq7KG5y8HwAQCvMC0AcA+JIb6SbtF1EEQLdoD4CYmlRuDwCyHMzaA6D44eXh8XOHFghbBgHw8wIQggB8syozoi5oAIBIKy8AaQCAWxPcpE2KIgAUyR4AweuKctsAkLWcPQDacjg8nJoOtB0A0MsLQGEMUAaAcaYa7+8QBCDPDYAOAHArgrLblGYEwJWQaAsAT1K5nQDIcsQeAN4ICo8tDq0T/g4AwOAGwA8B2FyFhcFWawCAUIAXAJ8AAHjKjXVmez6KAJBFOwBE+hXlNgMgh/rsANAWFlF4OPTYuNcAACkPLwAiBMBYU323Vw8BiLfyAtAFAFjwKTfWWa1uKQKgV7QDgNir3H4ABocBdgBo68Ph4cxkgHsAAEOTAFwABDMQgItVd3fzF0IAurgBAFMAgpsHyG7vRiEAhQEAHQBNUT4KAGQ13mkDgLYYCo+t05z4+MbvAgBkuAFQIQDGA9XZASgBQPDxAtAeBAC4xQCYbU0UASCLdAAifuWjAkAVEzYACIgoPL7nyAd4AgBwhRsAwYAAVFsy0MaFEIBcKy8AYRD/gnsmAKvN+AYCICnSARgd/jMAOHj32AH4VaM5AGooSwegLY/C42lHlgg9DwAoZALwARAcgADchFmAGffPe6jlyZaXljx1E9JuhjsAGtgJzAVAHsT/sQlutLPmkKIQgOIAgAZAsFcxBeDchmXjxg7AndOebDQFQPX00QEorASA8HBkPuBcCEA3NwCiAQF4eEwLAbWLD+xeNBqsj/zn8LwxDauWaxCAeCs3ADF3CoCjTWtGAAyIZACEpGIGwMENg/DeDAAGv+vRRjMA1KGpQBoAhZUAEB5bNjpxEqAZAKBwAxDshwCMYUvQnKP3wiV7jyf0nceX2N6EP/4QAiDBDYAXjgC+4kY7o/00CgFQRDIAIoz/GwA0vb+ucBUIQNwagAQG4I47at5sMAFgSAAiAG05FB6O3Bf8OwBAih8AEQFwaoq9LzG1Hg3XR05kPb3e5nEcLRoEQPdxA5CAAEx1ox23mmYEgEYGQELxPwLAf4dnlY8CAGLWAHQBAIYLOq+rNwFAVdNkALwCDA9HZgNNAgBEB7gB0K9DAIwNtsJ/7yDBZgCEfvTIYTuJ1tP3IwCy/ADEQfxPHO+GO2MCKQoByIhUABjxXwTg3H0jv/liAIBuDUAfAOBGLYfVx00AUK9RAWjrQ+HhxHTxmVEAgMIPgIQAMObSI3XVQrUSAIM9ktMv0O/rpAYBiPi4AUAjgM+70Y7blF0QgKseKgAhRWEDcHH0wMk9AADRGoAcAGD0AI9P/MYEADVHBcAbQXe73IGP8RUAQMrDDYDejQD4C3VP0JL9xUFYJQAk6TnqosBqFQHQxQ8ATAMUXnLDHbdnohCA6xIRAElhA3Dqcsl19gEAtE5LAGIAgNKNHMuPswHQckQA2sLobv/t4IXAG09zgB8AEQGg3Edb9lu/UOUBQDpN23FdMxsBoPv4AYAjgGNuLQBGB+AtCEBHiAiAqBhMAH5cdt70TACAmrcEQAQAlGVx1BxgA6D1EAFov4bu1oE7RlZAAAx+AEa6ACUAfOHPlO7/x2WVDwBpLek09pMqAiDBD0Ab7AD8xA133D6IQgD8Eg0AQTFYADS9DJZ+GgEAMSsAshIAAFR03zOLCYAnTwTAJ8C7deLxcX8FAJSMASwBGE4HLAEguZl/yq52t8wNgEQ5gWGJigCI+/gB6IMAuGcC4TZ5OwSgQ6IBEMwYLABOfQteai8AoDAGqAhADADwNFxMnj+bBYDm6aIB0J6Dd3vMgYdHnAcARPv5AdD9EABFeZD3wl/eJFMA4D+KtXY/AkDqJAAQcUcA1u3MhxCAASIAvQYLgM116FLjAACFVKBKAHRKAIDncN+zngWAFuqkAdAqwLv9k/Oe5NcgAB0EAIJJBIDCmQ40YbdMA0A8zPnfdFZFAOR8/ACgfQB3uuHO6jgCAAyJBsCAwQLgbUbaxz4IgNZVEYAIBIBRzGX8mywANDFMAmCkC1CybdyBfxavAABSMj8AuoYBOMg1DVBzt0wFQOTriq9SEQBigAAA3AksvOCGO2prPoQAyDQAZIMFwOusVaQZjQAAVa8EQF6CAGxk3UHLSgYAmk4DYLgLMHq3WxyYM/oBBCBDAEDvRQAoP+Q5JuSATAdg7cc4PviCigHI+vgBQFOAC6a78Y7aCQiAIZEACBksAEzWkFZBANS0OQCwZqcgvGgyU9TAAEBLkwBo7wF3K0x0Xl2ATz4GALgaIgBQmAcEAChvW2cDLJZtAMBzDtvyRRiAuI8AQFYEALjlQHGrewwC4CcBUFgAQAA0/drkavsQAFreDICAEIIAmB3psnoWAwBPHwmAYhfA4f3FnQCA1AABAF3FACjft0qd/VeDLQBEy2Cs268iAKQwBYAIBOAJN95Rex68MakOiQKA3mtgAJoumV5uNwRAHV6yQwCER4/vHPkmC2rNPvaf2zAAWihBAaA4C+DwNeNJEIAOCgDBDAZA+ZvFJZ/1mwAgRuLX4vGgaAKAaBGNE2arGIC8jwBAWAQAbJ3sxjuaZ22GAPSTAPAbGICmCpPHFxAAmifNAiArhSAAWyoc6jh1GwZA00kABCAAwvz/g8fpJwCgiwYGYEfljMA9fiYAek/n8O/uS+QEJgBbK6YZTD+En6cW81EAuAYBcIuBcfxlXA1RAAgZDAAuVbjejOMIAE0TuiAAgWulR1sNf5O16zgGjGUvTI4CwFA6oNNfGNShMygA6Brref6+kjibWABEusqepy8vMACoWHpt2lkG6FKAAkAAPs7g/W68s6YAy9+YbokAQDDJeGEq9xkvMwDQPLGu0gcbyIkhBgCVT3Wet4jRZUxQAAjDN2ai8wpIr4AApFQKAHo/A4Adv6wwA+jHAEh9qEfXmpMwABPNuwDTnmUM6UZWADgByIHHucVNA2ZPAZZPG3soAPQzxowW6WPjzzIAKPQC0tlCp7HQY4yAMaPEd3TvQwsxAEKAAEB7BPYZHbh1bCcEIEMCQM8w5nR2XObv0KlaJMwa0iVEBIDwqtnH1uxlTOpq6QAFgKFJXXcjoEV7xnrhuMIL42HMGr9vNWv8xkomAMWpIklkzBoPf5cWq5s5ggHwpCkAZMEb48T/jDMorcNDAaCwrYuxqmM2CliCpnTUeMBqUvfGF9lq8q5MP8ta1tUDJAB64JTORPdAEPx3vB0CoFIASGIAHrZePB9nCoDJslHxu/zRupTLSQzAyEoAFwDtQdADOOa8+sCTmyEAGRIAEQ8rr6PJZCawHgGgm+Z1hEUIgDCP+aG1u1mJXVKYBIAXreq6xQBx+wxH8rj5C+PHmWOn6qwvetd7dgA4Xcvx8p/FmWNBCgA5uHDswHMkz6OtHRoJgOHMbpDYlWRmdk5vgACIneaJXQmU2Mksv/zGJlZq99D2LgIAKK9rQa0b76j9gGP7mOkLIxkIgB1cR8rUNtIBWDuP55PnfA5vHukhABAQnV9DeuZbEIAMDQD9OnNvx8Up7CnAMgAq7+3ISVabOwuTuduYezvyARIAKLNbeNQNdzwCaObYQG76wvTizSOX+K779VlkAFr4Pnn1Srx9NMAPANo+GlznwJVAVN5BJQEQ0dm7O/9xD7rUbyEAFrs7g7C8A6689veVzN2duQANgB50s/PdeEftAVhCRpH4AdDw/vGLvBVXf9ZABOBV3ls6ggtIpAkAoBJyDjwmbNlSCECGBkBkaHUX13c4h5YDNwEAPBYFXvogAPDnralnFnjR4gEaAF60u9vdBmA+AhgFwM8PQHH7eBkAp+ZwX/mrDSQA1nN/8F3v4RJSnfwAoP1jLzrwsb6DSjxqNACGlgJYFZ4eLJ9IX/c/9u79yanqDgD46ixq2QUKLLoO+CiCw4wsFRCkIEhBwUcfdkZqxyKMSDu1Y4GOstKBzhTBnaEP1A5gpbVSH1PB4qPlXB2DAAAgAElEQVSdyrS1Uh2lSvkhuQT3bpI2yQ03yeRJzGazbHY33WUfZL/n3OR7b7K752S+3z/gZg/nfj/ce8853y+nvENBAPoeAWCbh7zX/yddXAAGzoyiAWDqu9guoXRnom4bACCk4AFwMTXktPtN/Pau3XgAtpgpIrf6KgaAKB4A9gS5hE+O1zIAxEwCEHRwazwmk/+sZxYB8wFIFSvxBos8f3fIG+n+21QuAPDMeFEAWpgKb9QQrMAbwCAAWTcaAKfGADDP1I/3YI8E4MWbTV24gS0jncADELbJvw5QtYdp85AzCUDQzQcg+adf573m7QcAOIqWeYed3tbkbQa88qH8Is95ANhwZd7zpjPODPYnlO6cr0UQABUPgMqUkX7LZNeXiQdxAEz9xOSwdiAbSXABYLrJy7h/tJ4BwGO2zHtQMWjzkPzxh4O/c5BT47UwAKftQwGwDbZgqm54TOUDYPeaBSDBDPYUZTsn3gcAhNxoAAYeAPIA2Gv69/+8uzgAG+81vX/rrtlMK6kEGoCz4B1gzfMyFpE5xnR6azfd6cltAEDyl8cHNnvNAAC0Fm/0EgQADKzuvvIaaPQ0CMDgzgI0AKcDzGDpCwDvazHsJ53GA+BiWkm9YeEvmLJsaREAdnxi4bJP4ZpJ8gFg6kjKWERiEQPAQLP3kno9DvR6fevLfe8BOzhtHooAEAEA9P3rTt63VDUAwB72mgWgg3nfoVqgvHgXAqCiAehfAsgDYMF0a3fqwaUFABhzs6WL1kxDtZM26CYJ3wGk3EByiOn2njXf7dlh3O396Me9v/IaAKDTPAC9B3Rq9j/GNnvuB8AZ9poF4IydAeAblO2850QAQMiNBkBn2kkft/pXTN/3IB+A5S991eo1/8gAEMcDANcBVsg4t9+eDwEIuUwDELUljQBIp4++V1X1RQBAG67XY/4fMqmq5tPfqKoRAIG85nFYAOLMkscGSnZOjG0EAGh4ANIAAG3dBKt/RnV13f0//xYEYPmMhtoSxvY681jhRQPA7AW6T8bZ3cQA4DEPQNSZNQQgnf73e+UA4IP89IcA9O4rMAtAgtn1JGWz9+GPmf8DAOTQACge+ARworS/pXp6w74ZTz54laLM3j1tx7Kvf1xX2vXGMQBk0ACcroSFwKopjRCAULt5AKLBdmMA0unbSgdguaoaAqBnvOYBOONkAPgHJTsvTkIAdDQAWQjAR+U5aj127MSx5RncDAiAvRkLwNlgRdSS3soAENLNAxANqgUAUEsHwG0MgHLeawGAVnjyac0D1A6MG3sAAB43FgC7BwLwqWiDe2UW/LDQhgbgPADgcimnt24tA0DffkBzAESjyigBYE95LQAQZosffJ9ynfvU3QgA6EIDoPoAAB/VCTe8GRCAIBqAFngiUM5akusZAPpeAswCELVlRwOAYNhrAYAhhw36fuNRqgXOX4A7BwBQ0QAkIQAnxBverczSQgsWgLMQAEkbyu1hAAj5rQAQDXaPOAD+zMX8NwNAhC2A+BXKdW68CwD4XMEC4PABABbUCji+MRCADBqAOABA0lISi+YzAHjcVgCIx5X0yAJgT4UtAdDG1kCnJUCDOAQA8LixALRDAL4m4vjugQA40QB0AAAelXSK32QACKWtARAPtI8gAP5oImwJgGYbA8ADqynV+bEWAJDGAmCLQQCuFvIj2Fy4uyiMBQCcCHQ6Jf2MXLOWASCkWgMgHtXTIwWAozMctgTAQDf5fADoC6BBTLgTAJDDAqD4AAB/F3OEz0EAMlgATkMAZD1LOpMFwKdYA6DnIaB7RADQI4mwRQAybC/0b9ZRqhvcG+cAADoWgBwE4FUxR7h6FgDAiQUA7ARwOv8i6yw/wgAQitktAhCPu7PDD4AtFQ5bBCDF3rur7qNMN/wGOBSAkBsLgAYAWDBR0CHugPuLW7AAZAAA78g6y+NfZgAIZS0DEI8o6eEFQMmEw1YB8NrZe5daARjGJgBAEguAwwcA+L2oQ2yAAHRgAUgBALZLO81vswCEctYBiATVYQTAH08lrAPgZO5d22HqBWQYjwMAslgAXBCAOaIOcfJsAEAUC4AXAHCDvG+Sm1gAQrp1ACKRQG6YAPBHU4mEdQDi7L27ahzluWE0AgBULABZAMBvxU2OhwAAjmYkAJ8BACSuKT/xfRYAj6MEACIRZ24YAHDFe9PfOgAdnHv3KUpzw7j6HABARwLQuwg4BIAfijvIBgCAkkICcDYAAFgs70zXz2cACGmOUgDoeQpwZcsLgB7tS3/LALRx7t0nqinPDWM9AOBzNxKAC58A8gHYK+4gr4EAZLAARAAAMn9MOsECEErbSwIgEokqXeUDwN06kP5WAQjb2XuXtgAVil8BAGJYAFwAgCW1Ao9yKgAgiAXgPADgHYmnuvoFFoBQV4kAtLZGbGpZAPDbMqmL+W8NgBY7595dTFleIB4BAKSxAHQBAI6KPMrnAAAOLAAJAMATMs/1wm0sAKHuUgHoiaC/dACiqd4oDYBmJ+fepV6gBeMYAKAdC0AMAHBc5FFeBwC4sBsYA0ALAGCF1JO9kgNASC0dgFaldAAyZQAgyLl3t4+nJC8UOwEA3UgA7D4AwNsij3L8bADAeSQApwEAz8u9oHySA4DPVSEAnIly7t3L76IcLxiNAAA/EgAdACD0J4CqqmcBAK1IAIbUBu/NkJuknu3qYywAIZ+/IgBojrvZe3cNFQEoHBPOAQB0JAAqAOB2sce5jPMVEAVAEAAgeWu52rUhjgBKJQAw8P//kHv3B5TihaMeABByIwHoAgDME3uciwEAdiwAEQDAJMknfNERjgAeRX4AIgoHgA20A6DYZyEAgAcLQBIA8Aexx3k9/ArYggSgAwAg/amSK3iPAIMCSAtAq8ICYD88mTK8SLwKAIhhAfAAAOaIPc66jQCABBKATgCA/KXlT3IAGBRAUgCaIwoHgBdvogQvFlsBAEkkAP2LABcBmCL4QOFWoE4kACkAwPfkn/NNHAB8Hl1iAJrjCgeAjdQIsHi8CQBIIwFQAADrRB/oLexmYBQAYQDAf+Sf87o3OAD4PH5pAWiOKhwAttxD6Y343wAA0IUEQB8KgO+o6AOFewEjSABaAADbK2DSx+/kANAngJQABBUeAFQEEBN/BQC0IwFwgSeAQ6IP9AN2HRAFwBkAwIpKmPWFT3MA8PlyUgLgDSg8AGgHMCpeAADkkAB0AwB+JvpA4WbgABKAzwAAN1TEtNc38QDwddnkAyBsU3gA3E1FQFGxEwCgIgHoAgCcEH2gcB3QhgTgvwAAZ2UUl/pXEw8AX9YpGwBtDoUHwKVUAwwXawEALiQAWQDAFaIP9DL2PCAKgPy9wBcAqJCl5ZlHeAD4kja5AOjIm9I8AF6nE0DIeBkA4EcCkAYAzBR9oGNnAQGwAAQAAJXSYnrlER4AHs0tEQAtEYULwNQJlNnI+BEAQEcCoAEAPhR+pLsBAF4kAEEAQMWUl1m/hAeAJ6ZKA8Dg5z8AwOHLKLGxsa1MAIh/6PKZMgFQObvL9h7gAeDxtEsCQMqhcAE4/CXKa3Q0WgQgBgC4RviRTmNKglgD4PrKmfyHl3AB8CTtMgDQAY939N+5U+n/fxPxOwCAGwmABwBQK/xIpzKHAXAAxAEAlVRifmUTFwBPTBcegJaowgfgFB0AMhN3AgAUiwCIv+rybJkAqKgN5ruauAD0vAY4xQYgZVe4AGw5Rd//TMU5i08A8IYR/9z1GKY1gDUALqmo+b+2iQ+AJ+kQGABvq6LwAdgwkXJ6VACoIgDkjPqn+QB4Yq6AqAAkbLoBALfQ/j8CgAAwFQtvNwAglrWLCUDGrRsA8AsqAEQAEAAmY8LfDACIxVQBAUjZdJ0PwKpJlM8EAAFgOurmGQEQu/AlQCQAet7+dQMAllMBYAKAALAUWw8YABCL5ZwiAdDp0HUDAOZ+h7KZACAArMXeBUYAxDQ9KAoAqYCuGwEw5kpKZgKAALAaizYbARCLZR1iABDRdUMA7qihXCYACADrUfsFQwA0rd05+gBk3H6/EQAbf0qZTAAQACVF9Y0HDAHQtJxzdAHosPv9hgDMvZUSmQAgAEqN9U3GAGiaGhg9APrS3wiAS+n0HwFAAJQhVj9eAABNcwVGB4Dz/enPB2DLvbT7jwAgAMrzGnBiSQEAep4CnCMPQMbh9xcAYNo4SmICgAAoV+zaXAgATcvZRxaAVqX3csYAvESH/wgAAqCMMX5eQQA0rd0RHSkAUlF/3+WMAFi+mDKYACAAyhsPrysIgKal/YERACCRsQ9ezgCADbT5hwAgAMoetfMKA9AT3Y5hBqAzqLhchQGY20DpSwAQAMMRczYXASCZTLts8eECoC3iGLyWIQB30+IfAUAADFPU3LikCADJfgPKDkBbq92Vdy0DAJ65jnKXACAAhi/qjxYFoCeyLluknAB0xB2u/7N39zFyVWUcx4lZVKSwaFtLaUWCttCwdEtlK6FCii9QbUFAgkpoMViNVqSUFyUVEIRCpA2vNhoolBrejBCVaISqFItI/MPkzt0Z52XH7OxM5sXZmdnMzk532+3uOrvQhX3mzszZufNy7uT7+383Ofec5zPnnnvuub4Z/8sSgE3rOPkLAACgvrlqS2UACtOA0QkzVhsAhmNR33spA8CGtRQuAABA3e8DbutSAGAyYz32ATB8M1MSgEUXUbYAAACNyKrNagDkffYBCKoBcN+dnPsHAADQsKWA47QC4L51fPYDAACgsQRoA0DHo5Q/AABAo7NknxYAdFzIk38AAIBmZPm+pgOw4HnKHwAAoFk5b+XOZgJwxeNM/gEAAJqZZfufbBYAi87mzA8AAIBmp/2xvzUBgI5Ps+sXAABAj7z19EuNBWDx4x+kSAEAALTJnL1bGwZA4cefXT8AAACa5eS732wAABfccTYLfwAAAHoasP/NugJwwXO7PsFVBgAA0DZt965/s04AfO6OSznrCwAAQHMBjjlm7d63X6o1AL96YhszfwAAAIfklN+v/3fNALhhw64DXFIAAAAnTQTajmlfvnSBfQAW7XqLJX8AAABH5iT7AHyMqwgAAAAABAAAAAAIAAAAABAAAAAAIAAAAABAAAAAAIAAAAAAAAEAAAAAAgAAAAAEAAAAAAgAAAAAEAAAAAAgAAAAAEAAAAAAgAAAAAAAAQAAAAACAAAAAAAAAAAAAAAAAAAAAAAAAAAAAAAAAAAAAAAAAAAAAAAAAAAAAAAAAAAAAAAAAAQAAAAACAAAAAAQAAAAAAAAAAAAAAAAAAAAAAAAAAAAAAAAAAAAAAAAAAAAAAAAAAAAAAAAAAAAAAAAAAAAAAAAAAAAAAAAAgAAAAAEAAAAAAgAAAAAEAAAAAAgAAAAAEAAAAAAgAAAAAAAAQAAAAACAAAAAAQAAAAACAAAAAAQAAAAACAAAAAAQAAAAACAAAAAAAABAAAAAAIAAAAAAAAAAGArp//rGvsAfGDFfK4kAACAw3LgsX1/zOd99gEI+nwnXbhtLlcUAADAIWm/a+Xv8lOpDQCTOen5E9q4sgAAALpn4WMv78xms7UGoJArnlhxPNcXAABA3yzbu/Vb2anUAYBCbtiDAQAAAHpmfue+d6u/bgAUsmDPinnUJwAAgF5pu+vtneFwtv4AFP7PNb84nQoFAADQJ6uW/iM8mcYA0NNzwavbuBUAAADQ48f/qn03h8MNBWByGvD8WsoUAACg2Tml88rwdBoIQE/PmRs+S6ECAAA0M8v2PxnONgmASCTy3DYWBAEAAJqVA0/vDM9IowGIRBbfyWIAAABAM3L1AzeHw80GIBI55+/MAgAAABqdhSu7wmEdAIhErrgTAgAAABp6779+dTqsCwCR6OKf8qIAAABAo9J+d1c6rRMA0eiiT1K0AAAAjUjbQ9vTaSUARnvsA+BSAyAa3cD2QAAAgPrn3q3ptAoAIxGj37QPwPChjKtHBYBox4VzKFwAAIC6ZtXmdLoyAPkJd2qokFoAkMvlDg7HzMoARKPnvMJSAAAAQB1n/3u70hUByI8HU/1DQzUEIJcbGDiUMisCEI0eexq1CwAAUKec93JvbwUApqq/kJoDMDBpQLQSAOamdWwMAgAAqEfmLV3dWwGAsehU9dcJgEkDAtHyAJjmj3lDAAAAoA6Lf1dO9WhpALI+o386dQJgYCA35C4PgHnmox+lgAEAAOrw818GgNFoPJNpAADJZPJQIFIOANNc/A0qGAAAoIZZuPVoj1oDMBZMZTKNAiCZPJiJlAPA7FjH4wAAAICa5aH7e8sBMOLKvJNGAZBMDgyZZQAwzRc/ThEDAADUJHM2T/enFQATRibTcAAKBAwHywBgrjmfKgYAAKhBTt3eVwaAESOVagoAyVDyKAFWAJjmDh4IAgAA2E5nV19pAMZcqVTTAAgdJcAaAPNYbgMAAADsZd63Z/TnTADG3KlUUwEopD9aEgDzKV4RBAAAsJNV9/SVBCBrxlPNByCUi5cEwLzpcUoZAACg6izf2FcSAN/R8m8yAKHQEaMUAKZ5LpuCAAAAqsyzq/tKATBivFf/zQYg5D8cLAWA+QgLAQAAAFXln319JQAIR+NxnQDwh1KlADAfPo1yBgAAmP3y3wOJUgCMB+KaAeD3H3GXAMBcw1Lg7PMlAYCpCECvGDD6H9f6iBguA1UCcFmLjYA5ryVKAJANxuP6AeAPDZnWAAQvfoWCnm12VzkDkACcqH1LF4nhkqwSgBNaawAsvDJRAoCJeFxLAPz+g25rAILB71HRs8yPajQDmK99SxdXCUBcAHB5S/X/1VsS1gCkzbi2APhDmRIABM/g5aDZ5XYBQFQRgLQYMMscB0CoSgDOaqXuP7A9YQ3AqCuuMQB+/5GgNQDBHQgwq/ywSgDCYsDof1TzfWK4+KsE4JIW6v2TNyYsAUj3xGJ6A+BNxqwBCJ7L14Nmk19XCUBWALBE94a2dYjh4lUEICYAaKHHzafen7AEIOyOaQ+A1ztsDUDw+lMoa/VcKwDoUQRgVABwne4NnStHi0cRgIAAYG7L9P3yroQlAKNGzAkAeOVtQBABZp/XqwRgTADQqXtDzxIAuFQBMAQAJ7ZK1y+Zrv+ZAIwHYs4AwJs0LAG46XreD1bOLQIAnyIA4wKApbo39CIBQEARgP8IAD7VMvf/9yesAEibsZhTAPB6U1YABN1fZh1ANX8WAIwrAjAhAFipe0NfEQDEFQHoFgB8vkU6/ryNCSsAwq6YkwCYsRDwvj0sf+BZgGJuFACMKALgEwD8VveGrhMAZBQB8AsAftIa/b5we8IKgKwRcxYA3kNuKwDcOyhttXxTADCqCIApANiie0MfFAAMKwIQEgDc2gq93rZqRv1PAzD6Xv07BQBvzm0FgPtRalsptwkA8ooAuAUAq3Vfd5HvAh1SBGBAAPCdVuj1Oa8nrAAYMQLOA8ATclkB4P4uxa2STgFAWBEAQ24dPVnz37w1RS8DqgFwUADwlxbo9ONfS1gBMFFongMB8IRiVgC4vkJ1K+Q6AUCvIgBH9wJPA/Cs3u1caxZtBFQD4LAA4GstcAPwTMIKAF/AoQB4vDELANybLqO8K+dUAUBCFYBRAcB6vdv5gqh/t0cRgCEBQAvMLPcnrADoCTgWAI8nbgGA+6mzqO+KWSYA+J8qAOMCgH3OeggQUwUgJQB4wfFd/mzCAoDeSMDJAExtCCh6lf03cynwitktAOhRBCAiAOjSe+/FiwKAflUAAgKAy53e4ctXWwDQGw04GgCPN2MBgOtFNgRVzLUCAJ8iAEF5gMQbOrdynlwDPKwIwPs3Ak4B0O7w/l61sbj+E9P171gAJucAFofZnEGBV8rPBQAjigAYveIAib06t/IEs/ghgBIAHgHAh5z+AOAWi/pPRAKOB8DjjVudZvUDKrxCbhQA5BUBCOTFDOA4nVv5M7kG6FUEICkA+KrDu/uBQYv69wVaAACPJ24BwNcvp8TL5zYBQFgVgHEBQJfOW4FetVgDVALgiADA4fuAOgctAJgwWgMAT8xi7D7MQmD5fFgAkFAFICoPkVyubyPbO4o3AqsBMCQAcPZN5RufsQBg3GgRALq9MYuxez3vBZXNAQHA0TOBKgLgkgBovBNghTxF9qAqAHEBgKPvKedvHywGYMywD0B/xD4A/fYB6PYaFmOXk4LLr4/vFgD4FAF451Sw9wGg8ftADwoAgl5VAAwBgKMPBf/TYDEAWZdtAOKRUZ99AILR+BG7AHSHXMVj92J2BJbNPQKAEVUAxuWHJP6q7dL3gqjFEoAKAF4BwC+dfB5Q52AxAGGXYQ+Aftd4Pp+vBQCFv3cN2wSgO+cuHrsPt1PlZfKMACCrCoApAbhb1ya+IL8kM6wKQE4A8H0Hd/TVu4sBSAcNWwBkzLF8vnYA+HzB4ZwtALoPWYzdL1Ll5R8DzACgVxUAIy0A2KLrcsseCcCAKgCHBQAOfgjwkVsGiwDoNQ07AKSi+Wy+tgD4fGZ/zg4A3cMWY/d8yrx0viAAGDQVAZh6H2jGxyQ1fQ4wd5MAwOVRBSAjAHDwgtL+wWIAIoYNAFKR0Wy29gD4fNGhnA0APKnisbvmEuq8ZJYJAN5dBVQAICIB2KxnCy+VX5MdUgXgv4YAwLmvAi0ZLAZgxLABQHSy/OsCQGEWMFw9AN3eQPHYvZVngaVzuwBgTBWAyd3AMwDo0vMLgYskADlVAPwSAMf+ksx7vRiA/P/ZuxffKI4zAOBUAVoViiGAqYGKBBwEKjQObnhIxlRNQgIENakggN00gCKqohK1IEIhTdMAEpQGhSRFdSFNoiBLbRolaVqaKiqq2qbvVNq11/fYPcdmt7vHPa3z6/w4m9o++3z3fbO7861j4kU7f8Ctx7Pz23l8843oHACxL5UaPwACAanbMQD1URG/u097/dy0vAcAUHkBGJwDFACg/n0i1m8NvE9eaOAFIFMIgFHt2kZ+qxUB0CQJTgGQ+1Op8QUgoITbnAJQn8Hv7g5vEmCxClgIwLU6XgB0AEDig4l4/HITBKCdG4AYGAG4dg1wbTkGQBccAhDX1NS4AxBQ6tJOARj67cJ3V9zkdXTT2SEAIJsSgAcAuQkAkJiAicEWL4MARHkBaDQAAG5NBzT5UCsCoF90CIDUq94QABRF6HQIQL2BABC8FIFmZdrLAIAubgD6IQAbJl71KnUAgNHAC0BhGNBAtd0aB3g2ggBIic4ACF9X1RsFgKK1OwPA1ywiAKq9U0Fm5RAAQOUGIAQBSEy4S0KLH4cA9HADAJYAhCUuTTCz+mUEwNWQMwCEXvUGAqAocpsjAHzdCADBCwcyK7sAAK3cAMgdEIANE22/JTsA0EEqAD4AkgCA/7i0gS9HEACK6ASAgdm/emMBUOp6HAHgSyIAtn/O6+rs8hgAYCgSgA8ABQKQ2DbBPn4rIACxBl4AfKD/Cy5NCX5HBAHQKzoBQO5SbzgAihJ3BIBfgAAIH3rBAOxSVA4A6OAGQFYhAF8f4zC5aNHWyr0LFt518vkFv7z3eNntY6zbBR0CEOUGIAoB+JQ7VwCfRQA0iU4AEFPqJwGAIkcdAOBrQwAIXkSw7SJAFoBr/AAEIABjyg14acuUFcN9ddnwwd1fVS4aA9w7l0EAjAZuANKg/+9w57Xzd0YQAJoTADRV/WQA0EKdDgDwxRAA1TO8vs4s/wYARDRuAIQEBOCb0x3+FbP3LYDrddlk78+/8IDTmk3RIQCd3ADATUDBnVEARd9HAPSKDgC4rloAUDF2AB43B0Cr63YAgF+EAAhebhB2+TwEoJcbAKMfAuAwM9DULfPQaD133ct3N93m6Ec36xAA2c8NQBDOANwZTrorAgEY3AGgAmD0qeYA/HfbzLEDsO94lSkAmp6mA+DLIACWePGA7HIAANDED0BuCJADwElikGkvrRhoZVMABgi418FqwOy7EAAZfgDgDMCdBwFWlyMAFJEMgNGrmgLwvXcmTfoYALh10qzz3zEDQNOSdAB8cQiAtxVoUk4BAAbmALwA5IYAowBsIK8DLlo42MZWAEjSV54mrwVU6hAA2c8NAJoBPOXKpn0iAgFIiWQAhA7VDIC/Dm37fCwADExXbqkwA0AzomQAgiIEYLt3XSCzfAYC0McPwMgQYBQAdSnt6XO2LNPsAZCkvVNpv7tmGQIgww9AM5wBuDIhcEk5AiBEBiBv+R8A8Lul84ceUwsAyNgD0A4AeCY7YLlgBsCgAEQAfGkIgPBlr7NbbgSOAHCVHwDjOgLg7r9QHl5cO9zEdgBIp9eQKrVQgwDIfn4A4AxAcGVuyVMRCECfSAVAQP1/GIDdr4yc//4BAKDbHoAYAGAkVv/ETBMANDlKBaBehpXd/pDX21nlPQBAROEHYHgIkAeAuoGwYba4RuEFQNpIOdFxRkMAdPID4JNB//+qG8NIHimHAFyVqADg7/8wAB/8MPecUgBAuz0AYQDAotyA8HwFGwBNbiYC4GtDlfVOBVrOAXIAdPADYAQQACr/TsCJKoUfAGkjf17+zRoCIO7nB6DlppgBXI5AAPpFIgCiqjIB2P3grNHnXAAAJG0BqBcBADvzvgm1bAA0o5kIQGMcVtYLCGaWWW8AAK6F+AGQUwiAg+9wPvjSPIUCgMh92+MD8xAAoWYCALGbYQawNgIBSEhEAEQ1wQTg7YIWPg8AkGwBiEqFAGzPz90955b1TAD0MBWAZlTZb3m9nfmpAABEAvwAGHUIAPXiYr7xf5VCBGDjOj7RzmkIgHY/PwD1Iuj/p904AziFAFCIAMipBBOAXy8veFAZAEBrswMgDQAAyZZO1DAB0JNEABrbYWW9VQBm2QMBUAkAGH0IAPUKT9jl9IUKFQBxx07OBQAIgOgnANAt3gQzgOXlEICURAPA6E2wANi9FHC4GAIQswGgXgYAwJOW00uZAOjtRAD8Aqzsb7zezijznwQAtNYRABBUBIC6n+OT+apCB0A8zZHZYfLWxMcAACAASURBVKuGAegkAOCTIQBunDruikAANBoARl+CBcBFPMF7GAAQiloD0CYBAGCU7uTJL61nAaD30ABoTMPKLin2ujujvAYB6CMAYGgYAPVPts/8c8AJAKL9Xm7ZegxA3E8AICoCANx4JdCMJyEAqkQD4HqCBcAVxvTuDABgcB/AAoAGAwLAWGIpm8cCoC5DA6BBAJV166nucS53QACuhQgAGB0YAPVOm0feX+EMANFuM/DSPA0BkF0B5AUgBgH4rQub9OxHEACdBoCWYAHwPuuqvZUQAL3FCoC0BABgnrT8YxUDAD0UJQEwPATIP9Xp3RXIKt8AALT2UwAQExiA52y2Ah4NMAEIGelMSzTa3NaTlNgAVFu34OKTGgYg4ycAEBQBAEtud1+DTn4dAtAhkQCQEiwA9jNjPOZWAAA0MWoOQFSCALAn5iVHGADoQjMJgHoBACDs83o7oxyGADRRADAUDID6nOVdYWUBFgBiT17D+jvDLABEy0FccY2GAUj6KQCkIQBuPAm85yMIgEYCQFZZADxosrRTCgHQ4qYA+OUQBOAo+1dnn2MAoMdJAGSHAK7f0Rn3MrccANCqUAAw+jEA6t0nLB44kwFAqBu+MC0GAwCrD/LUhRoGQApSABiaNhYAcNSFDfpzCIAqUQAY2gBAAJge89iGANCSJgAE5RAEoPqzZvtEUxgA6GkSALg513ndnVEuQwBUEgCDO8bohbl4wnIAAAEIN+MXpiGNAbBYx5l6hPHC1LX5KQD03AyfjJL7IAAKCYAAA3SLY15zahAA2eZEADTLIQTAcdPfLfoDvT3hgC52Mwzoxr98CQKQHTJyx45LrC/Gm/eYPa4WA9DO/mJ0igiAHWZbgcVHHHwxwBvjQ5NGN2aS2QWbs0miABBiTOksN3b+hQHQxTbUng09UggB8GmLnd2iWsaITgxSAEBLOj/zdgJNlgELAeggARDWGQAcNFsJ/GcAAZA2mzO2iBAAs+w8X3yYNWcMB0kAZOCysRt3juccgAAEKAAIKgOAH1k9cFoNBkCvS0YL27PTyF/TGflDLIGdfY6xphOjANCYhJs6Xm4wVvk9WjXSSQCE+1mrxrvZWUJ/igBImq8adyIAPmT+6JqTrFVjMUgDQIYAuDGPzB60phuiANDH2NZ9xXoidIwBwAAB4Uxw5P8eTcuFuzoi167O6KpO3q5OJwWAFgiAtwzINPwABEClARDuZQaOrGL8tyfD0DHLbaORfeNRALaz8nOVVTD3jVtoAHSj2j7kwsb8MQSgSyIAoDMCu963S/T0KAuAwbgOOR5Lt7cbIorrEPniOnL7unkAiBQAGg0Y2HnU6+6M8haKHNFoAAgpZujo/lnoUZdg8LjeaRk5JsN9o1uxKSOxo+TIsYI3xoeCx/e6sCmXRyAAdQQAWKHdG2zDZ9ZWmABgGtiV/Tvs/79rVuDIzhgFAHS0w8sMxNwJfAMCkKIBMHh4lHV4BAePwvOjgyfI7WPH8wBAC7lFpYrT2PGCN6Yb1daN94GchYGdHRIBgH58uOtiif1D33UEQDVHkNW7jLMdLQQAGuDh7h3eFQGs8gQ6PaLQAAiHmACoFx9Dw8VCAPQ2m+OjYQDAL8C84rYjzk+P5b8x9QKs7dfc2JKHIAAKAYAQPt598B6ep55xAMBGLl8rMQBykB8AnN7BuyWIVR5BACSIAITrmACou1fNL3hSFQAgbHd+PANPjxQuAqysCDg/P57/xvSg2rrxVVl9HwDgqsQPQPbK10IAXuR67IxaOgBb+TY1puD8DmkCAOiaNy8UgFleQxkkAtQcclqCnUPqSn6m0CIFANBjB0ADBCB/GWdqaX4OqTwA4kEiACPHx0dr+2033gl+GKZ36CIAoOEUb//gnUQeoQLwAucvf+EkzvAU5AfAF4ZXvXsngpjrOOUQgCZyEknFJIncm0tHu9LfwGVyepQriWQ+AHknOo5VBdgAxJupAMRQbV05VnwWADCa3cEegOELX/MBeHsu74NLamgA/IS7SutwjscYPwCNGTgEeMbr7axyCmWR7CKnkdZVkzSyV3KBwccAABLfRRL5AORS9BSXgjzS5Cyyo29MC+oeT7lxx7gE5nhVJX4AAijNO98CwHBrzKQAQMmzVImzPLfwA4CWAb3cgOxXB+WRdnCRhKaaJZJfNfwpWQkAMOwByAAAhqNzpuXuk0IAGLx55HNvTL2BusdmN7biYQhAFz8AjIteSLc9zq3lBmDjVsoPz8L3PMT5Afhf0psDkDYCRm+S6KVfJaWrplfJvPh/9u79OaryjAN4SoO1JIA0DAO0okwBk1EIiQRULoGKGLyU6mihKmUExrZ0FB2tdqjQWoujIFALONNBwbZCqajDUGtLW5S2QG/8sOewNcnugb2xl8leQthsdsPm0mRzI8/7nt33nL2979nn+wcc8p53nw/nPZf3SawD7gcApN5Geli/96G7OFteIHtJ9f/+vMytpAZ/MR1EeQh5ATDY733wcs7NDgDZ6m3jZE3/+KhD5WwAVC3RNqolZKenZnYAiDXAb7HYqfePyV5SLu3NJBU1AFoiJ3b21NTntQPQDADofX1k3ou0bpID63/NANRLRHkI+eEo0egpqDADIJHNXo9q/fdnP8ICwGrNm6yQvR4D7ACcgwD8BYudmnUEADbtAASkiHo72RMPFUMA/KkBgBvJjyg6vZreT7rvy0K7dgD8RHmcFXIKH4etHrvYASDbvW/Q/geU7lmYCoCqmToOS3Z7bmYGgFgDPIq1Tj/LPyT6SXdqByBgiidpKH9idfoArBhe/sMBcF+xawcgTJTHw0L2AySaPV+WmQEY7PY+CMC+Cj1/wpTVSQFYfG+pnqPeQQAQYAegDV4CfAOLnZodBAA+t3YAAp5OdQAisfQBMDeoA6AkutNqBCCxVf3w8hB0C/knAQBOhRmABhsE4IzOP2LKtIVqAFTtLtV50JEQALmJGQBiDfB7rHVqij8hAOhrKKUNgIC3O18ASGG7DgCiRHmsFHPfiIkXAAAxZgCGLgAGADhVovvvmLD3OgoA66fN1v9q1ehyCICfGYCL4F2gh5/DWqfnTgIAX5cOAAIBuSUvAISa7DoAaCLLQ9BtI/4DAXAxA2C1QQB2pndLeea2F24Zqv6fHTy0ZVxaBzwAAVAamQFoxweBjPkjAUBiEaAZgKtuBOQOAHfUbtcBQP8Hx1eXx6vjxJy+1wAAPoUZgBYIQG36j0FH/WvLps17/3Zs9ryK9A92czlcV0SZAWg04aYAbOntKg8A6H0jWDsAocFlQM4AMLc16QLAT5bHPWLOXvHzAIAIMwCyAwKwhrfRbYMAmJgBOG8BAGCLILWf0IcEAL64LgBCISWSSwBcgd6WIjoA6CDLY4Sgs3fbJQBAAzMAnRCAB7l7D6puIbyzGGYF4GIrAOC/WOoqKXmMAMDXoA+AkCeWOwDk9qYmXQA0SkR5rKwTdPI+BgBcVlgBkGwQgJ38De8ABCDEDEAY3gQYj6Wukul3EQA4FH0AhEK99wJzAUDiv39dAJzzkuUhbP+odwAANmYAGhwAgFMcVshvIADmelYA4AdBltFY6Wp5igDA55R0AtB7JyAHAJg7mpp0AhAly2OFsP87/BoAEGEGIA4B2MHj+A7DZ4vtrACc9wAAsEmgasZuJQDwxfQCEApJsWwD4PI3N+kFoI0sj2WrRJ25igsAgG5WACQHAKCGy+dksyEAXlYA4E0AC24LpJ41JAC+Bt0AhELmeDYBsHrDg/WvGQC7RJbHG+JO3CUAgJsVACsEoJrLAY6vAgAo9awAgC8CLfg5QLKlJAmATdENgN8fcMWzBYDV1NHcrBuAehNZHr+bLOy8fQgA8CmsAEQgAFP4HOEb8PXCdlYAwJsAFksZ1rn6ImAjAYAvaNYPQA8B7nhWAJDam5vTACBAlsdXV4k7b38AALSwAtC7AhgGQC2nI6wrBwAEWAE4DwH4HNa5eqbcSgDgi0hpANBHQIYBsFr6yl83AFFKeYh8c+gxAECMFQAXBOAMr0McCQDofw6QGoCLAQDAl7DMk11MkgD44mkB4PeHlFgmAbCaBspfLwAdlPIYIXDnuMl3AQAaWAGIQQDm8jrG++EXRmFWAKIAANwUJFlGPUsC4OtKD4CeSN2ZAsAdaAs3pwdA2EyWx9siN48+eQkAILMCEAQAPMPtGKeWAwBaWQHoAACswCpPlkmvkAAkHgWkA0Bra2tA7soAAFI03JP0ALBLlPIQerO4SgCAQ2EEQHEAAM7wO8jDAAALKwCNAICV2CU4aa6lAOBwpw1Aa6s5fQC84XDaANSbKOVxk9BTtg4A4GQFoAECMJffQT4BAJAbGQE4BwCw1GGRJ/85kQD4bHL6AEhcANBoUcjyOFsi9Iy9BgDoZAUgDgB4kONB3ggBaGME4KIHAIBfBCfP+OMkAD0CGAOAeo9CAvDoBLFn7BMAQBcrAEEAwFM8j/IrAIAoKwB+AMBmrPHkqdhKAuCzmQ0BgFchAVgm+pPh5wEAVkYAzA4AwBqeR7kdAOBhBeAKAAC3BEiV6beSAPicZvEBqB+q/6vKQ/QHw6WXAAAyIwBuAMB8rvfLOgYASLwJwAJABwAAvwZImR0UAByDAggLQL1HpgAwR/TZOgkA8CmMAHQBAGq5HuYEAEBic2AWAOwAAHwOmDrVFAAGBRAWAK9MAeDsGOGf2wAAbKwARAAA1XyPcxflLiALAPUAgK9hfae+EXiEAoAjqAgNgFemALBrqvCT9QMAgJMVgCAAoJLvcc6h3AVkAeAzAIAFdwZOnTEvUQDoF0BMAOotMgWAt28Uf67WAQAijABIDgDA3/ke524AgJcRgIsWAMDNWN+pM3crBQCHTREVALtFpgCw7AYDTNU7AIAYIwAKAKCG81fkbgcASKwABAAAX8fyZsjE9ygAOHrfBxARALsk0wD4sRFm6pcAgC5GAFwAgFrOx3k3AEBhBcAPAMAm4Uw5Op8CgMNmFRGAsFmmAfBdQ0zUSwCABkYAugEAG3gf6GIggJ0RgCgA4PtY3Gx3l2kAOBxd4gHQZpZpAGw3xjw9CQCwMgIQAwB8yvtAvywTXwQzAXAFAIAdQhlTSQXAEbMIBkCUaFWfKI+lBvks7C0AgJsRgDgA4F3eBzoNANDOCEAHAOAmLG3GfEwFwBY3iQRAo1+mAjDHIPVfcgEAIDMC4AQATOd9pIvI54BMAIQBAEuxsllzhgqArcUsDgB2j0wFYLlRWsRcf2k4AJcVRgCCAIBv8j7SJ3QC0AQA+A4WNnO+RQXAFnSJAsDQ8n84AIcnG2WKbgMAOBgBMDkAANy/Egm/BvAzAtAIAMD+gBoygwqAzZa4EcA/AFfgo6P+rB1nmBmaqBMACQBQw/1IbwCTGdAJwHNY1lpWAQ4qALaISQAAAjIdgOUlxpmgkwAAGyMAZgDARu5HOpr8IJgJgHoAAH4NpCk73qQCYAu6eQcgLMl0AOYYqUXs9AwBUMv9SOsyBMCPsKg15d03qQD0LAM8XAMQlWU6ANsNtS3kLABAkBEAWTgApoLJNDEC8D8AwPewprXlofl0AGwRM78ANFlkFQAM9hj4TgCAUycAH3A/0jLyYwAmAM4BAF7Fktb6G3uPDkAwaPVwCsAV2U0H4Gmj9Yd+XOcVgBvM53HuRzpO5xXAZwAA3BBA+53mrSoABFvMPALQ7IHNJAcAWH+H0ebmWp1XABCAI9yPtBhuCqYTgC9gQWvO3FoVAILBbg93AEQVtwoAi433KWimAPgi/0NFAPKXsUfUAAi2KHwBEDa53SoA7DLgXhAIAAKQi4yvVgMgGIyZ+AHAHpLdagCMNGJveAQAAchNKuerARAMWr2cANB39U8HYGlJEQKAACAAejNlqyoAzojs5QCAdsnlVgNgvUE7wiAACECuUnFcFQCns1PKNwBtFpdLFYCq0UUIAAKAAKR3I2CdOgA9BJjzCUCz1+1SB2BtWRECgAAgAGn/3F5RB8Dp7DLlC4D+8lcB4Ol7jdsUHgFAAHKZSc8mAcDpjJnyAUBboL/86QDsMvJG0AgAApDTFJ+ZnwSAHgKUQI4B6PC4hkIBYHlZEQKAACAAmcrLG5MB4HTGlVwCEJV6j6YOwOJjBl+UIQAIQI4zdn9SAJzOiNWTGwDaQnLf0VQBGFlXhAAgAAhAZjNrY1IAEiuB7AMQtbgGjqYCwPrdxUUIAAKAAGQ6Y9alAKDnMsDlySYAHQF54FiqAKydZPyZQAAQgLzkZG0KAFpaWjrdluwA0OY3X3UsFQCqZhbCPCAACEB+UjKjJhUACQM8mQagI6QMPxYdgG3XFCEACAACkL3M3ZAagJ7ErZI/UwC0RT0D1Z8cgJ8vKZBJQAAQgPxl+jMMALREIvFuWU4fAE/IbG24OqoAVG0uLkIAEAAEINsprvw2CwA9iaUPgLkBRAWAWxaVFs4MIAAIQF5T+pMavgAoP1BXSOcfAUAA8pyK+2o4AmDtqsI6+wgAAsAnAXkB4PDpQjv3CAACwEEm7X+dAwBefLnwzjwCgABwkes/3ZdfABZOm1eI5x0BQAA4ydhfnMofAIsX3V2YZx0BQAC4Scm/T+QHgAd+Wlao5xwBQAB4yun97+cagIV/2lRSuCccAUAA+Epp5Qe5BOCBPXUFfboRAASAu/y1el9uAFgw7fbiAj/XCAACwGHGz6rel20AFqyeWYpnGgFAAHg1YP9HWQTg4N5r8BwjAAgAz5l89L5/ZAOAR7ZtKsOziwAgAAKk7lf/fD+jAFy3Z0kxnlYEAAEQ50Jg1ow/f5QJABYcPDQbl/0IAAIgXooX/Z+9u4+Ro6zjAB7lCmKvXGqvl6YSwdoWCNqmhrYqAcGiQjE0xaZYkSZQhIB/tGJFqX8IWFo1SE0aiASkL0KggrWRFEIlpcQEjfLHzOxsd3dmZPdmM7PT27fs3e3dbe/NvWtprr95Zvfp7Nsz6/f7/13yzMz3s/P2PFM7AOtmYzsCAAAQzFxUOwCfxFYEAAAAACAAAAAAAAQAAAAAAAAAAAAAAAAAAAAAAAAAAAAAAAAAAAAAAAAAAAAAAAAAAAAAAAAAAAAAAAAAAAAAACAAAAAAAAQAAAAAgAAAAAAAEAAAAAAAAgAAAABAAAAAAAAIAAAAAAABAAAAACAAAAAAAAQAAAAAgAAAAAAAEAAAAAAAAgAAAABAAAAAAAAIAAAAAAABAAAAACAAAAAAAAAAAAAAAAAAAAAAAAAAAAAAAAAAAAAAAAAAAAAAAAAAAAAAAAAAAAAAAAAAAAAAAAAAAAAAAAAAAAAAAAgAAAAAAAEAAAAAIAAAAAAAAAAAAAAAAAAAAAAAAAAAAAAAAAAAAAAAAAAAAAAAAAAAAAAAAAAAAAAAAAAAAAAAAAEAAAAAIAAAAAAABAAAAACAAAAAAAAQAAAAAAACAAAAAEAAAAAAAEhN6f7VPbUDsB3bEQAAgMCla8Pjf3mjOFI7AOof9r1/JbYnAAAAwcmiA8eeLk6lHgBM/f339+2Yh80KAACA+Onc8dJfC4VCsa4AlHPDKxf9CVsXAAAAkXPZhoffKEyn7gBMZf2NN2MbAwAAIHr7GwUADAAAAEDMdBx5+GnTLDQcgPJ/+dmzFwMAAAAABMqqpf8wp9IUAHT9i/es7QYAAAAACJHuDcceMc1mAlDO+ot6AAAAAAAtT+eBrea5NA8AXb9h8WoAAAAAQGvP/d97wTRbA0AymXxlRzcAAAAAoFVZ8s9HTLOFACSTl78/FwAAAADQirx7qUnTdACSyZ175wIAAAAAmp0F7vq3BIBkcv0DCwEAAAAAza1/1hQFgKT1f0cAAAAArczGS7NZkQCwrMvXAgAAAACakq73VmY5AZhoFgCWNWs1AAAAAKDh+fTyzdksFwCTiibXDoBm6FwAWFdf1wMAAAAAaGzW3JnNcgBQ1OXc4OBgHQBIDQwN2xYHAJZ1096FAAAAAIDGZf7ueLY6AKNJaar99QKgnPxYxqgOgKXsuQIAAAAA0Kg8szleFYCiLuXS6XSdAShnLG1UBUBR9l0MAAAAAGhENh6bOmYqAlCMalPtbwgA5ZTsZDUAlBW/BAAAAADU/+bfByvjVQAYVzLpj9MQAPL5gWG5CgCKsbgHAAAAAFDnn/+fnD1mvAAoROVcLt1oAPJ9fUMZqyIAinLT1wAAAAAAdb363xWvCEAhmcrlmgNAX19+2KgIgKLs6wIAAAAA1CudR+PxSgCMWplcrnkAlDMsVQRA2XMzAAAAAKA+ObK5txIAo+rZ+jcRgL6+klYJAGXb7d0AAAAAgNrTsfS53goAjBqpXK4FAPQlhuwKACjKhz0AAAAAgFoz//UZB4wLgFEllcm0CIBEYkyrAICy4g4AAAAAQG15d2uvNwDFqfq3EIBEoiR7A6BsexIAAAAAUEuWr+z1BkCfrn9LAUgkhg1PABTlui4AAAAAgN/M3k0OmJkATNqZjAAAJPpyiicAyqFvAwAAAAD8pfOdXk8ARtVMRgwAEom87QmAsmIOAAAAAMBPNm7t9QLA1O2UOADEYiXVCwDl/lcBAAAAABeeJZsdLwDGpVRKKABiiZwXAMa2NwEAAAAAF3yMXe94AGBaqZRoAMRiY6oHAIZxSzcAAADIBeWDXscDgBEtJSIAUycBHgAYt80GAAAAuYAsdRw2ANkzP/8CAlA+CZA9ADBe6wIALABeF36kHQCgFdnkeABQlFPiAhCLZTwAMD6c11b7514CQLZtAZhLdqfkE4BvoNQXoO6XHQ8AJjVbZAAikdMGGwDjs221VNgan2cACtmf7wg/0nlkd8qcAIQIAL9GrbnTvd9hA2Aati04AJG8zAZAPdROc4OW+TwDoAD8WPiR9vg8AwgTAB5Cr7n7/7bDBqAo2eIDEKGXAeeqsaeNBFhCAIhzAmAQAL4u/EhvJQDYnABECAC/QLF5z//P/f4TAEY0OwgAlC8DmAAY2w59vm120ok6AbBV+JHOqRMA69Bszv7vdpgAZJO2HRAAIkMqC4DyVUDb3AlcQADo5QRAJgDsEn6kXyUAZDgBiBEAtqPafNniMAEwVTs4AEQSEhMAdV27PA38ik8AJPpUR/gXJP5GAEj7BOA/qDZXNjlMAEzZDhIAkViKCYD62tz22E2rCAAOJwBalgCwSvSRPkkAGOQEoI8A8CC6zZPDDhOAUckOFgCRSJoJgHpfe7wVPPuj8wE4pXACYBIAlog+0hsJAMOcAAwQAG5BuTnyssMEYFzSggZAOHyaCYDaJgfCiwQAixOAAgHgZdEHeh8BoMQJwBgB4Cq0u3rW/JkJwGR5+wUPgHDJYAGgtsfcwIMEAJ0TgBECwFLRB3qIADDACcBpAsCbqHf1W8u7HBYAUS2YAITPPAygAKht8e3AJwgAUU4AJgkALwk+zo77CQAxTgCGCQA/Qr+r3lh6ymEBoGtBBSA8oLIA+FY7LBb8PAFgghMA/XwAnhP9TaBr6XudYU4A0gSAV1HwKuk87jAAiCe14AIwLYALAPWP1wZ/b+0nAIxwAqCQM4CVHWKPc617KgAfABkCwB1oeJVzrbcdBgBxSwsyAOG8ygBAfSj4LwRtIQAUOQGQ6fTuRWKP83YCQIoXAI0AcCUqXjmHGf13zvU/qACUBWAAoD7YEfTd9W8CQIETAC1OAHhG7HEudj8F5AJg5mzgaQC6UPGKOXKKBUBSCzoA4QGZAYAc+HvCnyIAxHkBKBIAviP2OHcSAMY4AYgQALAeSOVs/Hk/o/9RLfgAhPMy6y25xwK+w04QABxeACYIAGLfBaT3AJU+TgASBADMBaqYy473MwCISjUDoLYegNCAyijHJQH/YEgnAeDjVwGrAqATAK4X+uXoL9EFwSKcAIwRAH6IklfK0X4GAJNSrQCkrInaAbBrBSA0xPp1XBfwdUIfJQDonAAYdJHXZSKP8rfuycB8AJwmAHwXJa+Q5f0MAEak2gBIyxPF4kjtAKhGZqg2AEKnWeUI+LuhxwkAE5wASHECwOMij3IF4x4gFwBpAsBn0HLvLHqRAUBRrgmAnDpeLNYHgGg0aQ/VBEBomFWOKwK9035DABjnBEAbJQDcKfAgv0cXeh/iBcAmADyGmnum+4l+NwCFcweMHwAyydFisX4AlP9eK9UCQDjDKMfdgV4gaAsBwOQFIEq/8yDwjOC9lvtFYC4AZi4JOj3sW9Fzz2zqdwOQNWoAIGONFgr1BaAcqeQfgFDIZpTjtkBfthEAHF4AFArAAXEHOctyrQjKB0CMAHBXB3rulWX9bgDiiuQbgPKvf6HQAADKZwFD/gGISYxyBHmCyAkCwNnHANUBOHMTYAYA4i4N3nO15VoNhA+AMQIAngJ6pvMpBgC65BeAnDFd/0YAUP4vqQG/AITyqrscdwV4UsDCbxIAopwAnLkJMPNbj9eIOsZn6dceB3gBGCYA/B1F98rufjcAE5JfALSRQqFxAESj1qBfAEIlRjm2B/jM8AcEgBFeAKIUgN+JOsTfEwDUCC8AmfMBsPEQwCtr+t0AFGWfAKSihUJjAYhG1TGfAITSjHIE+CLgKAGgwAuASgEQ9esg/6IffE+FeQGQyBnAJ9B0duYedAMQVyV/ABhFs/EA6MlM3h8A4ZS7HJcE92MhhwkADi8A08uCzQQgu0DMEV5FASjxApCgAMxD1dnZcsoNgCL5AiA1aZrNAEDXjZIvAEJh2VUOKbiviN5LADizLCAPAJMUADEnBM3eSQAwYrwADBEA8GVQj3zulBuACdkXAGrRbBYAejKX9wPAyQE3AFJgV4q55iMCwCQvACoF4AUh5wOstQgAqTAvAIMEAMwEYKf7uBuAguwLgKhpNg8AXZcH/ABwctgNwN2BnSh+kABQ5AVgakrweQBk3xJxfLMoACVeAP6rEQAeQNeZ+ekpFwC9hh8A7HGzuQDoyWE/AJzUXAAEd5rIfgJAnBuAKAVgq4BPQ1ZbBAA1wgtARCIAg8Up0AAAHONJREFUzEHXWZn/qBsAXfYBgFowmw2Artt9PgCIyRQA6QtBfRngLQJAPzcAcpwAkN0g3vAWUwAy4f+xdy+8UVxXAIBpcG0aA3YF2OHVEAzEUQPiUUGCbBpHCVHSOoojIKkRCiWqWlKgtAiMCNC0ILVJ+sgDBAEVR0G4jdTWaUXbKH1EQKukKaCZ9Zh9wi4znV1s70OLsdde27jexWvvnnNm954lVRg09wfM3dmZ+819nHuuKACdAICKYquxU2VLGwJgQOYDEHCo6mcAgFuK8AG40IsAkMx6aNRpAEAyFEgIAFcfBODWWwmcVQkB6BQGAEwBSNbBoGS5qw0B4JXzAKBH/WwA0DzdfABaAggAyaQ7xQp2AAD6hAHQIQCh927NDoCemQ9YDAA4BSBZyQDIsg0DoPEBGBn+UwCcWff/BEDT42wALvhkBMCLJj0v8GUAwBVhAFwqBOCrt9gswPFKCEBMGAAnaP/Sg1ZjJ8q4NgRAn8wGQOpSDQE4s6tg7M0DcPb8oBEAmh5jA5BcCQBtw6SBop8AANo0YQAcEIDQc7dkB0BHQQACAMRB+z9khQERZfI7CACvhw2AFFWNAGieP/Rh/RQAuGPM6TlGAGhamA1Aix8BUGTOpcC7IAA9wgBIIQjA07dUN6hGhwB0tAoDELCmAETmkNsQAA6ZC4AC2v8oAL8dmwwu+VQAGDNm3wkjALQgF4BEBbBtmDRL+GYAQEgYANcgBOAm0wJMfnb51xp3f3769LMbvvLmr28242rBdARAuzAALXAE8B2rteNSvBkBEJW5ACiqagDAR1NvVAMBCOcGIEIAMKbg3/UGACQuyQNgaBAA24ZJuwA/AQBctQkDMNoFSAFwNP9dwTNr55RnRu3PePXBm+lR7NEhAEG7MADdEIBnreaOy8/bEAAeLgCyagBA88iyci0fgE4AwHAY55QVBgBoAS4ArbhtmPMjMQ4A0HZdGAD/dQhAaHGeX+uFGyphzF7iRMZFr+edhqtwPwIgIg5AGLT/h61sQLh8cTMCYEBmAoD6/8MAdB0bP1LPfABAIDcA3QCAR1LXWnCYBkALMgG40ItutciU80QlSwAAIXEA5BAEILQgr+Y/XYPz9alD2bc+nmeM1Ss6BCBgFwYAjQD+YDV3XLa3QQAuK0wAqPafAOBk+qLLLgCAnBuAGABgNH33xAPVJABaBxOAlgC6VXMuFW8DAFzVhQHw9yAAvsffE7SsIbEWYwCAx7Py3nzGVndrCICIOAD9EIDlVnNHZeJOBMB1mQeApKokAB8Uple0DwCg5wYgAABI38ixahMJgH6NB8CFdnSrz5iyC/AJAKCtRxyAVBdgFAD1JW4PZEWllhUARfklP/l6yWEEQNAuDkDYWgRkzACMABBSeAC4ukIUAF3zMgdc492ZAGi9uQBokQEAGVEcU0+QAOgxHgAXw+hWTTkLMBUCoIoD4B9EAPyANwiYNSP19xsDoCiv38kdAGgIgIg4AGgEcIfV3PHA7R0EgJsHgL8vRAFwdC+sqh4A4M8FQL8CAMicSipeQQJg6+cB4ES3+rApN4z8CABw1SYOwPBCQBoAavMURt0LyzURAJQNvE/wLg0B0GEXBwCtAXzXau/E7DEEQFVYAPh7QhQAT89GVa0DAOiRHAAEAADPwA/IqfsJAHRbJwuAizF4q+Z8UbYDANLGALmfpxsBoL4gXvX8arcYAMq7hYw7eqwcAeBxMgCAUUAV1giA+m5AANw8ABwhAoDo94kHfRAAkAgFygZAuwIAwHv1auoJAHSlnQWAXYIAbDTjatHSRwEAlxkAuKIIAFU4HOhUtVsUAGWjeObFaa9pCICYXRwAH+wAfNtq7qjMvQQBUBUWALYQBcD5aURdf4MADHUBsgCQStw5+ktq8TVP1xEA6C4fB4DhLkD6q2LKTYHbAAAJykUB8NswAKLTAMvTnkBOAOR3hYcWRzQEgORkAAB3Aks/tNo7Ki8jAHQWALJKAXCM/IIW1AMANFc2AEDOrqGf8DFx0bIGAgC9gwVAqwQB+I95xwBpj7OLAUByKTATALV5pki1E6pYAMhnBWdY9mgYgE67OABoCrCixGrvsKx5FAIQVVgAdIUIAL5u0IM+AAEYWbUnAIgoEAD6TKf7SgkA9F4OADe6ABmJo54y7Rgg/XHaGAAk5gEBAOo5gSazdL+bB4D8iNDd3H0/BiBsZwDQLwMAHrfaOyrfuAQB0FgAXA8RAIw1qu04AkCLGwHgUzwQgFr6qlNKCQBs7RwAkl2AjJflXjM+zbcgAD0MAPwaBkD9IGcUf8E6NxcAWSQcZ1bmukLyqrKdA0BAtlIB5Cp37oQAqAoHAFuIAOCAcX2lCABbjAYgInsgABVGE8hDAiAAdMnJAODiNQhA0TQTPs5vQgC8HgYA/gEMgJpzU8ApBx+Ah3LvECyr0zAA3RwAIuCJSmsnWw0erwFCANwcAOQoAcCxLDPoCxEAup7cvwMB6Jc9CADjj3JhAwZAj3EAcEIATBk0OnkzfJwODgCSigFQP8xe5cxNeQAgb8h1J5Om4weqd9g5AIThE7WSgQn0Gb2cFyYRAYQA+CjbClpBAwZAV/ohAM4AemVkuSLL+tGaOvy+JEPGRAHAr4sppwHRiC7Eep42AgB1XvaZegcJgNQR745EOuNhmQRAztEbn/QaIbri5ACASD/0mNXeYXPEs0bXOS+M24vfl3MTs1b5BAGArvv7nWkPNhJWiFdGzjoqP16OAZCcDADaIQAuM2YIx3O6rB6df5AAYH22cIDjDgIAWzgy8sfbu/0UABuzdsdLThBjutQKgCAAaFBnhQHj8nu4bnSZM2aUVAzAmVyLvOsoAIZ0D/dGEu3V133NlfpkZL4yv8oexbW3GgFgizEAwFNGpuwxvgUB4M3ppBZ1MsZ067P0ARoJAFztmfJ2S/hpZo21nHSCmNXVY04OAHha9wmrvaMewGYIwABn1njAiwA4OTtXnbOrSACoQWPmK5NrTP4GBsAWYQDQDQFYa8ZowHFkWIc4ACPTABnLOobzADOrEADJWd3MdmoPoqe5OkusZWEDta4bcLIAiMOF3YetKUBU5sLgcda6sc2LARA4VOZgfgDkXsN9BQPgYgBwAYaNSE+acxoQANDFi+vwUACoiw2aa5MDAmDrJRZ1WjtQD8B4TW72DCqyS/KxAMChXVYyQFyehwBEOZFjUQzAhyLdjjn5APDT3HtIJpYiAGxxcQAuxiAAfzXjM92OtnZovNBuBwWA+gU6IugwAiBOruq2hhEARnH5y/ZTsd2eiJMFAArurrjHau8GI4C0N2aQAYDDiwD4nVCnecphPgAr/yVw4QfKEQAKAwC0dcSUY4CSHRCAKA+AQA+5ueMcFRU8wQEBCBrFdfkhAAY783ZVUbu7buzwFgegFW3vetVq76gsgBkkrnjEAbixgTwDgKOC+7w+rucCsFVsUf6PCADbNXEA0OZR6XOmXAlE6R005vbuPgqAUPM+XNcBCEByG6ZBYCcAgJwGLHizmtrfrcedPADQBu9DX7baOypbIAB9jO2jPV4EgPCpsl8qZwKwR/DCjQgAj08cgO7bYgxw3xIIADO/Q8AVJRM8EIsBpRCAuM9wa0cMAkCMAQp3kxleUlnehAEY7gCk3ey3rOaO54t2QgDc4gAoIQTAMfGqazZxANhaK3rdKXUQAKMMchQAaPeYOXNIv41SPDIzPCWXAqgcjy+Mz6xpfDUAQPYZA9AqAQCK0L9bU0fneAs6mQDE0M1OsNq74QhgBACvRxyAAS8EoHk8o+7jdeIArGQE5S5EABjkkKUA+G/H7bAOMOY0AoCb4zGxx5tM8vrPzAQBex0AgFgWAFJdgNGf8RT4IDXRaZ71gI8JgBPdrHUgmPEawCgAfeIAKF4EwCpW5WtKRQFYVMOZ12zUxLLIkwB0SrfFUdJ/Qsc8DMrcNO90lufo+pfS90j9GACgt2cDwA4ByJwEmFVKH/QwmjNCGIAgutknreaOyz8gAJo4AAMIgPPM2oubKoUA+E0Z67Jl5WLnyJAAoFCAF035YB9AALDPeTA86CV6Jq0TcAQA4PJlAyAjwyPccV08tsrgpBdJ8Kyn0QfaiW7WigImylJ4nKzXIwyAgo6S+tlU9g9YdTg3AA/VcvNIHxQ7SY4EAI0BDplz8fhtCMDVHi4AATlKA9C1fvHI+t37AICO7ADEAABps4A1DUZnvY1+/4UBcMGbXW3NABDlzxCAAXEAehAA8/L4BRObqnIA0FjGvmhxAzpL1icMQOT2SCK3ZgkEgH3WYyCIBUgd9nryjeGo2hkAgHh2ADoBACP9q7JGt9Fpr652NgAx9PJauUCp8hcIgC4MgIxOkz2TXyL9sqZyYwC27t6XzzWfEzpNngbgImj/q026erQFARBlAxCUDI97j/79vWQ19QCA/uwA+AAAa2/82ElNVYbnvfvbfVwAnDJ8eVdbJwJTi4A7AABXPMIA4PPkf5Hvzygc20ADsGjFrDwv+T4EwGMXBQAdJVVkzsNkly6BAFxxsAEIuvqMAOjqOpcgYBMAIJIdgBYAQFHip5YcrHc4jAAIph0eJwpAEL28VgwAVeZeAgD0iQOgQgDO3UQ7KVh2oLQSADDjyML8927VoE5FXBgAdJikSUePzyMAvB42AEH/gCEA/2PvbnykKO84gF/jqbVHi1goXEFrISBpi0pFakDAckBstSFYSnKtILHWqqVShB4WUlLkLRqlhoJYaLGF2LQkCmk8JEVDadqYhjaZGwZ3b3fsvjG76+7OLMfu3t7L7m3v4Dhuf88zu8/N7MvzrL/vH7DZZ5/n99lnnnnmmVTqreP1TnsA7O//979uePkDALSkd+QAZIjBuwQ3AdLyNgTAyQyA2wMB2GLzy4xbvu/AmxuXjR+/bNKrb1y3aYW9T1sJAZCYATgPAXhSzN4d/TwEINw7cgBisT5zAFKp90cIwIcAgOCDe9c4naYAaD3ekQPgaCMG7x1Y7LS8CAC4JDMDkIIArCvVlyrNhHsbsayQYAXgQhAAIOr08QQBQDhgAYCQuwAAKbsAzHM6zQFQM14LAESJwXsjvg6MWmotAABdZQVA9UEAHuOscSchAAYzAPCZ4IWi9u8CAgCPBQBiMSVVPgCcBQCQ4l4LACTIwftLLHZa/nERANDFDEAfBOB93lbKlkMAFAcrAPCZYJeoJ0lOJQAIZ60AEHNlqwGA4fVaAMAhEYN3cz0WO3WKCAEIsAIg6RCATdz9/W2ENxa6WQGADwS5hH2dXCsBQNhtBYCY4a44AHJPxBIABjF4v/cprHVq/gAACMusAGg+AMAx/g5bOwMBCLECcAEcCuA6JWoPNx4lAPCplgAwBi8DKgaAlIhYAiBDDl68BWiSwwAAv8oKQBYCcJq/1o0aDwBQ21kBAIsArs3CdvHPCQAGtgNZAcAI9lUQAC0aiVgCwNtGDN4bv4ClTr9NtBgAkGUFQPIAAJ6bzWH7DsC9Rd2sAIAnAveHGkTt4/qtBADhnDUADEPtqBQAA3//lgA4FyIH70+w1E2WiC4CAJysAMg+AMBNPLZvGwQgxAoA2AngEvI1wYMLvfcQAIRliwAYIWdFANDSkYhFANLk4N2AK4AmeQUAcElmBaAPArCbx/YNLAPmATB4H6A4AGAngEvcVcC6umYSAI9iEQDDULJlB8AdTESsAtBJDt4puAfQLM8CADwqKwA6AOAdPt+i+xB8vKCTFYAoAEDgV0o2PEoAEE61WQWg/zogVV4AlJ5IxCoAVxcAhg/eF7DQzbIeANDBCoDqAwAc4rOBRyAAUVYAugEAZ8Xt5fqpJADhPssARKMxd6p8AGjJeNwyAA6XQgzepfguINO0AACyrAC4IQDHOW3hRgCAxApABACwUOR+biYBCLutA3CVgDIAIEcTcRsAxFQCgCm3Y52bpfEiAMDJCkAvAOAgr8ruBQBcORaEAQAHACAo8l7ysVtJADyyDQCi0ZCzDADIxkD5WwcgrZIA3IJ1bprHIAAaIwCSDgB4htcmboEAdDIC8BEAwCX0gZKTjxIAhHXVDgD9BGi9pQVAjV4pf8sAZFQSADwGqPBNgDwAwiojAJeXAIYDsJvXJjaMBwAkGQG4EAMAzBG6q0+QAIQ77AEQjRpytnQAKOn4UKwBEFdIAH6P7wIskB8CAHRWANwQgFHctnElACDICkAaACD4a2VbSQCu3AqwAUAymQy6e0sBQCDYnUjYBMCrqCQAv8AqL5B3AQApVgCyAID/8tvGfQAAlRWADFgDOCV2X4/bQQIQ7rINQDJpqHYBcLelOxMJuwC0u1QSADwFpGC2AgCyrAD4AQC/4reN2wAAl08FYQEgAmYAZwXv7NvuIQEI5+wDkEzaBSAxGFsAnA+qJABLG7DIC6UFAJBjBEDyAQC28NtGYhGghxGAdjADeFr03j5BASDsrBUAQioJwA/wGaCCGX0RAOBmBEAGAHC8BFBXd1ImtwKxAHAOzACmCL+hfBcFgLC7JgBwxFQSgCV4CEDhTIAAaIwAOPMB0B/huJH1eymrgCwAXHDlA+AS/u9kzFYKAL5ADQDguPr/nwcA7gAokiYAwCWVEYA+MAM4xHMrZwAAFFYAQgAA8V8s1biTIoBHEx4AhyFTAJiFFV7kv/HTAAAfKwC9AIA9PDfzX3AVsJ0RgCQAoAbuKDXRpgBDAogKQH/9UwCY+Dks8SJ5BQCgswKgAwCauJ74TgcARBgBSAMA5tRAl5+gAODzBIQGwBGTKQDMbMQCLzYDeBsA4GcEYPAmwLU1gBu4bucycjMwEwA9+QAEa+KSspkCwFUBBAUgJFMAeABfBFg8zwIAUowAKACAg3w383oAQJoRgAyYATxVE+q3UgDw+dziAhCSKQAswR2ADGm1CIAMAFjHdzNfIp8GYAIgAQA4VROd3rCeBoDPKSgA7UGZBgAeAsiS3wIAsowAuAEAH/DdzIcAAAYjABEAQI0cLT1uLQ0AX5ckIgBeSaYB8F0sbpZsBQB0MQKQAwA8zHczzwAAQowAePMB2H+2Rrp9xQ4aAL5eAQFIKDINgEV4CChTHgUA5BgB6AMA7OG7mZvInUBMADjADGBDrfT7fatoAPg62kQDoFuRaQDMwvpny2EAgJMRgCwAYDffzfymTJwKxgTAeQDA0prp+AktNAB8fkUsANLDH/K8NnZ/jGcAMuanFgHoBQA08d3MI+RWQCYAzgEANtdOz/99Jw0Aj18TCIB2Q6YC8OcvYmUz5nmLAKQAAO9xfs1LnghgBQDxHwcclqlHaQB4PDmXKAB4XTIVgP+MxsJmTYtFADoAAJy/OvtWuBeYEYAPwQyglgCoOz6XCoAnK4kBQEaVqQBcPwrrmjm/AwAEGAHwAwA4Py93HATAwQbAR+AuwMKa6vw7j1IB8HQoIgCQhn2K9W8hiwEAbmsA6JxPusaUBgBXbQFQd9tOKgAePcA9AJGQTAfg8TFY1SPI/0ozA9A5X3X5DPk4IBMAFwAAX6mx7p+wigrAwGUA3wB0KjIdgG/hCWAjykWLAOgAgLEIgJC5bwcdAI9f5RgAryHLdABm4f2/qgDgr0MAxMyKtXQAPHouyCsACUUzAWA+7v9BABCAka2PrjcBQO9QuATAm5Q1OgA/exILGgFAAEaYhlYTAHS9z8UfABlF0+gAPPFtrGcEAAEYceqbzQDQO2TOAPAammYCwMxvYDkjAAiAlZx4zQQAXe+SeAKgR9XMAPjLg1jNCAACYC1NO80A0P1ObgDolDTNDIDHP4/FjAAgAFYze4EZALqekrkAIG5omhkA6h24/I8AIAA2MmaXKQB+f1aqOgCRpBYImAHwAC7/IQAIgM3cNdcUAL+/T6oqAJG02v+hZgBMuh0LGQFAAOxm6ipzAK4QUCUABsvfDIBZ+PQvAoAAlCDjWgsA4PfnXFUBIJ5WAgFzAJ7A3T8IAAJQqsuAewsAMDALqDwASTUQKADAxK9iESMACECpsmJdIQD8/i41VkkAEoZ2+eNMAZiPD/8hAAhACTO2+bVCAPj9vQMEVAaATDAw+HEmAMz8ElYwAoAAlDZ3ri0IgN+fykkVACAeVdxDH0cHYBFu/kEAEICSp2Ha3IIA9Ccrx8oLQLdLc7sLA/BrfPcfAoAAlCUTFhQBoKMj1afGygVAd0y++lGmAEyfjzf/EAAEoEyp/+O9RQDoTyqnGKUHIBNVh32UGQATP4u1iwAgAOVL47tFAehPb06JlRCAznRIdeZ9FB2A7d/Bk78QAASgvJm6rjgA/dOAVFdAKgkAmWib23kt5gBMP/BlLFwEAAEo+3XAXatYAOhPb84uAFFJc+bHFICTR7BsEQAEoBIZ9fBcJgBSKbsAOImYADDpbixaBAABqNhSwNfn8gTAzDN48Y8AIACVzIpdz/ECwPYX8K2/CAACUOlMPqTzAMD23+BLvxAABKAamfDMy9UGYNk+3PiDACAA1cqtpw9WE4CJM/DaHwFAAKqZ0Xv+WS0A3rwbj/xEABCAaqdh91urKw/Amvl43x8BQAD4SOO0Y5UF4NUzeOmPACAA/GTslg9WVwqANQfwzx8BQAB4y+w961aXH4D7V27C474QAASAz0uBIQPKA8D9K2fg1B8BQAA4zuRplw0oAwDff2MOVj8CgABwn9HLDx0rMQDzbt67BW/5IwAIgCCpf2/a394pFQCvv/TXG/AnRQAQANGuBv59yC4A826evwmLHwFAAASNXQDwOR8EAAH4BAOAvyACgAAgABgEAAFAADAIAAKAAGDKn8UWAfDkA/Ay7wB8rTQALMQRQ888WwC4puAvWKW0AAC62ABQffkAHOS9neMBAJ1sAHgBAE/jiKFnDQCgpzAAETADuBF/wSrlMADAIzMBkAUAPMJ7OycBAIJsACTzAQhuwBFDz+sAgLbCABgAAIS1WnkRAPBxSmYAwO0DANzEeztXwkWAJAsAGQnMABbhiDH5fQEAgVghALoVAMCP8BesUpohAB97nHIRALSh//8hAE7z3s4/QQDkWPx8EQC8w///r8wAbsERY/L7QgACUrfXBIB4TAEAuJ7CX7BKaSIA+H97d8zSVhQGYHgphAwNuDTqoIEoBOxkhwSiMU3REgQNOpg2oZNQBwkOJXeoFKGSUp1cDEkVhE5ZlM4JIkKgY4dOxR9QBxd/gYsObW5u7jnn4jkH3ucfnI+Pl3uP5Hrv9sFfFz0BSJp+zk89Abi66rnu+O3ysPPvE0CMjXE33hOAh//k5zb1/wPwa4kJajJ0FEQAvhn/A65INIgA5Pg4Zb892lQJQIgfAGpzEkQAps0/514QAVhlX/ppqgSgzfy0GQsgADcWfLotGUAA6q/Zl366CgH4U2B++jTUAxC24Zzb6gH4wbZ4zFc+AO+ZnkbD86oBSF/acM5OQjUAcR4APHyflQ1APMb0dKqoBmDHjnNmVAPA36q85ysbAG5W9Bo6VwvAnCVfb444agH4wFW19x45cgFY5uvfmqWqKgE4G7HlnLFdlQCUnrEp3i43ZQJQ4sVKu8kj6QDc1C7sOefLdfkAhHhRHSg5Ix6AtSJzM6AAVdkAvOtYtaG7sgHIFdiSwT6/FQ1A6SlTM+ItoCwXgLkRu84Zc+QCsMxzqh9PfjpiAWCuxtzgVK7FA5Dese7+JpJJiAcgvsr9n989ysz6D8DCAfd/5rhoCAbgMJyy8ZzFbcEA1PNTbIfIfH0GYCvPtYpZxr5U/QegVhm29ZzdZtZ/AEJt3v6F5xsdHIDjfeZqntFXb76Wqy+8A5CurYRPJ61+KB4dP5hoZRe8AxA//pjfWOLhX2q+ixNO9Ll7ANazrfwic7X9uocRAAAAAAAAAAAAAAAAAAAAAAAAAAAAAAAAAAAAAAAAAAAAAAAAAAAAAAAAAAAAAAAezx0DLe/DXy5dfAAAAABJRU5ErkJggg==;imageBorder=#0000FF;strokeWidth=3;" parent="J3e70sRWHpcorDMng9y1-1" vertex="1">
          <mxGeometry x="31.22999999999999" y="-76.45999999999998" width="70.54" height="70.54" as="geometry" />
        </mxCell>
        <mxCell id="J3e70sRWHpcorDMng9y1-5" style="rounded=0;orthogonalLoop=1;jettySize=auto;html=1;entryX=0.5;entryY=1;entryDx=0;entryDy=0;startArrow=classic;startFill=1;fillColor=#dae8fc;strokeColor=#0000FF;strokeWidth=3;" parent="J3e70sRWHpcorDMng9y1-1" source="J3e70sRWHpcorDMng9y1-6" target="J3e70sRWHpcorDMng9y1-7" edge="1">
          <mxGeometry relative="1" as="geometry" />
        </mxCell>
        <mxCell id="J3e70sRWHpcorDMng9y1-13" value="&lt;b&gt;&lt;font style=&quot;font-size: 16px;&quot;&gt;6&lt;/font&gt;&lt;/b&gt;" style="ellipse;whiteSpace=wrap;html=1;aspect=fixed;strokeWidth=2;fontFamily=Tahoma;spacingBottom=4;spacingRight=2;strokeColor=#6c8ebf;fillColor=#dae8fc;" parent="J3e70sRWHpcorDMng9y1-1" vertex="1">
          <mxGeometry x="280" y="173.54000000000002" width="40" height="40" as="geometry" />
        </mxCell>
        <mxCell id="J3e70sRWHpcorDMng9y1-14" value="&lt;b&gt;&lt;font style=&quot;font-size: 16px;&quot;&gt;6&lt;/font&gt;&lt;/b&gt;" style="ellipse;whiteSpace=wrap;html=1;aspect=fixed;strokeWidth=2;fontFamily=Tahoma;spacingBottom=4;spacingRight=2;strokeColor=#6c8ebf;fillColor=#dae8fc;" parent="J3e70sRWHpcorDMng9y1-1" vertex="1">
          <mxGeometry x="280" y="3.5400000000000205" width="40" height="40" as="geometry" />
        </mxCell>
        <mxCell id="J3e70sRWHpcorDMng9y1-15" value="&lt;b&gt;&lt;font style=&quot;font-size: 16px;&quot;&gt;7&lt;/font&gt;&lt;/b&gt;" style="ellipse;whiteSpace=wrap;html=1;aspect=fixed;strokeWidth=2;fontFamily=Tahoma;spacingBottom=4;spacingRight=2;strokeColor=#6c8ebf;fillColor=#dae8fc;" parent="J3e70sRWHpcorDMng9y1-1" vertex="1">
          <mxGeometry x="280" y="115.00000000000003" width="40" height="40" as="geometry" />
        </mxCell>
        <mxCell id="J3e70sRWHpcorDMng9y1-17" value="&lt;b&gt;&lt;font style=&quot;font-size: 16px;&quot;&gt;7&lt;/font&gt;&lt;/b&gt;" style="ellipse;whiteSpace=wrap;html=1;aspect=fixed;strokeWidth=2;fontFamily=Tahoma;spacingBottom=4;spacingRight=2;strokeColor=#6c8ebf;fillColor=#dae8fc;" parent="J3e70sRWHpcorDMng9y1-1" vertex="1">
          <mxGeometry x="280" y="-61.19" width="40" height="40" as="geometry" />
        </mxCell>
        <mxCell id="J3e70sRWHpcorDMng9y1-18" value="&lt;b&gt;&lt;font style=&quot;font-size: 16px;&quot;&gt;8&lt;/font&gt;&lt;/b&gt;" style="ellipse;whiteSpace=wrap;html=1;aspect=fixed;strokeWidth=2;fontFamily=Tahoma;spacingBottom=4;spacingRight=2;strokeColor=#6c8ebf;fillColor=#dae8fc;" parent="J3e70sRWHpcorDMng9y1-1" vertex="1">
          <mxGeometry x="70" y="23.54000000000002" width="40" height="40" as="geometry" />
        </mxCell>
        <mxCell id="J3e70sRWHpcorDMng9y1-3" value="&lt;b style=&quot;font-size: 18px;&quot;&gt;SURF (trusted third-party)&lt;br&gt;&lt;/b&gt;" style="text;html=1;strokeColor=none;fillColor=none;align=center;verticalAlign=middle;whiteSpace=wrap;rounded=0;fontSize=18;" parent="J3e70sRWHpcorDMng9y1-1" vertex="1">
          <mxGeometry y="-126.45999999999998" width="260" height="30" as="geometry" />
        </mxCell>
        <mxCell id="4pgbnnCEekSiCqALWcIx-26" style="rounded=0;orthogonalLoop=1;jettySize=auto;html=1;entryX=0.5;entryY=1;entryDx=0;entryDy=0;fillColor=#fff2cc;strokeColor=#d6b656;strokeWidth=4;startArrow=classic;startFill=1;" parent="1" source="Ig7GfmeTVwYkc1D9pHod-4" target="J3e70sRWHpcorDMng9y1-6" edge="1">
          <mxGeometry relative="1" as="geometry" />
        </mxCell>
        <mxCell id="J3e70sRWHpcorDMng9y1-9" style="rounded=0;orthogonalLoop=1;jettySize=auto;html=1;entryX=0;entryY=0.5;entryDx=0;entryDy=0;strokeWidth=3;fillColor=#dae8fc;strokeColor=#6c8ebf;startArrow=classic;startFill=1;" parent="1" source="J3e70sRWHpcorDMng9y1-6" target="4pgbnnCEekSiCqALWcIx-20" edge="1">
          <mxGeometry relative="1" as="geometry" />
        </mxCell>
        <mxCell id="J3e70sRWHpcorDMng9y1-8" value="&lt;font style=&quot;font-size: 16px;&quot;&gt;Microservice&amp;nbsp; chain deployment&lt;/font&gt;" style="text;html=1;strokeColor=none;fillColor=none;align=center;verticalAlign=middle;whiteSpace=wrap;rounded=0;" parent="1" vertex="1">
          <mxGeometry x="130" y="199.99999999999994" width="60" height="30" as="geometry" />
        </mxCell>
        <mxCell id="J3e70sRWHpcorDMng9y1-11" style="rounded=0;orthogonalLoop=1;jettySize=auto;html=1;fillColor=#dae8fc;strokeColor=#6c8ebf;strokeWidth=3;startArrow=classic;startFill=1;" parent="1" source="J3e70sRWHpcorDMng9y1-6" target="4pgbnnCEekSiCqALWcIx-12" edge="1">
          <mxGeometry relative="1" as="geometry" />
        </mxCell>
        <mxCell id="J3e70sRWHpcorDMng9y1-12" value="&lt;b&gt;&lt;font style=&quot;font-size: 16px;&quot;&gt;5&lt;/font&gt;&lt;/b&gt;" style="ellipse;whiteSpace=wrap;html=1;aspect=fixed;strokeWidth=2;fontFamily=Tahoma;spacingBottom=4;spacingRight=2;strokeColor=#d6b656;fillColor=#fff2cc;" parent="1" vertex="1">
          <mxGeometry x="70" y="600" width="40" height="40" as="geometry" />
        </mxCell>
        <mxCell id="J3e70sRWHpcorDMng9y1-19" value="&lt;b&gt;&lt;font style=&quot;font-size: 16px;&quot;&gt;9&lt;/font&gt;&lt;/b&gt;" style="ellipse;whiteSpace=wrap;html=1;aspect=fixed;strokeWidth=2;fontFamily=Tahoma;spacingBottom=4;spacingRight=2;strokeColor=#6c8ebf;fillColor=#dae8fc;" parent="1" vertex="1">
          <mxGeometry x="20" y="600" width="40" height="40" as="geometry" />
        </mxCell>
      </root>
    </mxGraphModel>
  </diagram>
</mxfile>
